<?xml version="1.0" encoding="UTF-8" standalone="no"?>
<!-- Created with Inkscape (http://www.inkscape.org/) -->

<svg
   version="1.1"
   id="svg1"
   width="576"
   height="480"
   viewBox="0 0 576 480"
   sodipodi:docname="compare_XQR30_CROC_0.5_1.5_pMpc_FWHM30kmps.pdf"
   xmlns:inkscape="http://www.inkscape.org/namespaces/inkscape"
   xmlns:sodipodi="http://sodipodi.sourceforge.net/DTD/sodipodi-0.dtd"
   xmlns="http://www.w3.org/2000/svg"
   xmlns:svg="http://www.w3.org/2000/svg">
  <defs
     id="defs1">
    <clipPath
       clipPathUnits="userSpaceOnUse"
       id="clipPath4">
      <path
         d="M 61.634188,55.8 H 410.60648 V 343.2 H 61.634188 Z"
         id="path4" />
    </clipPath>
    <clipPath
       clipPathUnits="userSpaceOnUse"
       id="clipPath6">
      <path
         d="M 61.634188,55.8 H 410.60648 V 343.2 H 61.634188 Z"
         id="path6" />
    </clipPath>
    <clipPath
       clipPathUnits="userSpaceOnUse"
       id="clipPath7">
      <path
         d="m -3.5,-3.5 h 7 v 7 h -7 z"
         transform="translate(-2.5823e-6)"
         id="path7" />
    </clipPath>
    <clipPath
       clipPathUnits="userSpaceOnUse"
       id="clipPath9">
      <path
         d="M 61.634188,55.8 H 410.60648 V 343.2 H 61.634188 Z"
         transform="matrix(1.3333333,0,0,-1.3333333,0,480)"
         id="path9" />
    </clipPath>
    <clipPath
       clipPathUnits="userSpaceOnUse"
       id="clipPath10">
      <path
         d="m -3.5,-3.5 h 7 v 7 h -7 z"
         transform="translate(-2.4722e-6)"
         id="path10" />
    </clipPath>
    <clipPath
       clipPathUnits="userSpaceOnUse"
       id="clipPath12">
      <path
         d="M 61.634188,55.8 H 410.60648 V 343.2 H 61.634188 Z"
         transform="matrix(1.3333333,0,0,-1.3333333,0,480)"
         id="path12" />
    </clipPath>
    <clipPath
       clipPathUnits="userSpaceOnUse"
       id="clipPath14">
      <path
         d="M 61.634188,55.8 H 410.60648 V 343.2 H 61.634188 Z"
         id="path14" />
    </clipPath>
    <clipPath
       clipPathUnits="userSpaceOnUse"
       id="clipPath20">
      <path
         d="M 61.634188,55.8 H 410.60648 V 343.2 H 61.634188 Z"
         id="path20" />
    </clipPath>
    <clipPath
       clipPathUnits="userSpaceOnUse"
       id="clipPath25">
      <path
         d="M 61.634188,55.8 H 410.60648 V 343.2 H 61.634188 Z"
         id="path25" />
    </clipPath>
    <clipPath
       clipPathUnits="userSpaceOnUse"
       id="clipPath30">
      <path
         d="M 61.634188,55.8 H 410.60648 V 343.2 H 61.634188 Z"
         id="path30" />
    </clipPath>
    <clipPath
       clipPathUnits="userSpaceOnUse"
       id="clipPath33">
      <path
         d="M 61.634188,55.8 H 410.60648 V 343.2 H 61.634188 Z"
         id="path33" />
    </clipPath>
    <clipPath
       clipPathUnits="userSpaceOnUse"
       id="clipPath36">
      <path
         d="M 61.634188,55.8 H 410.60648 V 343.2 H 61.634188 Z"
         id="path36" />
    </clipPath>
    <clipPath
       clipPathUnits="userSpaceOnUse"
       id="clipPath39">
      <path
         d="M 61.634188,55.8 H 410.60648 V 343.2 H 61.634188 Z"
         id="path39" />
    </clipPath>
    <clipPath
       clipPathUnits="userSpaceOnUse"
       id="clipPath42">
      <path
         d="M 61.634188,55.8 H 410.60648 V 343.2 H 61.634188 Z"
         id="path42" />
    </clipPath>
    <clipPath
       clipPathUnits="userSpaceOnUse"
       id="clipPath45">
      <path
         d="M 61.634188,55.8 H 410.60648 V 343.2 H 61.634188 Z"
         id="path45" />
    </clipPath>
    <clipPath
       clipPathUnits="userSpaceOnUse"
       id="clipPath48">
      <path
         d="M 61.634188,55.8 H 410.60648 V 343.2 H 61.634188 Z"
         id="path48" />
    </clipPath>
    <clipPath
       clipPathUnits="userSpaceOnUse"
       id="clipPath51">
      <path
         d="M 61.634188,55.8 H 410.60648 V 343.2 H 61.634188 Z"
         id="path51" />
    </clipPath>
    <clipPath
       clipPathUnits="userSpaceOnUse"
       id="clipPath54">
      <path
         d="M 61.634188,55.8 H 410.60648 V 343.2 H 61.634188 Z"
         id="path54" />
    </clipPath>
    <clipPath
       clipPathUnits="userSpaceOnUse"
       id="clipPath57">
      <path
         d="M 61.634188,55.8 H 410.60648 V 343.2 H 61.634188 Z"
         id="path57" />
    </clipPath>
    <clipPath
       clipPathUnits="userSpaceOnUse"
       id="clipPath60">
      <path
         d="M 61.634188,55.8 H 410.60648 V 343.2 H 61.634188 Z"
         id="path60" />
    </clipPath>
    <clipPath
       clipPathUnits="userSpaceOnUse"
       id="clipPath63">
      <path
         d="M 61.634188,55.8 H 410.60648 V 343.2 H 61.634188 Z"
         id="path63" />
    </clipPath>
    <clipPath
       clipPathUnits="userSpaceOnUse"
       id="clipPath66">
      <path
         d="M 61.634188,55.8 H 410.60648 V 343.2 H 61.634188 Z"
         id="path66" />
    </clipPath>
    <clipPath
       clipPathUnits="userSpaceOnUse"
       id="clipPath69">
      <path
         d="M 61.634188,55.8 H 410.60648 V 343.2 H 61.634188 Z"
         id="path69" />
    </clipPath>
    <clipPath
       clipPathUnits="userSpaceOnUse"
       id="clipPath72">
      <path
         d="M 61.634188,55.8 H 410.60648 V 343.2 H 61.634188 Z"
         id="path72" />
    </clipPath>
    <clipPath
       clipPathUnits="userSpaceOnUse"
       id="clipPath75">
      <path
         d="M 61.634188,55.8 H 410.60648 V 343.2 H 61.634188 Z"
         id="path75" />
    </clipPath>
    <clipPath
       clipPathUnits="userSpaceOnUse"
       id="clipPath80">
      <path
         d="M 61.634188,55.8 H 410.60648 V 343.2 H 61.634188 Z"
         id="path80" />
    </clipPath>
    <clipPath
       clipPathUnits="userSpaceOnUse"
       id="clipPath86">
      <path
         d="M 61.634188,55.8 H 410.60648 V 343.2 H 61.634188 Z"
         id="path86" />
    </clipPath>
    <clipPath
       clipPathUnits="userSpaceOnUse"
       id="clipPath92">
      <path
         d="M 61.634188,55.8 H 410.60648 V 343.2 H 61.634188 Z"
         id="path92" />
    </clipPath>
    <clipPath
       clipPathUnits="userSpaceOnUse"
       id="clipPath98">
      <path
         d="M 61.634188,55.8 H 410.60648 V 343.2 H 61.634188 Z"
         id="path98" />
    </clipPath>
    <clipPath
       clipPathUnits="userSpaceOnUse"
       id="clipPath104">
      <path
         d="M 61.634188,55.8 H 410.60648 V 343.2 H 61.634188 Z"
         id="path104" />
    </clipPath>
    <clipPath
       clipPathUnits="userSpaceOnUse"
       id="clipPath110">
      <path
         d="M 61.634188,55.8 H 410.60648 V 343.2 H 61.634188 Z"
         id="path110" />
    </clipPath>
    <clipPath
       clipPathUnits="userSpaceOnUse"
       id="clipPath123">
      <path
         d="M 61.634188,55.8 H 410.60648 V 343.2 H 61.634188 Z"
         id="path123" />
    </clipPath>
    <clipPath
       clipPathUnits="userSpaceOnUse"
       id="clipPath125">
      <path
         d="M 61.634188,55.8 H 410.60648 V 343.2 H 61.634188 Z"
         id="path125" />
    </clipPath>
  </defs>
  <sodipodi:namedview
     id="namedview1"
     pagecolor="#ffffff"
     bordercolor="#000000"
     borderopacity="0.25"
     inkscape:showpageshadow="2"
     inkscape:pageopacity="0.0"
     inkscape:pagecheckerboard="0"
     inkscape:deskcolor="#d1d1d1">
    <inkscape:page
       x="0"
       y="0"
       inkscape:label="1"
       id="page1"
       width="576"
       height="480"
       margin="0"
       bleed="0" />
  </sodipodi:namedview>
  <g
     id="g1"
     inkscape:groupmode="layer"
     inkscape:label="1">
    <path
       id="path1"
       d="M 0,0 H 432 V 360 H 0 Z"
       style="fill:#ffffff;fill-opacity:1;fill-rule:nonzero;stroke:none"
       transform="matrix(1.3333333,0,0,-1.3333333,0,480)" />
    <path
       id="path2"
       d="M 61.634188,55.8 H 410.60648 V 343.2 H 61.634188 Z"
       style="fill:#ffffff;fill-opacity:1;fill-rule:nonzero;stroke:none"
       transform="matrix(1.3333333,0,0,-1.3333333,0,480)" />
    <path
       id="path3"
       d="M -112.85196,124.26194 V 89.93986 l 7.12189,0.101888 7.12188,-0.170063 7.121883,0.0076 7.121884,0.03423 7.121883,0.179633 7.121884,-0.121504 7.121883,0.06968 7.121884,-0.01442 7.121883,0.08032 7.121884,0.09999 7.121883,0.168035 7.121884,0.07585 7.121883,-0.06783 7.121884,-0.04631 7.121883,0.03603 7.121884,-0.02983 7.121883,0.125491 7.121883,0.208141 7.121884,-0.132383 7.121883,0.0076 7.121884,0.06904 7.121883,0.117287 7.121884,0.307932 7.121883,0.06544 7.121884,0.212707 7.121883,0.02243 7.121884,0.274092 7.121883,-0.151598 7.121884,0.339096 7.121886,0.171128 7.12188,0.152618 7.12188,0.212189 7.12189,0.10997 7.12188,0.166552 7.12188,0.646688 7.12189,0.40311 7.12188,0.542354 7.12188,1.176249 7.12189,1.482643 7.12188,1.984257 7.12188,2.861868 7.12189,3.7727 7.12188,5.31599 7.12189,6.57335 7.12188,7.29796 7.12188,8.73726 7.12189,10.35379 7.12188,11.0876 7.12188,13.76712 7.12189,14.81017 7.12188,15.74371 7.12188,13.97194 7.12189,14.69687 7.12188,13.54465 7.12188,13.69384 7.12189,11.7735 7.12188,12.25225 7.12188,10.66762 7.12189,9.13757 7.12188,8.07848 7.12188,6.26994 7.12189,4.87453 7.12188,3.98949 7.12188,3.87319 7.12189,3.22068 7.12188,2.20849 7.12189,1.24355 7.12188,0.65696 7.12188,0.0157 7.12189,-0.0469 7.12188,-0.0214 7.12188,1.437 7.12189,0.2874 7.12188,0.0526 7.12188,0.0157 7.12189,0.002 h 7.12188 7.12188 7.12189 7.12188 7.12188 7.12189 7.12188 7.12188 7.12189 7.12188 7.12188 7.12189 7.12188 l 7.12189,0.37471 h 7.12188 7.12188 l 7.12189,0.01 7.12188,0.0266 h 7.12188 7.12189 l 7.12188,0.2874 h 7.12188 l 174.48615,7.42806 v 0 0 l -174.48615,2.82965 h -7.12188 l -7.12188,-0.2874 h -7.12189 -7.12188 l -7.12188,0.0266 -7.12189,0.01 h -7.12188 -7.12188 l -7.12189,-0.20009 h -7.12188 -7.12189 -7.12188 -7.12188 -7.12189 -7.12188 -7.12188 -7.12189 -7.12188 -7.12188 -7.12189 -7.12188 -7.12188 l -7.12189,0.002 -7.12188,0.0157 -7.12188,0.0526 -7.12189,-0.2874 -7.12188,-1.437 -7.12188,-0.0214 -7.12189,-0.0469 -7.12188,0.0157 -7.12188,-0.49264 -7.12189,-0.48085 -7.12188,-1.81511 -7.12189,-2.52732 -7.12188,-3.59921 -7.12188,-3.48291 -7.12189,-4.32227 -7.12188,-4.65126 -7.12188,-6.29152 -7.12189,-6.95683 -7.12188,-7.15118 -7.12188,-8.44055 -7.12189,-9.2067 -7.12188,-10.73516 -7.12188,-11.17175 -7.12189,-10.59433 -7.12188,-11.89406 -7.12188,-11.84669 -7.12189,-9.90623 -7.12188,-9.22488 -7.12188,-9.0304 -7.12189,-8.03981 -7.12188,-7.93194 -7.12188,-6.49724 -7.12189,-6.64705 -7.12188,-4.74301 -7.12189,-5.1367 -7.12188,-4.61053 -7.12188,-4.05115 -7.12189,-3.40315 -7.12188,-2.84736 -7.12188,-2.90644 -7.12189,-1.89609 -7.12188,-2.22731 -7.12188,-1.55785 -7.12189,-1.61443 -7.12188,-1.51221 -7.12188,-0.99698 -7.121886,-0.97848 -7.121884,-0.8105 -7.121883,-0.7264 -7.121884,-0.87551 -7.121883,-0.55236 -7.121884,-0.3621 -7.121883,-0.50936 -7.121884,-0.26686 -7.121883,-0.45752 -7.121884,-0.50576 -7.121883,0.008 -7.121884,-0.41979 -7.121883,-0.36666 -7.121883,-0.16191 -7.121884,-0.31722 -7.121883,-0.25137 -7.121884,-0.0463 -7.121883,-0.0678 -7.121884,-0.21155 -7.121883,-0.11936 -7.121884,-0.18741 -7.121883,-0.20708 -7.121884,-0.0144 -7.121883,0.0697 -7.121884,-0.1215 -7.121883,-0.10777 -7.121884,-0.25317 -7.121883,0.008 -7.12188,-0.17007 -7.12189,-0.18551 z"
       style="fill:#1f77b4;fill-opacity:0.3;fill-rule:nonzero;stroke:none"
       transform="matrix(1.3333333,0,0,-1.3333333,0,480)"
       clip-path="url(#clipPath4)" />
    <path
       id="path5"
       d="M -112.85196,130.84427 V 83.375229 h 7.12189 7.12188 7.121883 7.121884 7.121883 7.121884 l 7.121883,0.04214 h 7.121884 7.121883 7.121884 l 7.121883,0.0067 h 7.121884 l 7.121883,0.0067 7.121884,0.04214 7.121883,0.01349 7.121884,0.0708 7.121883,0.04214 7.121883,0.07754 7.121884,0.09777 7.121883,0.11968 7.121884,0.05563 7.121883,0.08428 7.121884,0.11968 7.121883,0.168563 7.121884,0.08428 7.121883,0.190476 7.121884,0.188791 7.121883,0.274758 7.121884,0.379267 7.121886,0.357353 7.12188,0.632112 7.12188,0.463548 7.12189,0.800675 7.12188,0.654024 7.12188,0.954067 7.12189,1.264223 7.12188,2.073326 7.12188,3.050991 7.12189,2.784661 7.12188,4.052256 7.12188,5.303 7.12189,5.6536 7.12188,7.07965 7.12189,9.4193 7.12188,11.07628 7.12188,13.15466 7.12189,13.60472 7.12188,14.22841 7.12188,15.67636 7.12189,14.25033 7.12188,14.77792 7.12188,13.64012 7.12189,12.72651 7.12188,11.22293 7.12188,11.7303 7.12189,9.05184 7.12188,9.27096 7.12188,7.3325 7.12189,6.69364 7.12188,5.8997 7.12188,5.02824 7.12189,4.33375 7.12188,3.25159 7.12188,2.78129 7.12189,2.10029 7.12188,1.69238 7.12189,1.30636 7.12188,0.92035 7.12188,0.71639 7.12189,0.50569 7.12188,0.30173 7.12188,0.2461 7.12189,0.32365 7.12188,0.0624 7.12188,0.12643 7.12189,0.0421 7.12188,0.0354 7.12188,0.007 h 7.12189 l 7.12188,0.0354 h 7.12188 l 7.12189,0.0421 h 7.12188 7.12188 7.12189 l 7.12188,0.007 h 7.12188 7.12189 7.12188 7.12189 7.12188 7.12188 7.12189 7.12188 7.12188 7.12189 7.12188 7.12188 l 174.48615,5.01475 v 0 0 l -174.48615,-0.88496 h -7.12188 -7.12188 -7.12189 -7.12188 -7.12188 -7.12189 -7.12188 -7.12188 -7.12189 -7.12188 -7.12189 -7.12188 -7.12188 -7.12189 -7.12188 -7.12188 -7.12189 -7.12188 -7.12188 -7.12189 -7.12188 -7.12188 -7.12189 -7.12188 l -7.12188,-0.12642 -7.12189,-0.0421 -7.12188,-0.0421 -7.12188,-0.0421 -7.12189,-0.0843 -7.12188,-0.29499 -7.12188,-0.2107 -7.12189,-0.37253 -7.12188,-0.54783 -7.12189,-0.72313 -7.12188,-1.25748 -7.12188,-1.55921 -7.12189,-1.90308 -7.12188,-2.57058 -7.12188,-3.53308 -7.12189,-3.92584 -7.12188,-4.66414 -7.12188,-6.08175 -7.12189,-6.48294 -7.12188,-7.33923 -7.12188,-8.25285 -7.12189,-9.08218 -7.12188,-10.22503 -7.12188,-11.28698 -7.12189,-12.82596 -7.12188,-12.67595 -7.12188,-13.34513 -7.12189,-12.70629 -7.12188,-12.36747 -7.12188,-11.38474 -7.12189,-9.17995 -7.12188,-7.85335 -7.12189,-7.37295 -7.12188,-5.98399 -7.12188,-5.07206 -7.12189,-3.61062 -7.12188,-2.75938 -7.12188,-2.24694 -7.12189,-2.15087 -7.12188,-1.43953 -7.12188,-1.6772 -7.12189,-0.9271 -7.12188,-0.9844 -7.12188,-0.70123 -7.121886,-0.68942 -7.121884,-0.46355 -7.121883,-0.27981 -7.121884,-0.34387 -7.121883,-0.29499 -7.121884,-0.2461 -7.121883,-0.2461 -7.121884,-0.13316 -7.121883,-0.16183 -7.121884,-0.0489 -7.121883,-0.091 -7.121884,-0.1416 -7.121883,-0.0421 -7.121883,-0.0421 -7.121884,-0.0978 -7.121883,-0.0354 -7.121884,-0.0708 -7.121883,-0.0354 -7.121884,-0.0421 -7.121883,-0.0354 -7.121884,-0.007 -7.121883,-0.007 h -7.121884 -7.121883 -7.121884 -7.121883 -7.121884 -7.121883 -7.12188 -7.12189 z"
       style="fill:#ff7f0e;fill-opacity:0.3;fill-rule:nonzero;stroke:none"
       transform="matrix(1.3333333,0,0,-1.3333333,0,480)"
       clip-path="url(#clipPath6)" />
    <g
       id="g8"
       clip-path="url(#clipPath9)">
      <path
         d="m 0,-3 c 0.795609,0 1.55874,0.316099 2.12132,0.87868 C 2.683901,-1.55874 3,-0.795609 3,0 3,0.795609 2.683901,1.55874 2.12132,2.12132 1.55874,2.683901 0.795609,3 0,3 -0.795609,3 -1.55874,2.683901 -2.12132,2.12132 -2.683901,1.55874 -3,0.795609 -3,0 -3,-0.795609 -2.683901,-1.55874 -2.12132,-2.12132 -1.55874,-2.683901 -0.795609,-3 0,-3 Z"
         style="fill:#2ca02c;fill-opacity:1;fill-rule:nonzero;stroke:#2ca02c;stroke-width:1;stroke-linecap:butt;stroke-linejoin:round;stroke-miterlimit:10;stroke-dasharray:none;stroke-opacity:1"
         transform="matrix(1.3333333,0,0,-1.3333333,318.78989,175.68)"
         clip-path="url(#clipPath7)"
         id="path8" />
    </g>
    <g
       id="g11"
       clip-path="url(#clipPath12)">
      <path
         d="m 0,-3 c 0.795609,0 1.55874,0.316099 2.12132,0.87868 C 2.683901,-1.55874 3,-0.795609 3,0 3,0.795609 2.683901,1.55874 2.12132,2.12132 1.55874,2.683901 0.795609,3 0,3 -0.795609,3 -1.55874,2.683901 -2.12132,2.12132 -2.683901,1.55874 -3,0.795609 -3,0 -3,-0.795609 -2.683901,-1.55874 -2.12132,-2.12132 -1.55874,-2.683901 -0.795609,-3 0,-3 Z"
         style="fill:#2ca02c;fill-opacity:1;fill-rule:nonzero;stroke:#2ca02c;stroke-width:1;stroke-linecap:butt;stroke-linejoin:round;stroke-miterlimit:10;stroke-dasharray:none;stroke-opacity:1"
         transform="matrix(1.3333333,0,0,-1.3333333,339.76932,175.68)"
         clip-path="url(#clipPath10)"
         id="path11" />
    </g>
    <path
       id="path13"
       d="M 61.634188,55.8 V 343.2"
       style="fill:none;stroke:#b0b0b0;stroke-width:0.8;stroke-linecap:butt;stroke-linejoin:round;stroke-miterlimit:10;stroke-dasharray:4, 4;stroke-dashoffset:0;stroke-opacity:0.5"
       transform="matrix(1.3333333,0,0,-1.3333333,0,480)"
       clip-path="url(#clipPath14)" />
    <path
       id="path15"
       d="M 61.634188,55.8 V 52.3"
       style="fill:#000000;fill-opacity:1;fill-rule:nonzero;stroke:#000000;stroke-width:0.8;stroke-linecap:butt;stroke-linejoin:round;stroke-miterlimit:10;stroke-dasharray:none;stroke-opacity:1"
       transform="matrix(1.3333333,0,0,-1.3333333,0,480)" />
    <g
       id="g15"
       aria-label="10&#10;−1"
       transform="matrix(1.3333333,0,0,1.3333333,62.268525,429.69278)">
      <path
         id="path16"
         d="m 4.5945048,-10.219784 c 0,-0.363281 0,-0.375 -0.328125,-0.375 -0.375,0.421875 -1.171875,1.0195317 -2.8125,1.0195317 v 0.4570312 c 0.3632812,0 1.1601562,0 2.0390625,-0.4101562 v 8.296875 c 0,0.5742187 -0.046875,0.77343745 -1.453125,0.77343745 H 1.5476298 v 0.45703125 c 0.4335937,-0.03515625 1.9804687,-0.03515625 2.4960937,-0.03515625 0.5273438,0 2.0625,0 2.4960938,0.03515625 V -0.45806485 H 6.035911 c -1.3945312,0 -1.4414062,-0.19921875 -1.4414062,-0.77343745 z m 10.3359372,5.1210942 c 0,-1.3242188 -0.08203,-2.6132813 -0.644531,-3.8320313 -0.65625,-1.3124999 -1.804687,-1.6640629 -2.589844,-1.6640629 -0.925781,0 -2.050781,0.457032 -2.6484372,1.7812504 -0.4453125,1.0078125 -0.5976563,1.9921875 -0.5976563,3.7148438 0,1.546875 0.1054688,2.7070312 0.6796875,3.84375 0.6210938,1.2070312 1.722656,1.59374995 2.554688,1.59374995 1.382812,0 2.179687,-0.83203125 2.648437,-1.75781245 0.574219,-1.1953125 0.597656,-2.7539063 0.597656,-3.6796875 z m -3.246093,5.10937495 c -0.515625,0 -1.546875,-0.28125 -1.851563,-2.01562495 -0.1757812,-0.9609375 -0.1757812,-2.1679688 -0.1757812,-3.2929688 0,-1.3007812 0,-2.484375 0.2578125,-3.421875 0.2695317,-1.0664062 1.0781247,-1.5585934 1.7695317,-1.5585934 0.609375,0 1.523437,0.3632809 1.828125,1.7343747 0.210937,0.9140625 0.210937,2.1679687 0.210937,3.2460937 0,1.078125 0,2.2851563 -0.175781,3.2578125 -0.304688,1.7578125 -1.3125,2.05078125 -1.863281,2.05078125 z m 0,0"
         style="fill:#000000;fill-opacity:1;fill-rule:nonzero;stroke:none" />
      <path
         id="path17"
         d="m 22.954856,-8.350643 c 0.199219,0 0.398438,0 0.398438,-0.2226562 0,-0.2226563 -0.199219,-0.2226563 -0.398438,-0.2226563 H 16.9197 c -0.1875,0 -0.386719,0 -0.386719,0.2226563 0,0.2226562 0.199219,0.2226562 0.386719,0.2226562 z m 0,0"
         style="fill:#000000;fill-opacity:1;fill-rule:nonzero;stroke:none" />
      <path
         id="path18"
         d="m 27.569114,-12.920955 c 0,-0.269532 0,-0.292969 -0.257812,-0.292969 -0.691407,0.714844 -1.675782,0.714844 -2.027344,0.714844 v 0.339843 c 0.222656,0 0.878906,0 1.453125,-0.28125 v 5.777344 c 0,0.3984375 -0.02344,0.5273438 -1.03125,0.5273438 h -0.363281 v 0.3515625 c 0.398437,-0.035156 1.371093,-0.035156 1.816406,-0.035156 0.445312,0 1.417969,0 1.804687,0.035156 v -0.3515625 h -0.363281 c -0.996094,0 -1.03125,-0.1171875 -1.03125,-0.5273438 z m 0,0"
         style="fill:#000000;fill-opacity:1;fill-rule:nonzero;stroke:none" />
    </g>
    <path
       id="path19"
       d="M 236.12033,55.8 V 343.2"
       style="fill:none;stroke:#b0b0b0;stroke-width:0.8;stroke-linecap:butt;stroke-linejoin:round;stroke-miterlimit:10;stroke-dasharray:4, 4;stroke-dashoffset:0;stroke-opacity:0.5"
       transform="matrix(1.3333333,0,0,-1.3333333,0,480)"
       clip-path="url(#clipPath20)" />
    <path
       id="path21"
       d="M 236.12033,55.8 V 52.3"
       style="fill:#000000;fill-opacity:1;fill-rule:nonzero;stroke:#000000;stroke-width:0.8;stroke-linecap:butt;stroke-linejoin:round;stroke-miterlimit:10;stroke-dasharray:none;stroke-opacity:1"
       transform="matrix(1.3333333,0,0,-1.3333333,0,480)" />
    <g
       id="g21"
       aria-label="10&#10;0"
       transform="matrix(1.3333333,0,0,1.3333333,300.70242,429.69278)">
      <path
         id="path22"
         d="m 4.5942822,-10.219784 c 0,-0.363281 0,-0.375 -0.328125,-0.375 -0.375,0.421875 -1.171875,1.0195317 -2.8125,1.0195317 v 0.4570312 c 0.3632813,0 1.1601563,0 2.0390625,-0.4101562 v 8.296875 c 0,0.5742187 -0.046875,0.77343745 -1.453125,0.77343745 H 1.5474072 V -0.0010336 C 1.981001,-0.03618985 3.527876,-0.03618985 4.043501,-0.03618985 c 0.5273437,0 2.0625,0 2.4960937,0.03515625 V -0.45806485 H 6.0356885 c -1.3945313,0 -1.4414063,-0.19921875 -1.4414063,-0.77343745 z M 14.93022,-5.0986898 c 0,-1.3242188 -0.08203,-2.6132813 -0.644532,-3.8320313 -0.65625,-1.3124999 -1.804687,-1.6640629 -2.589843,-1.6640629 -0.925782,0 -2.0507815,0.457032 -2.6484378,1.7812504 -0.4453125,1.0078125 -0.5976562,1.9921875 -0.5976562,3.7148438 0,1.546875 0.1054687,2.7070312 0.6796875,3.84375 0.6210937,1.2070312 1.7226565,1.59374995 2.5546875,1.59374995 1.382812,0 2.179687,-0.83203125 2.648437,-1.75781245 0.574219,-1.1953125 0.597657,-2.7539063 0.597657,-3.6796875 z m -3.246094,5.10937495 c -0.515625,0 -1.546875,-0.28125 -1.8515625,-2.01562495 -0.1757813,-0.9609375 -0.1757813,-2.1679688 -0.1757813,-3.2929688 0,-1.3007812 0,-2.484375 0.2578125,-3.421875 0.2695313,-1.0664062 1.0781253,-1.5585934 1.7695313,-1.5585934 0.609375,0 1.523437,0.3632809 1.828125,1.7343747 0.210937,0.9140625 0.210937,2.1679687 0.210937,3.2460937 0,1.078125 0,2.2851563 -0.175781,3.2578125 -0.304687,1.7578125 -1.3125,2.05078125 -1.863281,2.05078125 z m 0,0"
         style="fill:#000000;fill-opacity:1;fill-rule:nonzero;stroke:none" />
      <path
         id="path23"
         d="m 20.73979,-9.3584555 c 0,-0.8906245 -0.05859,-1.7812495 -0.445312,-2.6015625 -0.515625,-1.078125 -1.429688,-1.253906 -1.898438,-1.253906 -0.667969,0 -1.488281,0.292969 -1.945312,1.324219 -0.351563,0.773437 -0.410157,1.640625 -0.410157,2.5312495 0,0.84375 0.04687,1.8398438 0.503907,2.6953125 0.480468,0.9023438 1.289062,1.125 1.839843,1.125 0.597657,0 1.453125,-0.234375 1.945313,-1.2890625 0.351562,-0.7734375 0.410156,-1.640625 0.410156,-2.53125 z m -2.355469,3.5742188 c -0.433593,0 -1.089843,-0.28125 -1.289062,-1.3476563 -0.128906,-0.6679687 -0.128906,-1.6992187 -0.128906,-2.3554687 0,-0.7148433 0,-1.4531253 0.09375,-2.0507813 0.210937,-1.335937 1.042968,-1.429687 1.324218,-1.429687 0.363282,0 1.101563,0.199218 1.3125,1.300781 0.117188,0.632812 0.117188,1.476562 0.117188,2.1796873 0,0.8320312 0,1.59375 -0.128906,2.3085937 -0.164063,1.0546875 -0.796875,1.3945313 -1.300782,1.3945313 z m 0,0"
         style="fill:#000000;fill-opacity:1;fill-rule:nonzero;stroke:none" />
    </g>
    <path
       id="path24"
       d="M 410.60648,55.8 V 343.2"
       style="fill:none;stroke:#b0b0b0;stroke-width:0.8;stroke-linecap:butt;stroke-linejoin:round;stroke-miterlimit:10;stroke-dasharray:4, 4;stroke-dashoffset:0;stroke-opacity:0.5"
       transform="matrix(1.3333333,0,0,-1.3333333,0,480)"
       clip-path="url(#clipPath25)" />
    <path
       id="path26"
       d="M 410.60648,55.8 V 52.3"
       style="fill:#000000;fill-opacity:1;fill-rule:nonzero;stroke:#000000;stroke-width:0.8;stroke-linecap:butt;stroke-linejoin:round;stroke-miterlimit:10;stroke-dasharray:none;stroke-opacity:1"
       transform="matrix(1.3333333,0,0,-1.3333333,0,480)" />
    <g
       id="g26"
       aria-label="10&#10;1"
       transform="matrix(1.3333333,0,0,1.3333333,533.35061,429.69278)">
      <path
         id="path27"
         d="m 4.5944652,-10.219784 c 0,-0.363281 0,-0.375 -0.328125,-0.375 -0.375,0.421875 -1.171875,1.0195317 -2.8125,1.0195317 v 0.4570312 c 0.3632813,0 1.1601563,0 2.0390625,-0.4101562 v 8.296875 c 0,0.5742187 -0.046875,0.77343745 -1.453125,0.77343745 H 1.5475902 V -0.0010336 C 1.981184,-0.03618985 3.528059,-0.03618985 4.043684,-0.03618985 c 0.5273437,0 2.0625,0 2.4960937,0.03515625 V -0.45806485 H 6.0358715 c -1.3945313,0 -1.4414063,-0.19921875 -1.4414063,-0.77343745 z m 10.3359378,5.1210942 c 0,-1.3242188 -0.08203,-2.6132813 -0.644532,-3.8320313 -0.65625,-1.3124999 -1.804687,-1.6640629 -2.589843,-1.6640629 -0.925782,0 -2.0507815,0.457032 -2.6484378,1.7812504 -0.4453125,1.0078125 -0.5976562,1.9921875 -0.5976562,3.7148438 0,1.546875 0.1054687,2.7070312 0.6796875,3.84375 0.6210937,1.2070312 1.7226565,1.59374995 2.5546875,1.59374995 1.382812,0 2.179687,-0.83203125 2.648437,-1.75781245 0.574219,-1.1953125 0.597657,-2.7539063 0.597657,-3.6796875 z m -3.246094,5.10937495 c -0.515625,0 -1.546875,-0.28125 -1.8515625,-2.01562495 -0.1757813,-0.9609375 -0.1757813,-2.1679688 -0.1757813,-3.2929688 0,-1.3007812 0,-2.484375 0.2578125,-3.421875 0.2695313,-1.0664062 1.0781253,-1.5585934 1.7695313,-1.5585934 0.609375,0 1.523437,0.3632809 1.828125,1.7343747 0.210937,0.9140625 0.210937,2.1679687 0.210937,3.2460937 0,1.078125 0,2.2851563 -0.175781,3.2578125 -0.304687,1.7578125 -1.3125,2.05078125 -1.863281,2.05078125 z m 0,0"
         style="fill:#000000;fill-opacity:1;fill-rule:nonzero;stroke:none" />
      <path
         id="path28"
         d="m 18.888411,-12.920955 c 0,-0.269532 0,-0.292969 -0.257813,-0.292969 -0.691406,0.714844 -1.675781,0.714844 -2.027344,0.714844 v 0.339843 c 0.222657,0 0.878907,0 1.453125,-0.28125 v 5.777344 c 0,0.3984375 -0.02344,0.5273438 -1.03125,0.5273438 h -0.363281 v 0.3515625 c 0.398438,-0.035156 1.371094,-0.035156 1.816406,-0.035156 0.445313,0 1.417969,0 1.804688,0.035156 v -0.3515625 h -0.363281 c -0.996094,0 -1.03125,-0.1171875 -1.03125,-0.5273438 z m 0,0"
         style="fill:#000000;fill-opacity:1;fill-rule:nonzero;stroke:none" />
    </g>
    <path
       id="path29"
       d="M 114.15975,55.8 V 343.2"
       style="fill:none;stroke:#b0b0b0;stroke-width:0.8;stroke-linecap:butt;stroke-linejoin:round;stroke-miterlimit:10;stroke-dasharray:4, 4;stroke-dashoffset:0;stroke-opacity:0.5"
       transform="matrix(1.3333333,0,0,-1.3333333,0,480)"
       clip-path="url(#clipPath30)" />
    <path
       id="path31"
       d="m 114.15975,55.8 v -2"
       style="fill:#000000;fill-opacity:1;fill-rule:nonzero;stroke:#000000;stroke-width:0.6;stroke-linecap:butt;stroke-linejoin:round;stroke-miterlimit:10;stroke-dasharray:none;stroke-opacity:1"
       transform="matrix(1.3333333,0,0,-1.3333333,0,480)" />
    <path
       id="path32"
       d="M 144.88524,55.8 V 343.2"
       style="fill:none;stroke:#b0b0b0;stroke-width:0.8;stroke-linecap:butt;stroke-linejoin:round;stroke-miterlimit:10;stroke-dasharray:4, 4;stroke-dashoffset:0;stroke-opacity:0.5"
       transform="matrix(1.3333333,0,0,-1.3333333,0,480)"
       clip-path="url(#clipPath33)" />
    <path
       id="path34"
       d="m 144.88524,55.8 v -2"
       style="fill:#000000;fill-opacity:1;fill-rule:nonzero;stroke:#000000;stroke-width:0.6;stroke-linecap:butt;stroke-linejoin:round;stroke-miterlimit:10;stroke-dasharray:none;stroke-opacity:1"
       transform="matrix(1.3333333,0,0,-1.3333333,0,480)" />
    <path
       id="path35"
       d="M 166.68531,55.8 V 343.2"
       style="fill:none;stroke:#b0b0b0;stroke-width:0.8;stroke-linecap:butt;stroke-linejoin:round;stroke-miterlimit:10;stroke-dasharray:4, 4;stroke-dashoffset:0;stroke-opacity:0.5"
       transform="matrix(1.3333333,0,0,-1.3333333,0,480)"
       clip-path="url(#clipPath36)" />
    <path
       id="path37"
       d="m 166.68531,55.8 v -2"
       style="fill:#000000;fill-opacity:1;fill-rule:nonzero;stroke:#000000;stroke-width:0.6;stroke-linecap:butt;stroke-linejoin:round;stroke-miterlimit:10;stroke-dasharray:none;stroke-opacity:1"
       transform="matrix(1.3333333,0,0,-1.3333333,0,480)" />
    <path
       id="path38"
       d="M 183.59477,55.8 V 343.2"
       style="fill:none;stroke:#b0b0b0;stroke-width:0.8;stroke-linecap:butt;stroke-linejoin:round;stroke-miterlimit:10;stroke-dasharray:4, 4;stroke-dashoffset:0;stroke-opacity:0.5"
       transform="matrix(1.3333333,0,0,-1.3333333,0,480)"
       clip-path="url(#clipPath39)" />
    <path
       id="path40"
       d="m 183.59477,55.8 v -2"
       style="fill:#000000;fill-opacity:1;fill-rule:nonzero;stroke:#000000;stroke-width:0.6;stroke-linecap:butt;stroke-linejoin:round;stroke-miterlimit:10;stroke-dasharray:none;stroke-opacity:1"
       transform="matrix(1.3333333,0,0,-1.3333333,0,480)" />
    <path
       id="path41"
       d="M 197.4108,55.8 V 343.2"
       style="fill:none;stroke:#b0b0b0;stroke-width:0.8;stroke-linecap:butt;stroke-linejoin:round;stroke-miterlimit:10;stroke-dasharray:4, 4;stroke-dashoffset:0;stroke-opacity:0.5"
       transform="matrix(1.3333333,0,0,-1.3333333,0,480)"
       clip-path="url(#clipPath42)" />
    <path
       id="path43"
       d="m 197.4108,55.8 v -2"
       style="fill:#000000;fill-opacity:1;fill-rule:nonzero;stroke:#000000;stroke-width:0.6;stroke-linecap:butt;stroke-linejoin:round;stroke-miterlimit:10;stroke-dasharray:none;stroke-opacity:1"
       transform="matrix(1.3333333,0,0,-1.3333333,0,480)" />
    <path
       id="path44"
       d="M 209.09209,55.8 V 343.2"
       style="fill:none;stroke:#b0b0b0;stroke-width:0.8;stroke-linecap:butt;stroke-linejoin:round;stroke-miterlimit:10;stroke-dasharray:4, 4;stroke-dashoffset:0;stroke-opacity:0.5"
       transform="matrix(1.3333333,0,0,-1.3333333,0,480)"
       clip-path="url(#clipPath45)" />
    <path
       id="path46"
       d="m 209.09209,55.8 v -2"
       style="fill:#000000;fill-opacity:1;fill-rule:nonzero;stroke:#000000;stroke-width:0.6;stroke-linecap:butt;stroke-linejoin:round;stroke-miterlimit:10;stroke-dasharray:none;stroke-opacity:1"
       transform="matrix(1.3333333,0,0,-1.3333333,0,480)" />
    <path
       id="path47"
       d="M 219.21088,55.8 V 343.2"
       style="fill:none;stroke:#b0b0b0;stroke-width:0.8;stroke-linecap:butt;stroke-linejoin:round;stroke-miterlimit:10;stroke-dasharray:4, 4;stroke-dashoffset:0;stroke-opacity:0.5"
       transform="matrix(1.3333333,0,0,-1.3333333,0,480)"
       clip-path="url(#clipPath48)" />
    <path
       id="path49"
       d="m 219.21088,55.8 v -2"
       style="fill:#000000;fill-opacity:1;fill-rule:nonzero;stroke:#000000;stroke-width:0.6;stroke-linecap:butt;stroke-linejoin:round;stroke-miterlimit:10;stroke-dasharray:none;stroke-opacity:1"
       transform="matrix(1.3333333,0,0,-1.3333333,0,480)" />
    <path
       id="path50"
       d="M 228.13628,55.8 V 343.2"
       style="fill:none;stroke:#b0b0b0;stroke-width:0.8;stroke-linecap:butt;stroke-linejoin:round;stroke-miterlimit:10;stroke-dasharray:4, 4;stroke-dashoffset:0;stroke-opacity:0.5"
       transform="matrix(1.3333333,0,0,-1.3333333,0,480)"
       clip-path="url(#clipPath51)" />
    <path
       id="path52"
       d="m 228.13628,55.8 v -2"
       style="fill:#000000;fill-opacity:1;fill-rule:nonzero;stroke:#000000;stroke-width:0.6;stroke-linecap:butt;stroke-linejoin:round;stroke-miterlimit:10;stroke-dasharray:none;stroke-opacity:1"
       transform="matrix(1.3333333,0,0,-1.3333333,0,480)" />
    <path
       id="path53"
       d="M 288.6459,55.8 V 343.2"
       style="fill:none;stroke:#b0b0b0;stroke-width:0.8;stroke-linecap:butt;stroke-linejoin:round;stroke-miterlimit:10;stroke-dasharray:4, 4;stroke-dashoffset:0;stroke-opacity:0.5"
       transform="matrix(1.3333333,0,0,-1.3333333,0,480)"
       clip-path="url(#clipPath54)" />
    <path
       id="path55"
       d="m 288.6459,55.8 v -2"
       style="fill:#000000;fill-opacity:1;fill-rule:nonzero;stroke:#000000;stroke-width:0.6;stroke-linecap:butt;stroke-linejoin:round;stroke-miterlimit:10;stroke-dasharray:none;stroke-opacity:1"
       transform="matrix(1.3333333,0,0,-1.3333333,0,480)" />
    <path
       id="path56"
       d="M 319.37138,55.8 V 343.2"
       style="fill:none;stroke:#b0b0b0;stroke-width:0.8;stroke-linecap:butt;stroke-linejoin:round;stroke-miterlimit:10;stroke-dasharray:4, 4;stroke-dashoffset:0;stroke-opacity:0.5"
       transform="matrix(1.3333333,0,0,-1.3333333,0,480)"
       clip-path="url(#clipPath57)" />
    <path
       id="path58"
       d="m 319.37138,55.8 v -2"
       style="fill:#000000;fill-opacity:1;fill-rule:nonzero;stroke:#000000;stroke-width:0.6;stroke-linecap:butt;stroke-linejoin:round;stroke-miterlimit:10;stroke-dasharray:none;stroke-opacity:1"
       transform="matrix(1.3333333,0,0,-1.3333333,0,480)" />
    <path
       id="path59"
       d="M 341.17146,55.8 V 343.2"
       style="fill:none;stroke:#b0b0b0;stroke-width:0.8;stroke-linecap:butt;stroke-linejoin:round;stroke-miterlimit:10;stroke-dasharray:4, 4;stroke-dashoffset:0;stroke-opacity:0.5"
       transform="matrix(1.3333333,0,0,-1.3333333,0,480)"
       clip-path="url(#clipPath60)" />
    <path
       id="path61"
       d="m 341.17146,55.8 v -2"
       style="fill:#000000;fill-opacity:1;fill-rule:nonzero;stroke:#000000;stroke-width:0.6;stroke-linecap:butt;stroke-linejoin:round;stroke-miterlimit:10;stroke-dasharray:none;stroke-opacity:1"
       transform="matrix(1.3333333,0,0,-1.3333333,0,480)" />
    <path
       id="path62"
       d="M 358.08091,55.8 V 343.2"
       style="fill:none;stroke:#b0b0b0;stroke-width:0.8;stroke-linecap:butt;stroke-linejoin:round;stroke-miterlimit:10;stroke-dasharray:4, 4;stroke-dashoffset:0;stroke-opacity:0.5"
       transform="matrix(1.3333333,0,0,-1.3333333,0,480)"
       clip-path="url(#clipPath63)" />
    <path
       id="path64"
       d="m 358.08091,55.8 v -2"
       style="fill:#000000;fill-opacity:1;fill-rule:nonzero;stroke:#000000;stroke-width:0.6;stroke-linecap:butt;stroke-linejoin:round;stroke-miterlimit:10;stroke-dasharray:none;stroke-opacity:1"
       transform="matrix(1.3333333,0,0,-1.3333333,0,480)" />
    <path
       id="path65"
       d="M 371.89694,55.8 V 343.2"
       style="fill:none;stroke:#b0b0b0;stroke-width:0.8;stroke-linecap:butt;stroke-linejoin:round;stroke-miterlimit:10;stroke-dasharray:4, 4;stroke-dashoffset:0;stroke-opacity:0.5"
       transform="matrix(1.3333333,0,0,-1.3333333,0,480)"
       clip-path="url(#clipPath66)" />
    <path
       id="path67"
       d="m 371.89694,55.8 v -2"
       style="fill:#000000;fill-opacity:1;fill-rule:nonzero;stroke:#000000;stroke-width:0.6;stroke-linecap:butt;stroke-linejoin:round;stroke-miterlimit:10;stroke-dasharray:none;stroke-opacity:1"
       transform="matrix(1.3333333,0,0,-1.3333333,0,480)" />
    <path
       id="path68"
       d="M 383.57823,55.8 V 343.2"
       style="fill:none;stroke:#b0b0b0;stroke-width:0.8;stroke-linecap:butt;stroke-linejoin:round;stroke-miterlimit:10;stroke-dasharray:4, 4;stroke-dashoffset:0;stroke-opacity:0.5"
       transform="matrix(1.3333333,0,0,-1.3333333,0,480)"
       clip-path="url(#clipPath69)" />
    <path
       id="path70"
       d="m 383.57823,55.8 v -2"
       style="fill:#000000;fill-opacity:1;fill-rule:nonzero;stroke:#000000;stroke-width:0.6;stroke-linecap:butt;stroke-linejoin:round;stroke-miterlimit:10;stroke-dasharray:none;stroke-opacity:1"
       transform="matrix(1.3333333,0,0,-1.3333333,0,480)" />
    <path
       id="path71"
       d="M 393.69702,55.8 V 343.2"
       style="fill:none;stroke:#b0b0b0;stroke-width:0.8;stroke-linecap:butt;stroke-linejoin:round;stroke-miterlimit:10;stroke-dasharray:4, 4;stroke-dashoffset:0;stroke-opacity:0.5"
       transform="matrix(1.3333333,0,0,-1.3333333,0,480)"
       clip-path="url(#clipPath72)" />
    <path
       id="path73"
       d="m 393.69702,55.8 v -2"
       style="fill:#000000;fill-opacity:1;fill-rule:nonzero;stroke:#000000;stroke-width:0.6;stroke-linecap:butt;stroke-linejoin:round;stroke-miterlimit:10;stroke-dasharray:none;stroke-opacity:1"
       transform="matrix(1.3333333,0,0,-1.3333333,0,480)" />
    <path
       id="path74"
       d="M 402.62243,55.8 V 343.2"
       style="fill:none;stroke:#b0b0b0;stroke-width:0.8;stroke-linecap:butt;stroke-linejoin:round;stroke-miterlimit:10;stroke-dasharray:4, 4;stroke-dashoffset:0;stroke-opacity:0.5"
       transform="matrix(1.3333333,0,0,-1.3333333,0,480)"
       clip-path="url(#clipPath75)" />
    <path
       id="path76"
       d="m 402.62243,55.8 v -2"
       style="fill:#000000;fill-opacity:1;fill-rule:nonzero;stroke:#000000;stroke-width:0.6;stroke-linecap:butt;stroke-linejoin:round;stroke-miterlimit:10;stroke-dasharray:none;stroke-opacity:1"
       transform="matrix(1.3333333,0,0,-1.3333333,0,480)" />
    <g
       id="g76"
       aria-label="1+δ"
       transform="matrix(1.3333333,0,0,1.3333333,287.50863,457.60808)">
      <path
         id="path77"
         d="m 5.2962646,-12.725593 c 0,-0.421875 -0.023437,-0.445312 -0.2929687,-0.445312 -0.7851563,0.9375 -1.9570313,1.242187 -3.0703125,1.277344 -0.058594,0 -0.1640625,0 -0.1757813,0.04687 -0.023437,0.03516 -0.023437,0.07031 -0.023437,0.492187 0.6210938,0 1.6523438,-0.117187 2.4492188,-0.597656 v 10.5 c 0,0.69140625 -0.035156,0.9375 -1.7578125,0.9375 H 1.8275146 V 9.699953e-4 C 2.7884521,-0.0224675 3.7845459,-0.03418625 4.7454834,-0.03418625 c 0.9492187,0 1.9453125,0.01171875 2.90625,0.0351562453 V -0.514655 H 7.0540771 c -1.7109375,0 -1.7578125,-0.22265625 -1.7578125,-0.9375 z m 15.7675784,8.1093755 h 5.273437 c 0.28125,0 0.621094,0 0.621094,-0.3398438 0,-0.3632812 -0.316406,-0.3632812 -0.621094,-0.3632812 H 21.063843 V -10.59278 c 0,-0.28125 0,-0.621094 -0.339844,-0.621094 -0.363281,0 -0.363281,0.316406 -0.363281,0.621094 v 5.2734375 H 15.08728 c -0.28125,0 -0.621093,0 -0.621093,0.3398437 0,0.3632813 0.316406,0.3632813 0.621093,0.3632813 h 5.273438 V 0.65722 c 0,0.28125 0,0.6210937 0.339844,0.6210937 0.363281,0 0.363281,-0.3164062 0.363281,-0.6210937 z m 0,0"
         style="fill:#000000;fill-opacity:1;fill-rule:nonzero;stroke:none" />
      <path
         id="path78"
         d="m 37.516968,-8.6826238 c -2.554688,0.6210938 -4.382813,3.2695313 -4.382813,5.6015625 0,2.1210938 1.429688,3.3164063 3.023438,3.3164063 2.355469,0 3.949219,-3.2226563 3.949219,-5.8710938 0,-1.7929687 -0.832032,-2.8945312 -1.335938,-3.5507812 -0.738281,-0.9375 -1.933594,-2.460938 -1.933594,-3.421875 0,-0.339844 0.257813,-0.9375 1.136719,-0.9375 0.621094,0 0.996094,0.222656 1.59375,0.5625 0.175781,0.117187 0.632813,0.375 0.902344,0.375 0.410156,0 0.714844,-0.421875 0.714844,-0.738281 0,-0.375 -0.304688,-0.433594 -0.996094,-0.597657 -0.9375,-0.199218 -1.21875,-0.199218 -1.558594,-0.199218 -0.339844,0 -2.285156,0 -2.285156,2.027343 0,0.984375 0.492187,2.1210942 1.171875,3.4335942 z m 0.222656,0.375 c 0.75,1.5703125 1.054688,2.1679688 1.054688,3.46875 0,1.5585938 -0.84375,4.6757813 -2.613282,4.6757813 -0.773437,0 -1.886718,-0.515625 -1.886718,-2.3671875 0,-1.2890625 0.726562,-5.0625 3.445312,-5.7773438 z m 0,0"
         style="fill:#000000;fill-opacity:1;fill-rule:nonzero;stroke:none" />
    </g>
    <path
       id="path79"
       d="M 61.634188,55.8 H 410.60648"
       style="fill:none;stroke:#b0b0b0;stroke-width:0.8;stroke-linecap:butt;stroke-linejoin:round;stroke-miterlimit:10;stroke-dasharray:4, 4;stroke-dashoffset:0;stroke-opacity:0.5"
       transform="matrix(1.3333333,0,0,-1.3333333,0,480)"
       clip-path="url(#clipPath80)" />
    <path
       id="path81"
       d="m 61.634188,55.8 h -3.5"
       style="fill:#000000;fill-opacity:1;fill-rule:nonzero;stroke:#000000;stroke-width:0.8;stroke-linecap:butt;stroke-linejoin:round;stroke-miterlimit:10;stroke-dasharray:none;stroke-opacity:1"
       transform="matrix(1.3333333,0,0,-1.3333333,0,480)" />
    <g
       id="g81"
       aria-label="0.0"
       transform="matrix(1.3333333,0,0,1.3333333,46.254221,412.97973)">
      <path
         id="path82"
         d="m 7.1364827,-5.0970988 c 0,-1.3242188 -0.082031,-2.6132813 -0.6445313,-3.8320313 -0.65625,-1.3124999 -1.8046875,-1.6640629 -2.5898437,-1.6640629 -0.9257813,0 -2.0507813,0.457032 -2.6484375,1.7812504 -0.4453125,1.0078125 -0.59765625,1.9921875 -0.59765625,3.7148438 0,1.546875 0.10546875,2.7070312 0.67968745,3.84375 0.6210938,1.20703122 1.7226563,1.59374997 2.5546875,1.59374997 1.3828125,0 2.1796875,-0.83203125 2.6484375,-1.75781247 0.5742188,-1.1953125 0.5976563,-2.7539063 0.5976563,-3.6796875 z M 3.8903889,0.01227617 c -0.515625,0 -1.546875,-0.28125 -1.8515625,-2.01562497 -0.1757812,-0.9609375 -0.1757812,-2.1679688 -0.1757812,-3.2929688 0,-1.3007812 0,-2.484375 0.2578125,-3.421875 0.2695312,-1.0664062 1.078125,-1.5585934 1.7695312,-1.5585934 0.609375,0 1.5234375,0.3632809 1.828125,1.7343747 0.2109375,0.9140625 0.2109375,2.1679687 0.2109375,3.2460937 0,1.078125 0,2.2851563 -0.1757812,3.2578125 -0.3046875,1.75781252 -1.3125,2.05078127 -1.8632813,2.05078127 z m 0,0"
         style="fill:#000000;fill-opacity:1;fill-rule:nonzero;stroke:none" />
      <path
         id="path83"
         d="m 10.734139,-0.76116133 c 0,-0.46874997 -0.375,-0.78515627 -0.7617188,-0.78515627 -0.4570313,0 -0.7851563,0.3867188 -0.7851563,0.76171877 0,0.46875 0.3867188,0.785156249 0.7734375,0.785156249 0.4570316,0 0.7734376,-0.386718749 0.7734376,-0.761718749 z m 0,0"
         style="fill:#000000;fill-opacity:1;fill-rule:nonzero;stroke:none" />
      <path
         id="path84"
         d="m 19.277108,-5.0970988 c 0,-1.3242188 -0.08203,-2.6132813 -0.644532,-3.8320313 -0.65625,-1.3124999 -1.804687,-1.6640629 -2.589843,-1.6640629 -0.925782,0 -2.050782,0.457032 -2.648438,1.7812504 -0.445312,1.0078125 -0.597656,1.9921875 -0.597656,3.7148438 0,1.546875 0.105469,2.7070312 0.679687,3.84375 0.621094,1.20703122 1.722657,1.59374997 2.554688,1.59374997 1.382812,0 2.179687,-0.83203125 2.648437,-1.75781247 0.574219,-1.1953125 0.597657,-2.7539063 0.597657,-3.6796875 z m -3.246094,5.10937497 c -0.515625,0 -1.546875,-0.28125 -1.851563,-2.01562497 -0.175781,-0.9609375 -0.175781,-2.1679688 -0.175781,-3.2929688 0,-1.3007812 0,-2.484375 0.257813,-3.421875 0.269531,-1.0664062 1.078125,-1.5585934 1.769531,-1.5585934 0.609375,0 1.523437,0.3632809 1.828125,1.7343747 0.210937,0.9140625 0.210937,2.1679687 0.210937,3.2460937 0,1.078125 0,2.2851563 -0.175781,3.2578125 -0.304687,1.75781252 -1.3125,2.05078127 -1.863281,2.05078127 z m 0,0"
         style="fill:#000000;fill-opacity:1;fill-rule:nonzero;stroke:none" />
    </g>
    <path
       id="path85"
       d="M 61.634188,113.28 H 410.60648"
       style="fill:none;stroke:#b0b0b0;stroke-width:0.8;stroke-linecap:butt;stroke-linejoin:round;stroke-miterlimit:10;stroke-dasharray:4, 4;stroke-dashoffset:0;stroke-opacity:0.5"
       transform="matrix(1.3333333,0,0,-1.3333333,0,480)"
       clip-path="url(#clipPath86)" />
    <path
       id="path87"
       d="m 61.634188,113.28 h -3.5"
       style="fill:#000000;fill-opacity:1;fill-rule:nonzero;stroke:#000000;stroke-width:0.8;stroke-linecap:butt;stroke-linejoin:round;stroke-miterlimit:10;stroke-dasharray:none;stroke-opacity:1"
       transform="matrix(1.3333333,0,0,-1.3333333,0,480)" />
    <g
       id="g87"
       aria-label="0.2"
       transform="matrix(1.3333333,0,0,1.3333333,46.254221,336.33973)">
      <path
         id="path88"
         d="m 7.1364827,-5.0975676 c 0,-1.3242187 -0.082031,-2.6132812 -0.6445313,-3.8320312 -0.65625,-1.3125002 -1.8046875,-1.6640622 -2.5898437,-1.6640622 -0.9257813,0 -2.0507813,0.457031 -2.6484375,1.7812497 -0.4453125,1.0078125 -0.59765625,1.9921875 -0.59765625,3.7148437 0,1.546875 0.10546875,2.7070313 0.67968745,3.84375 0.6210938,1.20703127 1.7226563,1.59375002 2.5546875,1.59375002 1.3828125,0 2.1796875,-0.83203125 2.6484375,-1.75781252 0.5742188,-1.1953125 0.5976563,-2.7539062 0.5976563,-3.6796875 z M 3.8903889,0.01180742 c -0.515625,0 -1.546875,-0.28125 -1.8515625,-2.01562502 -0.1757812,-0.9609375 -0.1757812,-2.1679687 -0.1757812,-3.2929687 0,-1.3007813 0,-2.484375 0.2578125,-3.421875 0.2695312,-1.0664063 1.078125,-1.5585937 1.7695312,-1.5585937 0.609375,0 1.5234375,0.3632812 1.828125,1.7343749 0.2109375,0.9140625 0.2109375,2.1679688 0.2109375,3.2460938 0,1.078125 0,2.2851562 -0.1757812,3.2578125 -0.3046875,1.75781247 -1.3125,2.05078122 -1.8632813,2.05078122 z m 0,0"
         style="fill:#000000;fill-opacity:1;fill-rule:nonzero;stroke:none" />
      <path
         id="path89"
         d="m 10.734139,-0.76163008 c 0,-0.46875002 -0.375,-0.78515622 -0.7617188,-0.78515622 -0.4570313,0 -0.7851563,0.3867187 -0.7851563,0.76171872 0,0.46875 0.3867188,0.785156249 0.7734375,0.785156249 0.4570316,0 0.7734376,-0.386718749 0.7734376,-0.761718749 z m 0,0"
         style="fill:#000000;fill-opacity:1;fill-rule:nonzero;stroke:none" />
      <path
         id="path90"
         d="m 19.148201,-2.6717863 h -0.351562 c -0.04687,0.2695312 -0.164063,1.1367187 -0.328125,1.3945312 -0.117188,0.140625 -1.019531,0.140625 -1.5,0.140625 h -2.953125 c 0.433594,-0.3632812 1.40625,-1.3828125 1.828125,-1.7695312 2.414062,-2.2265625 3.304687,-3.0585938 3.304687,-4.6289063 0,-1.8398437 -1.441406,-3.0585934 -3.292968,-3.0585934 -1.851563,0 -2.929688,1.5703122 -2.929688,2.9414059 0,0.8203125 0.691406,0.8203125 0.75,0.8203125 0.328125,0 0.738281,-0.2460937 0.738281,-0.75 0,-0.4453125 -0.292968,-0.75 -0.738281,-0.75 -0.152344,0 -0.175781,0 -0.222656,0.011719 0.292969,-1.078125 1.160156,-1.8164064 2.191406,-1.8164064 1.359375,0 2.191406,1.1367189 2.191406,2.6015626 0,1.3476563 -0.785156,2.53125 -1.699218,3.5507813 l -3.210938,3.59765622 V 8.8669e-5 h 5.8125 z m 0,0"
         style="fill:#000000;fill-opacity:1;fill-rule:nonzero;stroke:none" />
    </g>
    <path
       id="path91"
       d="M 61.634188,170.76 H 410.60648"
       style="fill:none;stroke:#b0b0b0;stroke-width:0.8;stroke-linecap:butt;stroke-linejoin:round;stroke-miterlimit:10;stroke-dasharray:4, 4;stroke-dashoffset:0;stroke-opacity:0.5"
       transform="matrix(1.3333333,0,0,-1.3333333,0,480)"
       clip-path="url(#clipPath92)" />
    <path
       id="path93"
       d="m 61.634188,170.76 h -3.5"
       style="fill:#000000;fill-opacity:1;fill-rule:nonzero;stroke:#000000;stroke-width:0.8;stroke-linecap:butt;stroke-linejoin:round;stroke-miterlimit:10;stroke-dasharray:none;stroke-opacity:1"
       transform="matrix(1.3333333,0,0,-1.3333333,0,480)" />
    <g
       id="g93"
       aria-label="0.4"
       transform="matrix(1.3333333,0,0,1.3333333,46.254221,259.69973)">
      <path
         id="path94"
         d="m 7.1364827,-5.0980363 c 0,-1.3242188 -0.082031,-2.6132813 -0.6445313,-3.8320313 -0.65625,-1.3125004 -1.8046875,-1.6640624 -2.5898437,-1.6640624 -0.9257813,0 -2.0507813,0.457031 -2.6484375,1.7812499 -0.4453125,1.0078125 -0.59765625,1.9921875 -0.59765625,3.7148438 0,1.546875 0.10546875,2.7070312 0.67968745,3.84375 0.6210938,1.20703122 1.7226563,1.59374997 2.5546875,1.59374997 1.3828125,0 2.1796875,-0.83203125 2.6484375,-1.75781247 0.5742188,-1.1953125 0.5976563,-2.7539063 0.5976563,-3.6796875 z M 3.8903889,0.01133867 c -0.515625,0 -1.546875,-0.28125 -1.8515625,-2.01562497 -0.1757812,-0.9609375 -0.1757812,-2.1679688 -0.1757812,-3.2929688 0,-1.3007812 0,-2.484375 0.2578125,-3.421875 0.2695312,-1.0664062 1.078125,-1.5585939 1.7695312,-1.5585939 0.609375,0 1.5234375,0.3632814 1.828125,1.7343752 0.2109375,0.9140625 0.2109375,2.1679687 0.2109375,3.2460937 0,1.078125 0,2.2851563 -0.1757812,3.2578125 -0.3046875,1.75781252 -1.3125,2.05078127 -1.8632813,2.05078127 z m 0,0"
         style="fill:#000000;fill-opacity:1;fill-rule:nonzero;stroke:none" />
      <path
         id="path95"
         d="m 10.734139,-0.76209883 c 0,-0.46874997 -0.375,-0.78515627 -0.7617188,-0.78515627 -0.4570313,0 -0.7851563,0.3867188 -0.7851563,0.76171877 0,0.46875 0.3867188,0.785156249 0.7734375,0.785156249 0.4570316,0 0.7734376,-0.386718749 0.7734376,-0.761718749 z m 0,0"
         style="fill:#000000;fill-opacity:1;fill-rule:nonzero;stroke:none" />
      <path
         id="path96"
         d="m 17.894295,-10.371474 c 0,-0.304687 0,-0.386719 -0.222656,-0.386719 -0.128906,0 -0.175781,0 -0.304688,0.1875 l -4.792968,7.4414067 v 0.46875 h 4.183593 v 1.453125 c 0,0.58593747 -0.02344,0.74999997 -1.195312,0.74999997 h -0.316406 v 0.457031249 c 0.363281,-0.035156249 1.628906,-0.035156249 2.074218,-0.035156249 0.445313,0 1.722657,0 2.085938,0.035156249 V -0.45741133 h -0.316406 c -1.148438,0 -1.195313,-0.1640625 -1.195313,-0.74999997 v -1.453125 h 1.605469 v -0.46875 h -1.605469 z m -1.054687,1.2421877 v 6 H 12.97242 Z m 0,0"
         style="fill:#000000;fill-opacity:1;fill-rule:nonzero;stroke:none" />
    </g>
    <path
       id="path97"
       d="M 61.634188,228.24 H 410.60648"
       style="fill:none;stroke:#b0b0b0;stroke-width:0.8;stroke-linecap:butt;stroke-linejoin:round;stroke-miterlimit:10;stroke-dasharray:4, 4;stroke-dashoffset:0;stroke-opacity:0.5"
       transform="matrix(1.3333333,0,0,-1.3333333,0,480)"
       clip-path="url(#clipPath98)" />
    <path
       id="path99"
       d="m 61.634188,228.24 h -3.5"
       style="fill:#000000;fill-opacity:1;fill-rule:nonzero;stroke:#000000;stroke-width:0.8;stroke-linecap:butt;stroke-linejoin:round;stroke-miterlimit:10;stroke-dasharray:none;stroke-opacity:1"
       transform="matrix(1.3333333,0,0,-1.3333333,0,480)" />
    <g
       id="g99"
       aria-label="0.6"
       transform="matrix(1.3333333,0,0,1.3333333,46.254221,183.05973)">
      <path
         id="path100"
         d="m 7.1364827,-5.0985051 c 0,-1.3242187 -0.082031,-2.6132812 -0.6445313,-3.8320312 -0.65625,-1.3124997 -1.8046875,-1.6640627 -2.5898437,-1.6640627 -0.9257813,0 -2.0507813,0.457031 -2.6484375,1.7812502 -0.4453125,1.0078125 -0.59765625,1.9921875 -0.59765625,3.7148437 0,1.546875 0.10546875,2.7070313 0.67968745,3.84375 0.6210938,1.20703127 1.7226563,1.59375002 2.5546875,1.59375002 1.3828125,0 2.1796875,-0.83203125 2.6484375,-1.75781252 0.5742188,-1.1953125 0.5976563,-2.7539062 0.5976563,-3.6796875 z M 3.8903889,0.01086992 c -0.515625,0 -1.546875,-0.28125 -1.8515625,-2.01562502 -0.1757812,-0.9609375 -0.1757812,-2.1679687 -0.1757812,-3.2929687 0,-1.3007813 0,-2.484375 0.2578125,-3.421875 0.2695312,-1.0664063 1.078125,-1.5585942 1.7695312,-1.5585942 0.609375,0 1.5234375,0.3632817 1.828125,1.7343754 0.2109375,0.9140625 0.2109375,2.1679688 0.2109375,3.2460938 0,1.078125 0,2.2851562 -0.1757812,3.2578125 -0.3046875,1.75781247 -1.3125,2.05078122 -1.8632813,2.05078122 z m 0,0"
         style="fill:#000000;fill-opacity:1;fill-rule:nonzero;stroke:none" />
      <path
         id="path101"
         d="m 10.734139,-0.76256758 c 0,-0.46875002 -0.375,-0.78515622 -0.7617188,-0.78515622 -0.4570313,0 -0.7851563,0.3867187 -0.7851563,0.76171872 0,0.46875 0.3867188,0.785156249 0.7734375,0.785156249 0.4570316,0 0.7734376,-0.386718749 0.7734376,-0.761718749 z m 0,0"
         style="fill:#000000;fill-opacity:1;fill-rule:nonzero;stroke:none" />
      <path
         id="path102"
         d="m 14.09742,-5.5438176 c 0,-4.03125 1.96875,-4.6757814 2.824219,-4.6757814 0.574219,0 1.148437,0.175781 1.453125,0.6562502 -0.199219,0 -0.796875,0 -0.796875,0.65625 0,0.3515625 0.234375,0.65625 0.65625,0.65625 0.398437,0 0.667969,-0.2460938 0.667969,-0.703125 0,-0.8320313 -0.609375,-1.6406252 -1.992188,-1.6406252 -2.015625,0 -4.113281,2.0507814 -4.113281,5.5546877 0,4.38281247 1.910156,5.37890622 3.269531,5.37890622 1.734375,0 3.210938,-1.52343752 3.210938,-3.58593752 0,-2.1210937 -1.476563,-3.5390625 -3.070313,-3.5390625 -1.417969,0 -1.945312,1.21875 -2.109375,1.6640625 z m 1.96875,5.44921877 c -1.007812,0 -1.488281,-0.890625 -1.628906,-1.23046877 -0.140625,-0.4101562 -0.304688,-1.1953125 -0.304688,-2.3085937 0,-1.265625 0.574219,-2.8359375 2.003907,-2.8359375 0.878906,0 1.347656,0.5859375 1.582031,1.125 0.257812,0.5976562 0.257812,1.3945312 0.257812,2.0742187 0,0.8203125 0,1.5351563 -0.304687,2.1328125 -0.398438,0.77343752 -0.972656,1.04296877 -1.605469,1.04296877 z m 0,0"
         style="fill:#000000;fill-opacity:1;fill-rule:nonzero;stroke:none" />
    </g>
    <path
       id="path103"
       d="M 61.634188,285.72 H 410.60648"
       style="fill:none;stroke:#b0b0b0;stroke-width:0.8;stroke-linecap:butt;stroke-linejoin:round;stroke-miterlimit:10;stroke-dasharray:4, 4;stroke-dashoffset:0;stroke-opacity:0.5"
       transform="matrix(1.3333333,0,0,-1.3333333,0,480)"
       clip-path="url(#clipPath104)" />
    <path
       id="path105"
       d="m 61.634188,285.72 h -3.5"
       style="fill:#000000;fill-opacity:1;fill-rule:nonzero;stroke:#000000;stroke-width:0.8;stroke-linecap:butt;stroke-linejoin:round;stroke-miterlimit:10;stroke-dasharray:none;stroke-opacity:1"
       transform="matrix(1.3333333,0,0,-1.3333333,0,480)" />
    <g
       id="g105"
       aria-label="0.8"
       transform="matrix(1.3333333,0,0,1.3333333,46.254221,106.41973)">
      <path
         id="path106"
         d="m 7.1364827,-5.0989738 c 0,-1.3242188 -0.082031,-2.6132813 -0.6445313,-3.8320313 -0.65625,-1.3124999 -1.8046875,-1.6640629 -2.5898437,-1.6640629 -0.9257813,0 -2.0507813,0.457032 -2.6484375,1.7812504 -0.4453125,1.0078125 -0.59765625,1.9921875 -0.59765625,3.7148438 0,1.546875 0.10546875,2.7070312 0.67968745,3.84375 0.6210938,1.20703122 1.7226563,1.59374997 2.5546875,1.59374997 1.3828125,0 2.1796875,-0.83203125 2.6484375,-1.75781247 0.5742188,-1.1953125 0.5976563,-2.7539063 0.5976563,-3.6796875 z M 3.8903889,0.01040117 c -0.515625,0 -1.546875,-0.28125 -1.8515625,-2.01562497 -0.1757812,-0.9609375 -0.1757812,-2.1679688 -0.1757812,-3.2929688 0,-1.3007812 0,-2.484375 0.2578125,-3.421875 0.2695312,-1.0664062 1.078125,-1.5585934 1.7695312,-1.5585934 0.609375,0 1.5234375,0.3632809 1.828125,1.7343747 0.2109375,0.9140625 0.2109375,2.1679687 0.2109375,3.2460937 0,1.078125 0,2.2851563 -0.1757812,3.2578125 -0.3046875,1.75781252 -1.3125,2.05078127 -1.8632813,2.05078127 z m 0,0"
         style="fill:#000000;fill-opacity:1;fill-rule:nonzero;stroke:none" />
      <path
         id="path107"
         d="m 10.734139,-0.76303633 c 0,-0.46874997 -0.375,-0.78515627 -0.7617188,-0.78515627 -0.4570313,0 -0.7851563,0.3867188 -0.7851563,0.76171877 0,0.46875 0.3867188,0.78515625 0.7734375,0.78515625 0.4570316,0 0.7734376,-0.38671875 0.7734376,-0.76171875 z m 0,0"
         style="fill:#000000;fill-opacity:1;fill-rule:nonzero;stroke:none" />
      <path
         id="path108"
         d="m 16.886483,-5.7552238 c 0.796875,-0.4335938 1.96875,-1.1601563 1.96875,-2.4960938 0,-1.3945312 -1.347657,-2.3437504 -2.8125,-2.3437504 -1.570313,0 -2.824219,1.1601567 -2.824219,2.6132817 0,0.5390625 0.164062,1.078125 0.609375,1.6171875 0.175781,0.2109375 0.1875,0.2226562 1.3125,1.0078125 -1.546875,0.7148437 -2.34375,1.78125 -2.34375,2.953125 0,1.68749997 1.605469,2.74218747 3.234375,2.74218747 1.769531,0 3.246094,-1.3125 3.246094,-2.98828127 0,-1.6171875 -1.148438,-2.34375 -2.390625,-3.1054687 z m -2.167969,-1.4296875 c -0.199219,-0.1523438 -0.84375,-0.5625 -0.84375,-1.3476563 0,-1.03125 1.089844,-1.6875004 2.15625,-1.6875004 1.148437,0 2.167969,0.8320317 2.167969,1.9804692 0,0.9726562 -0.703125,1.7460937 -1.628907,2.2617187 z m 0.75,2.0507812 1.933594,1.265625 c 0.410156,0.2695313 1.148437,0.7617188 1.148437,1.734375 0,1.20703127 -1.230469,2.03906252 -2.507812,2.03906252 -1.347657,0 -2.519532,-0.98437502 -2.519532,-2.30859372 0,-1.2421875 0.914063,-2.25 1.945313,-2.7304688 z m 0,0"
         style="fill:#000000;fill-opacity:1;fill-rule:nonzero;stroke:none" />
    </g>
    <path
       id="path109"
       d="M 61.634188,343.2 H 410.60648"
       style="fill:none;stroke:#b0b0b0;stroke-width:0.8;stroke-linecap:butt;stroke-linejoin:round;stroke-miterlimit:10;stroke-dasharray:4, 4;stroke-dashoffset:0;stroke-opacity:0.5"
       transform="matrix(1.3333333,0,0,-1.3333333,0,480)"
       clip-path="url(#clipPath110)" />
    <path
       id="path111"
       d="m 61.634188,343.2 h -3.5"
       style="fill:#000000;fill-opacity:1;fill-rule:nonzero;stroke:#000000;stroke-width:0.8;stroke-linecap:butt;stroke-linejoin:round;stroke-miterlimit:10;stroke-dasharray:none;stroke-opacity:1"
       transform="matrix(1.3333333,0,0,-1.3333333,0,480)" />
    <g
       id="g111"
       aria-label="1.0"
       transform="matrix(1.3333333,0,0,1.3333333,46.254221,29.779726)">
      <path
         id="path112"
         d="m 4.5935139,-10.217607 c 0,-0.363281 0,-0.375 -0.328125,-0.375 -0.375,0.421875 -1.171875,1.0195316 -2.8125,1.0195316 v 0.4570313 c 0.3632813,0 1.1601563,0 2.0390625,-0.4101563 v 8.296875 c 0,0.57421876 -0.046875,0.77343751 -1.453125,0.77343751 H 1.5466389 v 0.45703125 c 0.4335938,-0.03515625 1.9804688,-0.03515625 2.4960938,-0.03515625 0.5273437,0 2.0625,0 2.4960937,0.03515625 V -0.45588789 H 6.0349202 c -1.3945313,0 -1.4414063,-0.19921875 -1.4414063,-0.77343751 z m 0,0"
         style="fill:#000000;fill-opacity:1;fill-rule:nonzero;stroke:none" />
      <path
         id="path113"
         d="m 10.734139,-0.76057539 c 0,-0.46875001 -0.375,-0.78515621 -0.7617188,-0.78515621 -0.4570313,0 -0.7851563,0.3867187 -0.7851563,0.76171871 0,0.46875 0.3867188,0.78515625 0.7734375,0.78515625 0.4570316,0 0.7734376,-0.38671875 0.7734376,-0.76171875 z m 0,0"
         style="fill:#000000;fill-opacity:1;fill-rule:nonzero;stroke:none" />
      <path
         id="path114"
         d="m 19.277108,-5.0965129 c 0,-1.3242187 -0.08203,-2.6132812 -0.644532,-3.8320312 -0.65625,-1.3124999 -1.804687,-1.6640629 -2.589843,-1.6640629 -0.925782,0 -2.050782,0.457032 -2.648438,1.7812504 -0.445312,1.0078125 -0.597656,1.9921875 -0.597656,3.7148437 0,1.546875 0.105469,2.7070313 0.679687,3.84375 0.621094,1.20703126 1.722657,1.59375001 2.554688,1.59375001 1.382812,0 2.179687,-0.83203125 2.648437,-1.75781251 0.574219,-1.1953125 0.597657,-2.7539062 0.597657,-3.6796875 z m -3.246094,5.10937501 c -0.515625,0 -1.546875,-0.28125 -1.851563,-2.01562501 -0.175781,-0.9609375 -0.175781,-2.1679687 -0.175781,-3.2929687 0,-1.3007813 0,-2.484375 0.257813,-3.421875 0.269531,-1.0664063 1.078125,-1.5585934 1.769531,-1.5585934 0.609375,0 1.523437,0.3632809 1.828125,1.7343746 0.210937,0.9140625 0.210937,2.1679688 0.210937,3.2460938 0,1.078125 0,2.2851562 -0.175781,3.2578125 -0.304687,1.75781246 -1.3125,2.05078121 -1.863281,2.05078121 z m 0,0"
         style="fill:#000000;fill-opacity:1;fill-rule:nonzero;stroke:none" />
    </g>
    <path
       id="path115"
       d="m 12.374809,-13.523874 c 0,-0.363281 -0.02344,-0.386718 -0.140625,-0.386718 -0.08203,0 -0.105469,0.02344 -0.246094,0.269531 l -0.867187,1.664062 c -0.984375,-1.230468 -2.1796877,-1.945312 -3.7148439,-1.945312 -3.3984375,0 -6.49218753,3 -6.49218753,7.1132811 0,4.1367188 3.09375003,7.12500004 6.51562503,7.12500004 3.0468754,0 4.9453124,-2.68359374 4.9453124,-4.98046874 0,-0.1992188 0,-0.28125 -0.1875,-0.28125 -0.152344,0 -0.152344,0.070312 -0.175781,0.2460937 -0.164063,2.7890625 -2.1562502,4.50000004 -4.3007814,4.50000004 -2.0390625,0 -5.2851563,-1.42968754 -5.2851563,-6.60937504 0,-5.2031251 3.3164063,-6.5976561 5.2382813,-6.5976561 2.2617187,0 3.8906254,1.957031 4.2656254,4.7226561 0.04687,0.234375 0.04687,0.28125 0.222656,0.28125 0.222656,0 0.222656,-0.046875 0.222656,-0.3984375 z m 1.945313,-0.08203 v 0.515625 c 1.382812,0 1.59375,0 1.59375,0.902344 v 10.7695311 c 0,0.90234379 -0.210938,0.90234379 -1.59375,0.90234379 v 0.5156250013 h 6.339843 c 3.210938,0 5.777344,-2.9531249913 5.777344,-6.6914062913 0,-3.7617186 -2.53125,-6.9140626 -5.777344,-6.9140626 z m 3.714843,13.08984389 c -0.796875,0 -0.84375,-0.10546875 -0.84375,-0.77343749 V -12.316842 c 0,-0.667969 0.04687,-0.773438 0.84375,-0.773438 h 2.226563 c 1.652344,0 4.699219,0.972656 4.699219,6.3984376 0,2.8125 -0.820313,3.9375 -1.195313,4.4765625 -0.480469,0.6210938 -1.617187,1.69921879 -3.503906,1.69921879 z M 38.197075,-13.570749 h -9.820313 v 0.527344 c 1.371094,0 1.59375,0 1.59375,0.890625 v 10.7343751 c 0,0.90234379 -0.222656,0.90234379 -1.59375,0.90234379 v 0.5156250013 c 0.574219,-0.0351562513 1.6875,-0.0351562513 2.308594,-0.0351562513 0.820312,0 1.769531,0 2.589844,0.0351562513 V -0.51606111 h -0.445313 c -1.511719,0 -1.546875,-0.19921875 -1.546875,-0.91406249 v -5.109375 h 1.792969 c 1.851562,0 2.027344,0.6679687 2.027344,2.3320312 h 0.363281 v -5.1796875 h -0.363281 c 0,1.6757813 -0.175782,2.3320313 -2.027344,2.3320313 h -1.792969 v -5.2148434 c 0,-0.679688 0.03516,-0.773438 0.832031,-0.773438 h 2.578125 c 3,0 3.339844,1.230469 3.621094,3.8789064 h 0.363281 z m 13.49414,18.4335941 c 0,-0.023437 0,-0.058594 -0.05859,-0.1171875 -0.914063,-0.9375 -3.363282,-3.4921875 -3.363282,-9.703125 0,-6.2226566 2.402344,-8.7539066 3.386719,-9.7499996 0,-0.01172 0.03516,-0.05859 0.03516,-0.117188 0,-0.05859 -0.05859,-0.09375 -0.140625,-0.09375 -0.210937,0 -1.910156,1.476563 -2.882812,3.667969 -0.996094,2.2031249 -1.277344,4.3593749 -1.277344,6.2695311 0,1.4296875 0.140625,3.8671875 1.335938,6.4335938 0.949218,2.0742187 2.589843,3.5273437 2.824218,3.5273437 0.105469,0 0.140625,-0.035156 0.140625,-0.1171875 z m 5.636719,0.09375 V 4.2651889 H 55.464653 V -14.226999 h 1.863281 v -0.691406 H 54.761528 V 4.9565951 Z m 8.651367,-11.3554687 c 0,-1.2070313 -0.02344,-3.28125 -0.855468,-4.8750004 -0.738282,-1.394531 -1.910157,-1.898437 -2.953125,-1.898437 -0.949219,0 -2.167969,0.445312 -2.929688,1.875 -0.796875,1.4999999 -0.867187,3.3515624 -0.867187,4.8984374 0,1.1367187 0.01172,2.8710937 0.632812,4.3828125 0.855469,2.05078124 2.390625,2.33203124 3.164063,2.33203124 0.914062,0 2.308593,-0.375 3.128906,-2.27343754 0.597656,-1.3710937 0.679687,-2.9882812 0.679687,-4.4414062 z m -3.808593,6.3984374913 c -1.277344,0 -2.027344,-1.0898437913 -2.308594,-2.6132812913 -0.222656,-1.171875 -0.222656,-2.8828125 -0.222656,-3.9960937 0,-1.5351563 0,-2.8125 0.257812,-4.0312499 0.386719,-1.6875 1.5,-2.203125 2.273438,-2.203125 0.820312,0 1.875,0.527344 2.25,2.167969 0.257812,1.1367184 0.28125,2.4726559 0.28125,4.0664059 0,1.2890625 0,2.8828125 -0.234375,4.0546875 -0.421875,2.17968749 -1.59375,2.5546874913 -2.296875,2.5546874913 z m 0,0"
       style="fill:#000000;fill-opacity:1;fill-rule:nonzero;stroke:none"
       aria-label="CDF&#10;([0"
       transform="matrix(0,-1.3333333,1.3333333,0,34.301363,338.89428)" />
    <path
       id="path116"
       d="m 3.667087,-0.96137361 c 0,-0.57421879 -0.4804687,-0.97265629 -0.9609375,-0.97265629 -0.5742187,0 -0.9726562,0.4804688 -0.9726562,0.96093754 0,0.57421875 0.4804687,0.9726562513 0.9492187,0.9726562513 0.5859375,0 0.984375,-0.4804687513 0.984375,-0.9609375013 z m 0,0"
       style="fill:#000000;fill-opacity:1;fill-rule:nonzero;stroke:none"
       aria-label="."
       transform="matrix(0,-1.3333333,1.3333333,0,34.301363,249.83867)" />
    <path
       id="path117"
       d="m 2.2730423,-11.648874 c 0.1992187,0.07031 1.0078125,0.328125 1.8515625,0.328125 1.8515625,0 2.8710937,-0.996093 3.4453125,-1.570312 0,-0.152344 0,-0.257813 -0.1171875,-0.257813 -0.023437,0 -0.058594,0 -0.2226563,0.08203 -0.6914062,0.292968 -1.5117187,0.539062 -2.5078125,0.539062 -0.5976562,0 -1.5,-0.08203 -2.4726562,-0.515625 -0.2226563,-0.105469 -0.2578125,-0.105469 -0.28125,-0.105469 -0.09375,0 -0.1171875,0.02344 -0.1171875,0.421875 v 5.7773441 c 0,0.3515625 0,0.4570313 0.1992187,0.4570313 0.1054688,0 0.140625,-0.046875 0.234375,-0.1757813 0.6445313,-0.9023437 1.5234375,-1.2773437 2.5195313,-1.2773437 0.6914062,0 2.1914062,0.4335937 2.1914062,3.84375 0,0.6328125 0,1.7929687 -0.5976562,2.7070312 -0.5039063,0.82031254 -1.2773438,1.23046879 -2.1328125,1.23046879 -1.3125,0 -2.6484375,-0.91406249 -3.0117188,-2.44921879 0.082031,0.023437 0.234375,0.058594 0.3164063,0.058594 0.2578125,0 0.7617187,-0.1289063 0.7617187,-0.75 0,-0.5390625 -0.375,-0.7617188 -0.7617187,-0.7617188 -0.4570313,0 -0.75000005,0.28125 -0.75000005,0.84375 0,1.734375 1.37109375,3.53906254 3.48046875,3.53906254 2.0507813,0 4.0078125,-1.76953124 4.0078125,-4.33593754 0,-2.390625 -1.5585937,-4.2421875 -3.4921875,-4.2421875 -1.0078125,0 -1.8632812,0.375 -2.5429687,1.0898438 z m 0,0"
       style="fill:#000000;fill-opacity:1;fill-rule:nonzero;stroke:none"
       aria-label="5"
       transform="matrix(0,-1.3333333,1.3333333,0,34.301363,242.61275)" />
    <path
       id="path118"
       d="m 13.126099,-4.5824674 c 0.339844,0 0.703125,0 0.703125,-0.3984375 0,-0.3984375 -0.363281,-0.3984375 -0.703125,-0.3984375 H 2.3565681 c -0.3398437,0 -0.703125,0 -0.703125,0.3984375 0,0.3984375 0.3632813,0.3984375 0.703125,0.3984375 z m 0,0"
       style="fill:#000000;fill-opacity:1;fill-rule:nonzero;stroke:none"
       aria-label="−"
       transform="matrix(0,-1.3333333,1.3333333,0,34.301363,224.5249)" />
    <path
       id="path119"
       d="m 5.2974989,-12.726999 c 0,-0.421875 -0.023437,-0.445312 -0.2929688,-0.445312 -0.7851562,0.9375 -1.9570312,1.242187 -3.0703125,1.277344 -0.058594,0 -0.1640625,0 -0.1757812,0.04687 -0.023437,0.03516 -0.023437,0.07031 -0.023437,0.492187 0.6210937,0 1.6523437,-0.117187 2.4492187,-0.597656 v 10.4999999 c 0,0.69140624 -0.035156,0.93749999 -1.7578125,0.93749999 H 1.8287489 V -4.361087e-4 C 2.7896864,-0.02387361 3.7857801,-0.03559236 4.7467176,-0.03559236 c 0.9492188,0 1.9453125,0.01171875 2.90625,0.0351562513 V -0.51606111 H 7.0553114 c -1.7109375,0 -1.7578125,-0.22265625 -1.7578125,-0.93749999 z m 0,0"
       style="fill:#000000;fill-opacity:1;fill-rule:nonzero;stroke:none"
       aria-label="1"
       transform="matrix(0,-1.3333333,1.3333333,0,34.301363,197.95786)" />
    <path
       id="path120"
       d="m 3.6681925,-0.96137361 c 0,-0.57421879 -0.4804687,-0.97265629 -0.9609375,-0.97265629 -0.5742187,0 -0.9726562,0.4804688 -0.9726562,0.96093754 0,0.57421875 0.4804687,0.9726562513 0.9492187,0.9726562513 0.5859375,0 0.984375,-0.4804687513 0.984375,-0.9609375013 z m 0,0"
       style="fill:#000000;fill-opacity:1;fill-rule:nonzero;stroke:none"
       aria-label="."
       transform="matrix(0,-1.3333333,1.3333333,0,34.301363,185.77374)" />
    <path
       id="path121"
       d="m 2.2741477,-11.648874 c 0.1992188,0.07031 1.0078125,0.328125 1.8515625,0.328125 1.8515625,0 2.8710938,-0.996093 3.4453125,-1.570312 0,-0.152344 0,-0.257813 -0.1171875,-0.257813 -0.023437,0 -0.058594,0 -0.2226562,0.08203 -0.6914063,0.292968 -1.5117188,0.539062 -2.5078125,0.539062 -0.5976563,0 -1.5,-0.08203 -2.4726563,-0.515625 -0.2226562,-0.105469 -0.2578125,-0.105469 -0.28125,-0.105469 -0.09375,0 -0.1171875,0.02344 -0.1171875,0.421875 v 5.7773441 c 0,0.3515625 0,0.4570313 0.1992188,0.4570313 0.1054687,0 0.140625,-0.046875 0.234375,-0.1757813 0.6445312,-0.9023437 1.5234375,-1.2773437 2.5195312,-1.2773437 0.6914063,0 2.1914063,0.4335937 2.1914063,3.84375 0,0.6328125 0,1.7929687 -0.5976563,2.7070312 -0.5039062,0.82031254 -1.2773437,1.23046879 -2.1328125,1.23046879 -1.3125,0 -2.6484375,-0.91406249 -3.0117187,-2.44921879 0.082031,0.023437 0.234375,0.058594 0.3164062,0.058594 0.2578125,0 0.7617188,-0.1289063 0.7617188,-0.75 0,-0.5390625 -0.375,-0.7617188 -0.7617188,-0.7617188 -0.4570312,0 -0.74999997,0.28125 -0.74999997,0.84375 0,1.734375 1.37109377,3.53906254 3.48046877,3.53906254 2.0507812,0 4.0078125,-1.76953124 4.0078125,-4.33593754 0,-2.390625 -1.5585938,-4.2421875 -3.4921875,-4.2421875 -1.0078125,0 -1.8632813,0.375 -2.5429688,1.0898438 z m 9.7001953,-3.269531 H 9.4079368 v 0.691406 H 11.282937 V 4.2651889 H 9.4079368 V 4.9565951 H 11.974343 Z M 18.46946,3.3628451 c -1.277344,0 -1.359375,-0.082031 -1.359375,-0.8554687 v -3.7265625 c 0.585938,0.84374999 1.417969,1.38281249 2.472656,1.38281249 1.992188,0 4.007813,-1.75781249 4.007813,-4.46484379 0,-2.5078125 -1.734375,-4.4296875 -3.785156,-4.4296875 -1.195313,0 -2.167969,0.6679688 -2.730469,1.4648438 v -1.4648438 l -2.367188,0.2226563 v 0.515625 c 1.171875,0 1.347657,0.1289062 1.347657,1.078125 v 9.421875 c 0,0.7617187 -0.08203,0.8554687 -1.347657,0.8554687 v 0.515625 c 0.46875,-0.035156 1.347657,-0.035156 1.863282,-0.035156 0.527343,0 1.417968,0 1.898437,0.035156 z m -1.359375,-9.6210937 c 0,-0.28125 0,-0.6914063 0.785156,-1.4296875 0.09375,-0.082031 0.773438,-0.6796875 1.769532,-0.6796875 1.453125,0 2.648437,1.8164062 2.648437,4.0898437 0,2.2617188 -1.277344,4.11328129 -2.847656,4.11328129 -0.714844,0 -1.5,-0.328125 -2.097656,-1.26562499 -0.257813,-0.4453125 -0.257813,-0.5625 -0.257813,-0.8789063 z M 28.40989,-13.289499 c -0.117188,-0.292968 -0.140625,-0.316406 -0.550781,-0.316406 h -2.554688 v 0.515625 c 1.371094,0 1.59375,0 1.59375,0.902344 v 10.2304686 c 0,0.5039063 0,1.44140629 -1.59375,1.44140629 V -4.361087e-4 C 25.761452,-0.03559236 26.605202,-0.03559236 27.09739,-0.03559236 c 0.503906,0 1.335937,0 1.792969,0.0351562513 V -0.51606111 c -1.59375,0 -1.59375,-0.93749999 -1.59375,-1.44140629 V -13.008249 h 0.02344 l 4.675781,12.69140664 c 0.08203,0.19921875 0.117188,0.3164062513 0.28125,0.3164062513 0.164063,0 0.199219,-0.1171875013 0.28125,-0.3164062513 L 37.280984,-13.113717 h 0.01172 v 11.6953121 c 0,0.90234379 -0.210937,0.90234379 -1.59375,0.90234379 V -4.361087e-4 C 36.238015,-0.03559236 37.31614,-0.03559236 37.890359,-0.03559236 c 0.585937,0 1.675781,0 2.214843,0.0351562513 V -0.51606111 c -1.371093,0 -1.59375,0 -1.59375,-0.90234379 V -12.187936 c 0,-0.902344 0.222657,-0.902344 1.59375,-0.902344 v -0.515625 h -2.53125 c -0.410156,0 -0.433593,0.02344 -0.550781,0.316406 l -4.3125,11.6718754 z M 45.56907,3.3628451 c -1.277344,0 -1.359375,-0.082031 -1.359375,-0.8554687 v -3.7265625 c 0.585937,0.84374999 1.417968,1.38281249 2.472656,1.38281249 1.992187,0 4.007812,-1.75781249 4.007812,-4.46484379 0,-2.5078125 -1.734375,-4.4296875 -3.785156,-4.4296875 -1.195312,0 -2.167969,0.6679688 -2.730469,1.4648438 v -1.4648438 l -2.367187,0.2226563 v 0.515625 c 1.171875,0 1.347656,0.1289062 1.347656,1.078125 v 9.421875 c 0,0.7617187 -0.08203,0.8554687 -1.347656,0.8554687 v 0.515625 c 0.46875,-0.035156 1.347656,-0.035156 1.863281,-0.035156 0.527344,0 1.417969,0 1.898438,0.035156 z m -1.359375,-9.6210937 c 0,-0.28125 0,-0.6914063 0.785156,-1.4296875 0.09375,-0.082031 0.773437,-0.6796875 1.769531,-0.6796875 1.453125,0 2.648438,1.8164062 2.648438,4.0898437 0,2.2617188 -1.277344,4.11328129 -2.847657,4.11328129 -0.714843,0 -1.5,-0.328125 -2.097656,-1.26562499 -0.257812,-0.4453125 -0.257812,-0.5625 -0.257812,-0.8789063 z m 14.607421,-0.7148438 c -0.375,0 -0.9375,0 -0.9375,0.703125 0,0.5507813 0.457032,0.7148438 0.726563,0.7148438 0.128906,0 0.714844,-0.058594 0.714844,-0.7617188 0,-1.4179687 -1.359375,-2.484375 -2.894532,-2.484375 -2.109375,0 -3.902343,1.9453125 -3.902343,4.5 0,2.6484375 1.875,4.46484379 3.902343,4.46484379 2.472657,0 3.09375,-2.29687499 3.09375,-2.51953129 0,-0.070312 -0.02344,-0.1289062 -0.164062,-0.1289062 -0.140625,0 -0.152344,0.011719 -0.234375,0.2695312 -0.515625,1.61718754 -1.652344,2.01562504 -2.507813,2.01562504 -1.277343,0 -2.8125,-1.17187504 -2.8125,-4.12500004 0,-3.0234375 1.476563,-4.125 2.648438,-4.125 0.773437,0 1.933594,0.3867188 2.367187,1.4765625 z m 6.37793,2.015625 c 0,-1.4414062 -0.140625,-3.8671875 -1.335937,-6.4335936 -0.949219,-2.074219 -2.589844,-3.527344 -2.824219,-3.527344 -0.05859,0 -0.140625,0.01172 -0.140625,0.117188 0,0.03516 0.02344,0.05859 0.03516,0.09375 0.960938,0.996093 3.386719,3.527343 3.386719,9.7265621 0,6.2109375 -2.402344,8.7421875 -3.386719,9.7382813 -0.01172,0.046875 -0.03516,0.058594 -0.03516,0.1054687 0,0.09375 0.08203,0.1171875 0.140625,0.1171875 0.210937,0 1.910156,-1.4765625 2.882812,-3.6679687 0.996094,-2.20312501 1.277344,-4.359375 1.277344,-6.2695313 z m 0,0"
       style="fill:#000000;fill-opacity:1;fill-rule:nonzero;stroke:none"
       aria-label="5]pMp&#10;c)"
       transform="matrix(0,-1.3333333,1.3333333,0,34.301363,178.54782)" />
    <path
       id="path122"
       d="m -1,108.35187 2.098179,0.0423 7.121883,0.1437 7.121883,0.2874 7.121884,0.1437 h 7.121883 l 7.121884,0.2874 7.121883,0.2874 7.121884,0.2874 7.121883,0.2874 7.121884,0.2874 7.121883,0.2874 7.121884,0.5748 7.121883,0.2874 7.121884,0.5748 7.121886,0.5748 7.12188,0.5748 7.12188,0.8622 7.12189,0.8622 7.12188,0.8622 7.12188,1.437 7.12189,1.1496 7.12188,1.7244 7.12188,2.0118 7.12189,2.4429 7.12188,3.0177 7.12188,3.7362 7.12189,4.4547 7.12188,5.0295 7.12189,6.6102 7.12188,6.8976 7.12188,8.3346 7.12189,9.1968 7.12188,10.059 7.12188,11.496 7.12189,12.3582 7.12188,13.7952 7.12188,12.933 7.12189,12.6456 7.12188,12.3582 7.12188,12.2145 7.12189,10.4901 7.12188,10.3464 7.12188,8.9094 7.12189,8.0472 7.12188,7.185 7.12188,5.4606 7.12189,4.5984 7.12188,3.7362 7.12188,3.7362 7.12189,2.874 7.12188,2.0118 7.12189,0.8622 7.12188,0.5748 h 7.12188 7.12189 7.12188 l 7.12188,1.437 7.12189,0.2874 h 7.12188 7.12188 7.12189 H 433"
       style="fill:none;stroke:#1f77b4;stroke-width:2;stroke-linecap:square;stroke-linejoin:round;stroke-miterlimit:10;stroke-dasharray:none;stroke-opacity:0.9"
       transform="matrix(1.3333333,0,0,-1.3333333,0,480)"
       clip-path="url(#clipPath123)" />
    <path
       id="path124"
       d="m -1,105.10093 2.098179,0.0248 7.121883,0.0632 7.121883,0.10536 7.121884,0.0421 7.121883,0.0843 7.121884,0.10535 7.121883,0.12642 7.121884,0.18964 7.121883,0.18963 7.121884,0.25284 7.121883,0.42141 7.121884,0.31606 7.121883,0.16856 7.121884,0.27392 7.121886,0.50568 7.12188,1.07459 7.12188,0.73747 7.12189,1.15887 7.12188,1.20101 7.12188,1.39064 7.12189,1.68563 7.12188,2.17025 7.12188,2.76022 7.12189,3.51876 7.12188,4.31943 7.12188,6.17362 7.12189,5.77328 7.12188,8.51244 7.12189,9.37632 7.12188,11.46228 7.12188,12.26296 7.12189,13.69575 7.12188,14.03288 7.12188,13.2322 7.12189,13.40076 7.12188,13.2322 7.12188,12.43152 7.12189,10.9566 7.12188,10.91446 7.12188,9.33418 7.12189,8.72314 7.12188,6.74252 7.12188,6.59503 7.12189,5.26759 7.12188,4.29836 7.12188,3.89802 7.12189,3.22377 7.12188,2.35988 7.12188,1.95955 7.12189,1.24315 7.12188,1.09566 7.12189,0.67425 7.12188,0.61104 7.12188,0.42141 7.12189,0.27392 7.12188,0.14749 7.12188,0.10535 7.12189,0.0843 7.12188,0.0421 7.12188,0.0421 h 7.12189 L 433,340.61435"
       style="fill:none;stroke:#ff7f0e;stroke-width:2;stroke-linecap:square;stroke-linejoin:round;stroke-miterlimit:10;stroke-dasharray:none;stroke-opacity:0.8"
       transform="matrix(1.3333333,0,0,-1.3333333,0,480)"
       clip-path="url(#clipPath125)" />
    <path
       id="path126"
       d="M 61.634188,55.8 V 343.2"
       style="fill:none;stroke:#000000;stroke-width:0.8;stroke-linecap:square;stroke-linejoin:miter;stroke-miterlimit:10;stroke-dasharray:none;stroke-opacity:1"
       transform="matrix(1.3333333,0,0,-1.3333333,0,480)" />
    <path
       id="path127"
       d="M 410.60648,55.8 V 343.2"
       style="fill:none;stroke:#000000;stroke-width:0.8;stroke-linecap:square;stroke-linejoin:miter;stroke-miterlimit:10;stroke-dasharray:none;stroke-opacity:1"
       transform="matrix(1.3333333,0,0,-1.3333333,0,480)" />
    <path
       id="path128"
       d="M 61.634188,55.8 H 410.60648"
       style="fill:none;stroke:#000000;stroke-width:0.8;stroke-linecap:square;stroke-linejoin:miter;stroke-miterlimit:10;stroke-dasharray:none;stroke-opacity:1"
       transform="matrix(1.3333333,0,0,-1.3333333,0,480)" />
    <path
       id="path129"
       d="M 61.634188,343.2 H 410.60648"
       style="fill:none;stroke:#000000;stroke-width:0.8;stroke-linecap:square;stroke-linejoin:miter;stroke-miterlimit:10;stroke-dasharray:none;stroke-opacity:1"
       transform="matrix(1.3333333,0,0,-1.3333333,0,480)" />
    <path
       id="path130"
       d="m 253.91281,61.8 h 148.29367 c 1.6,0 2.4,0.8 2.4,2.4 v 33.479764 c 0,1.6 -0.8,2.399996 -2.4,2.399996 H 253.91281 c -1.6,0 -2.4,-0.799996 -2.4,-2.399996 V 64.2 c 0,-1.6 0.8,-2.4 2.4,-2.4 z"
       style="fill:#ffffff;fill-opacity:0.8;fill-rule:nonzero;stroke:#cccccc;stroke-width:1;stroke-linecap:butt;stroke-linejoin:miter;stroke-miterlimit:10;stroke-dasharray:none;stroke-opacity:0.8"
       transform="matrix(1.3333333,0,0,-1.3333333,0,480)" />
    <path
       id="path131"
       d="m 256.31281,91.079764 h 24"
       style="fill:none;stroke:#1f77b4;stroke-width:2;stroke-linecap:square;stroke-linejoin:round;stroke-miterlimit:10;stroke-dasharray:none;stroke-opacity:0.9"
       transform="matrix(1.3333333,0,0,-1.3333333,0,480)" />
    <g
       id="g131"
       aria-label="XQR−30"
       transform="matrix(1.3333333,0,0,1.3333333,386.55041,364.16031)">
      <path
         id="path132"
         d="m 4.6760585,-4.5938689 1.6523437,-2.4023438 c 0.1992188,-0.28125 0.5507813,-0.8085937 1.6757813,-0.8203125 v -0.3515625 c -0.5039063,0.023437 -0.6445313,0.023437 -1.2539063,0.023437 -0.3164062,0 -1.0898437,0 -1.359375,-0.023437 v 0.3515625 c 0.4921875,0.035156 0.6445313,0.3164063 0.6445313,0.5273438 0,0.1289062 -0.046875,0.1992187 -0.1171875,0.3046875 l -1.4296875,2.109375 -1.6171875,-2.390625 c -0.035156,-0.046875 -0.082031,-0.1289063 -0.082031,-0.1875 0,-0.1757813 0.2460938,-0.3632813 0.6796875,-0.3632813 v -0.3515625 c -0.2929687,0.023437 -1.2304687,0.023437 -1.5820312,0.023437 -0.328125,0 -1.17187503,0 -1.45312503,-0.023437 v 0.3515625 c 0.89062503,0 1.00781253,0.058594 1.26562503,0.4453125 l 2.2382812,3.3046875 -2.015625,2.9296875 C 1.7229338,-0.83215019 1.336215,-0.36340019 0.25809002,-0.35168144 V -1.189387e-4 C 0.77371502,-0.02355644 0.91434002,-0.02355644 1.523715,-0.02355644 c 0.3164063,0 1.0898438,0 1.3710938,0.0234375013 V -0.35168144 c -0.5039063,-0.0234375 -0.65625,-0.31640625 -0.65625,-0.515625 0,-0.14062496 0.058594,-0.22265626 0.1289062,-0.32812496 l 1.7578125,-2.5664063 1.9335938,2.89453126 c 0.070312,0.10546875 0.082031,0.1171875 0.082031,0.1640625 0,0.140625 -0.2109375,0.33984375 -0.6796875,0.3515625 V -1.189387e-4 C 5.7541835,-0.02355644 6.6799647,-0.02355644 7.0315272,-0.02355644 c 0.328125,0 1.1835938,0 1.4648438,0.0234375013 V -0.35168144 c -0.703125,0 -0.984375,0 -1.265625,-0.41015625 z m 9.7968745,4.52343746 c 1.289063,-0.5625 2.425782,-2.06249996 2.425782,-3.98437496 0,-2.4726563 -1.816407,-4.359375 -3.890625,-4.359375 -2.132813,0 -3.9140628,1.9101562 -3.9140628,4.359375 0,2.4023437 1.7695308,4.30078121 3.9140628,4.30078121 0.386718,0 0.796875,-0.0703125 1.125,-0.17578125 0.1875,1.21875004 0.339843,2.25000004 1.417968,2.25000004 1.394532,0 1.40625,-2.09765629 1.40625,-2.20312504 0,-0.1171874987 0,-0.22265625 -0.117187,-0.22265625 -0.09375,0 -0.09375,0.08203125 -0.105469,0.1640625 -0.08203,0.8671875 -0.667969,1.14843749 -1.089844,1.14843749 -0.609375,0 -0.878906,-0.44531249 -1.171875,-1.27734374 z m -2.214843,-0.0703125 c -0.878907,-0.31640625 -2.074219,-1.33593746 -2.074219,-3.92578126 0,-2.9765625 1.617187,-4.0898437 2.8125,-4.0898437 1.253906,0 2.8125,1.1484375 2.8125,4.0898437 0,1.7109375 -0.527344,2.9414063 -1.476563,3.60937501 -0.199218,-0.59765621 -0.539062,-1.30078121 -1.3125,-1.30078121 -0.597656,0 -0.949218,0.515625 -0.949218,1.00781246 0,0.31640625 0.164062,0.57421875 0.1875,0.609375 z m 1.804687,-0.140625 c -0.351562,0.1875 -0.738281,0.26953125 -1.054687,0.26953125 -0.515625,0 -0.703125,-0.46875 -0.703125,-0.75 0,-0.35156251 0.257812,-0.76171871 0.714843,-0.76171871 0.679688,0 0.914063,0.56249996 1.042969,1.24218746 z m 8.525391,-3.78515626 c 1.183594,-0.2695312 2.109375,-1.03125 2.109375,-1.9453125 0,-1.1601562 -1.347656,-2.15625 -3.070313,-2.15625 h -3.574218 v 0.3515625 h 0.234375 c 0.867187,0 0.902343,0.1171875 0.902343,0.5625 v 6.33984376 c 0,0.4453125 -0.03516,0.5625 -0.902343,0.5625 H 18.053012 V -1.189387e-4 C 18.322543,-0.02355644 19.306918,-0.02355644 19.65848,-0.02355644 c 0.339844,0 1.335938,0 1.605469,0.0234375013 V -0.35168144 h -0.234375 c -0.867187,0 -0.902344,-0.1171875 -0.902344,-0.5625 V -3.9727752 h 1.394532 c 0.457031,0 0.902343,0.140625 1.230468,0.46875 0.398438,0.4570313 0.398438,0.703125 0.398438,1.5351563 0,0.9375 0,1.25390621 0.527344,1.76953121 0.1875,0.17578125 0.679687,0.4453125 1.359375,0.4453125 0.925781,0 1.078125,-1.03125 1.078125,-1.28906251 0,-0.070312 0,-0.1757812 -0.128907,-0.1757812 -0.117187,0 -0.117187,0.070312 -0.128906,0.1875 -0.05859,0.71484371 -0.410156,1.04296871 -0.785156,1.04296871 -0.550781,0 -0.679688,-0.5625 -0.773438,-1.19531251 -0.01172,-0.082031 -0.08203,-0.5976562 -0.117187,-0.890625 -0.08203,-0.5976562 -0.128906,-0.984375 -0.492188,-1.359375 -0.128906,-0.1289062 -0.433593,-0.4570312 -1.101562,-0.6328125 z m -1.113281,-0.140625 H 20.12723 v -3.1289062 c 0,-0.28125 0,-0.421875 0.257813,-0.46875 0.105469,-0.011719 0.46875,-0.011719 0.703125,-0.011719 0.972656,0 2.496094,0 2.496094,1.8046875 0,1.0429688 -0.5625,1.8046875 -2.109375,1.8046877 z m 0,0"
         style="fill:#000000;fill-opacity:1;fill-rule:nonzero;stroke:none" />
      <path
         id="path133"
         d="m 36.700473,-2.7540252 c 0.210937,0 0.421875,0 0.421875,-0.234375 0,-0.234375 -0.210938,-0.234375 -0.421875,-0.234375 h -6.46875 c -0.199219,0 -0.410157,0 -0.410157,0.234375 0,0.234375 0.210938,0.234375 0.410157,0.234375 z m 0,0"
         style="fill:#000000;fill-opacity:1;fill-rule:nonzero;stroke:none" />
      <path
         id="path134"
         d="m 42.984652,-4.2891814 c -0.210937,0.011719 -0.257812,0.023437 -0.257812,0.1289062 0,0.1171875 0.05859,0.1171875 0.28125,0.1171875 h 0.550781 c 1.007812,0 1.464844,0.84375 1.464844,1.9921875 0,1.55859376 -0.808594,1.98046876 -1.394532,1.98046876 -0.574218,0 -1.558593,-0.28125 -1.898437,-1.06640626 0.375,0.058594 0.726562,-0.1523437 0.726562,-0.5859375 0,-0.3398437 -0.257812,-0.5859375 -0.585937,-0.5859375 -0.292969,0 -0.597656,0.1640625 -0.597656,0.6210938 0,1.06640621 1.066406,1.93359371 2.390625,1.93359371 1.417968,0 2.472656,-1.078125 2.472656,-2.28515621 0,-1.1015625 -0.890625,-1.96875 -2.027344,-2.1679688 1.03125,-0.3046875 1.699219,-1.171875 1.699219,-2.109375 0,-0.9375 -0.972656,-1.6289062 -2.132813,-1.6289062 -1.195312,0 -2.085937,0.7265625 -2.085937,1.59375 0,0.4804687 0.375,0.5742187 0.550781,0.5742187 0.257813,0 0.539063,-0.1757812 0.539063,-0.5390625 0,-0.375 -0.28125,-0.5390625 -0.550782,-0.5390625 -0.07031,0 -0.09375,0 -0.128906,0.011719 0.457031,-0.8203125 1.582031,-0.8203125 1.640625,-0.8203125 0.386719,0 1.171875,0.1757812 1.171875,1.3476562 0,0.234375 -0.03516,0.9023438 -0.386719,1.4179688 -0.351562,0.5273437 -0.761718,0.5625 -1.089843,0.5742187 z m 8.997071,0.46875 c 0,-0.9960938 -0.05859,-1.96875 -0.492188,-2.8710938 -0.492187,-0.9960937 -1.347656,-1.2539062 -1.933594,-1.2539062 -0.691406,0 -1.546875,0.3398437 -1.980468,1.3359375 -0.339844,0.75 -0.457032,1.4882812 -0.457032,2.7890625 0,1.1601562 0.08203,2.0273437 0.515625,2.87109371 0.457032,0.9140625 1.289063,1.1953125 1.910157,1.1953125 1.042968,0 1.640625,-0.62109375 1.980468,-1.31250001 0.433594,-0.890625 0.457032,-2.0625 0.457032,-2.7539062 z m -2.4375,3.83203121 c -0.386719,0 -1.160157,-0.2109375 -1.382813,-1.52343751 -0.140625,-0.7148437 -0.140625,-1.6171875 -0.140625,-2.4609375 0,-0.9726562 0,-1.8632812 0.199219,-2.5664062 0.199219,-0.796875 0.808594,-1.171875 1.324219,-1.171875 0.457031,0 1.148437,0.28125 1.371093,1.3007812 0.152344,0.6796875 0.152344,1.6289063 0.152344,2.4375 0,0.8085938 0,1.7109375 -0.128906,2.4375 -0.222656,1.32421876 -0.972656,1.54687501 -1.394531,1.54687501 z m 0,0"
         style="fill:#000000;fill-opacity:1;fill-rule:nonzero;stroke:none" />
    </g>
    <path
       id="path135"
       d="m 256.31281,73.788792 h 24"
       style="fill:none;stroke:#ff7f0e;stroke-width:2;stroke-linecap:square;stroke-linejoin:round;stroke-miterlimit:10;stroke-dasharray:none;stroke-opacity:0.8"
       transform="matrix(1.3333333,0,0,-1.3333333,0,480)" />
    <path
       id="path136"
       d="m 7.793246,-8.1446064 c 0,-0.2109375 0,-0.2695313 -0.1171875,-0.2695313 -0.070312,0 -0.082031,0.023437 -0.1523438,0.140625 l -0.5859375,0.9492188 c -0.5390625,-0.6679688 -1.359375,-1.0898438 -2.2148437,-1.0898438 -2.1914063,0 -4.07812503,1.8867188 -4.07812503,4.3242188 0,2.4726562 1.91015623,4.33593749 4.07812503,4.33593749 1.9570312,0 3.0703125,-1.69921879 3.0703125,-3.02343749 0,-0.1289063 0,-0.1992188 -0.1289063,-0.1992188 -0.1171875,0 -0.1289062,0.058594 -0.1289062,0.140625 -0.1171875,1.89843754 -1.5,2.74218754 -2.6601563,2.74218754 -0.8320312,0 -3.1171875,-0.50390625 -3.1171875,-3.99609374 0,-3.4570313 2.25,-3.984375 3.1054688,-3.984375 1.2539062,0 2.3554687,1.0664062 2.5898437,2.859375 0.035156,0.1523437 0.035156,0.1875 0.1757813,0.1875 0.1640625,0 0.1640625,-0.035156 0.1640625,-0.28125 z m 5.698242,4.078125 c 1.183594,-0.2695313 2.109375,-1.03125 2.109375,-1.9453125 0,-1.1601563 -1.347656,-2.15625 -3.070312,-2.15625 H 8.9563319 v 0.3515625 h 0.234375 c 0.8671871,0 0.9023441,0.1171875 0.9023441,0.5625 v 6.33984374 c 0,0.4453125 -0.03516,0.5625 -0.9023441,0.5625 H 8.9563319 V -7.51576e-5 C 9.2258632,-0.02351266 10.210238,-0.02351266 10.561801,-0.02351266 c 0.339843,0 1.335937,0 1.605468,0.0234375024 V -0.35163766 h -0.234375 c -0.867187,0 -0.902343,-0.1171875 -0.902343,-0.5625 V -3.9727314 h 1.394531 c 0.457031,0 0.902344,0.140625 1.230469,0.46875 0.398437,0.4570312 0.398437,0.703125 0.398437,1.5351562 0,0.9375 0,1.25390629 0.527344,1.76953129 0.1875,0.17578125 0.679687,0.4453125 1.359375,0.4453125 0.925781,0 1.078125,-1.03125 1.078125,-1.28906249 0,-0.070312 0,-0.1757813 -0.128906,-0.1757813 -0.117188,0 -0.117188,0.070312 -0.128907,0.1875 -0.05859,0.71484379 -0.410156,1.04296879 -0.785156,1.04296879 -0.550781,0 -0.679687,-0.5625 -0.773437,-1.19531249 -0.01172,-0.082031 -0.08203,-0.5976563 -0.117188,-0.890625 -0.08203,-0.5976563 -0.128906,-0.984375 -0.492187,-1.359375 -0.128907,-0.1289063 -0.433594,-0.4570313 -1.101563,-0.6328125 z m -1.113281,-0.140625 h -1.347656 v -3.1289063 c 0,-0.28125 0,-0.421875 0.257812,-0.46875 0.105469,-0.011719 0.46875,-0.011719 0.703125,-0.011719 0.972656,0 2.496094,0 2.496094,1.8046875 0,1.0429687 -0.5625,1.8046875 -2.109375,1.8046878 z m 12.805664,0.1523437 c 0,-2.4726562 -1.816406,-4.359375 -3.890625,-4.359375 -2.132813,0 -3.914063,1.9101563 -3.914063,4.359375 0,2.4257813 1.804688,4.30078129 3.902344,4.30078129 2.132813,0 3.902344,-1.89843749 3.902344,-4.30078129 z m -3.890625,4.03125004 c -1.21875,0 -2.800781,-1.14843754 -2.800781,-4.20703124 0,-2.9296875 1.664062,-3.9257813 2.789062,-3.9257813 1.183594,0 2.789063,1.03125 2.789063,3.9257813 0,3.1054687 -1.617188,4.20703124 -2.777344,4.20703124 z M 33.624301,-8.1446064 c 0,-0.2109375 0,-0.2695313 -0.117188,-0.2695313 -0.07031,0 -0.08203,0.023437 -0.152344,0.140625 l -0.585937,0.9492188 c -0.539063,-0.6679688 -1.359375,-1.0898438 -2.214844,-1.0898438 -2.191406,0 -4.078125,1.8867188 -4.078125,4.3242188 0,2.4726562 1.910156,4.33593749 4.078125,4.33593749 1.957031,0 3.070313,-1.69921879 3.070313,-3.02343749 0,-0.1289063 0,-0.1992188 -0.128907,-0.1992188 -0.117187,0 -0.128906,0.058594 -0.128906,0.140625 -0.117187,1.89843754 -1.5,2.74218754 -2.660156,2.74218754 -0.832031,0 -3.117188,-0.50390625 -3.117188,-3.99609374 0,-3.4570313 2.25,-3.984375 3.105469,-3.984375 1.253906,0 2.355469,1.0664062 2.589844,2.859375 0.03516,0.1523437 0.03516,0.1875 0.175781,0.1875 0.164063,0 0.164063,-0.035156 0.164063,-0.28125 z m 6.544922,11.0507812 c 0,-0.035156 0,-0.058594 -0.210938,-0.2695312 -1.195312,-1.2070313 -1.863281,-3.17578126 -1.863281,-5.6132813 0,-2.3203125 0.5625,-4.3125 1.945312,-5.7304687 0.128907,-0.1054688 0.128907,-0.1289063 0.128907,-0.1640625 0,-0.070312 -0.07031,-0.09375 -0.117188,-0.09375 -0.152344,0 -1.136719,0.8554687 -1.722656,2.0273437 -0.609375,1.2070313 -0.878906,2.4960938 -0.878906,3.9609375 0,1.0664063 0.164062,2.48437504 0.785156,3.76171879 0.703125,1.44140621 1.6875,2.21484371 1.816406,2.21484371 0.04687,0 0.117188,-0.023437 0.117188,-0.09375 z m 8.443359,-11.0507812 c 0,-0.2109375 0,-0.2695313 -0.117188,-0.2695313 -0.07031,0 -0.08203,0.023437 -0.152343,0.140625 l -0.585938,0.9492188 c -0.539062,-0.6679688 -1.359375,-1.0898438 -2.214844,-1.0898438 -2.191406,0 -4.078125,1.8867188 -4.078125,4.3242188 0,2.4726562 1.910157,4.33593749 4.078125,4.33593749 1.957032,0 3.070313,-1.69921879 3.070313,-3.02343749 0,-0.1289063 0,-0.1992188 -0.128906,-0.1992188 -0.117188,0 -0.128907,0.058594 -0.128907,0.140625 -0.117187,1.89843754 -1.5,2.74218754 -2.660156,2.74218754 -0.832031,0 -3.117187,-0.50390625 -3.117187,-3.99609374 0,-3.4570313 2.25,-3.984375 3.105468,-3.984375 1.253907,0 2.355469,1.0664062 2.589844,2.859375 0.03516,0.1523437 0.03516,0.1875 0.175781,0.1875 0.164063,0 0.164063,-0.035156 0.164063,-0.28125 z m 5.979492,5.2382812 c 0,-1.1132812 0,-1.4414062 -0.28125,-1.828125 -0.339844,-0.46875 -0.902344,-0.5390625 -1.3125,-0.5390625 -1.019531,0 -1.5,0.7734375 -1.675781,1.1484375 h -0.01172 v -4.171875 l -1.652344,0.1289063 v 0.3515625 c 0.808594,0 0.902344,0.082031 0.902344,0.6679687 v 6.26953129 c 0,0.52734375 -0.128906,0.52734375 -0.902344,0.52734375 V -7.51576e-5 c 0.304689,-0.0234375024 0.94922,-0.0234375024 1.289064,-0.0234375024 0.339844,0 0.984375,0 1.300781,0.0234375024 V -0.35163766 c -0.761719,0 -0.914062,0 -0.914062,-0.52734375 V -3.1055439 c 0,-1.2539063 0.832031,-1.921875 1.570312,-1.921875 0.738281,0 0.914063,0.609375 0.914063,1.3359375 v 2.81249999 c 0,0.52734375 -0.140625,0.52734375 -0.914063,0.52734375 V -7.51576e-5 C 53.22098,-0.02351266 53.865512,-0.02351266 54.193637,-0.02351266 c 0.351562,0 0.996093,0 1.300781,0.0234375024 V -0.35163766 c -0.597656,0 -0.890625,0 -0.902344,-0.3515625 z m 5.753906,0.1289063 c 0.257813,0 0.28125,0 0.28125,-0.2226563 0,-1.2070312 -0.644531,-2.3320312 -2.085937,-2.3320312 -1.371094,0 -2.414063,1.2304687 -2.414063,2.71875 0,1.5703125 1.21875,2.73046874 2.542969,2.73046874 1.417969,0 1.957031,-1.28906254 1.957031,-1.53515624 0,-0.082031 -0.05859,-0.1289063 -0.128906,-0.1289063 -0.09375,0 -0.117187,0.070312 -0.140625,0.1289063 -0.316406,0.99609374 -1.113281,1.27734374 -1.617187,1.27734374 -0.503907,0 -1.710938,-0.33984375 -1.710938,-2.40234374 v -0.234375 z m -3.304687,-0.2226563 c 0.09375,-1.875 1.148437,-2.0976562 1.488281,-2.0976562 1.277344,0 1.347656,1.6875 1.359375,2.0976562 z m 9.243164,0.09375 c 0,-1.1132812 0,-1.4414062 -0.28125,-1.828125 -0.339844,-0.46875 -0.902344,-0.5390625 -1.3125,-0.5390625 -1.160156,0 -1.605469,0.9960938 -1.710938,1.2304688 h -0.01172 v -1.2304688 l -1.617188,0.1289063 v 0.3515625 c 0.808594,0 0.902344,0.082031 0.902344,0.6679687 v 3.24609379 c 0,0.52734375 -0.128906,0.52734375 -0.902344,0.52734375 V -7.51576e-5 c 0.30469,-0.0234375024 0.949221,-0.0234375024 1.289065,-0.0234375024 0.339843,0 0.984375,0 1.300781,0.0234375024 V -0.35163766 c -0.761719,0 -0.914063,0 -0.914063,-0.52734375 V -3.1055439 c 0,-1.2539063 0.832032,-1.921875 1.570313,-1.921875 0.738281,0 0.914062,0.609375 0.914062,1.3359375 v 2.81249999 c 0,0.52734375 -0.140625,0.52734375 -0.914062,0.52734375 V -7.51576e-5 C 64.913363,-0.02351266 65.557894,-0.02351266 65.886019,-0.02351266 c 0.351563,0 0.996094,0 1.300782,0.0234375024 V -0.35163766 c -0.597657,0 -0.890625,0 -0.902344,-0.3515625 z m 8.598633,0.140625 h 3.304687 c 0.164063,0 0.375,0 0.375,-0.2109375 0,-0.2226562 -0.199219,-0.2226562 -0.375,-0.2226562 H 74.88309 v -3.3046875 c 0,-0.1640625 0,-0.3867188 -0.210938,-0.3867188 -0.234375,0 -0.234375,0.2109375 -0.234375,0.3867188 v 3.3046875 h -3.292969 c -0.175781,0 -0.386718,0 -0.386718,0.2109375 0,0.2226562 0.199218,0.2226562 0.386718,0.2226562 h 3.292969 v 3.30468754 c 0,0.1640625 0,0.38671875 0.222656,0.38671875 0.222657,0 0.222657,-0.2109375 0.222657,-0.38671875 z m 12.246093,0.7617188 h -0.269531 c -0.03516,0.1992187 -0.128906,0.8554687 -0.246094,1.04296874 -0.08203,0.1171875 -0.761718,0.1171875 -1.125,0.1171875 h -2.214843 c 0.328125,-0.28125004 1.054687,-1.04296874 1.371093,-1.33593754 1.816407,-1.6640625 2.484375,-2.2851562 2.484375,-3.46875 0,-1.3828125 -1.089843,-2.296875 -2.472656,-2.296875 -1.394531,0 -2.203125,1.1835938 -2.203125,2.203125 0,0.609375 0.527344,0.609375 0.5625,0.609375 0.246094,0 0.5625,-0.1757812 0.5625,-0.5625 0,-0.328125 -0.234375,-0.5507812 -0.5625,-0.5507812 -0.105469,0 -0.128906,0 -0.164062,0.011719 0.222656,-0.8203125 0.867187,-1.3710937 1.640625,-1.3710937 1.019531,0 1.640625,0.8554687 1.640625,1.9570312 0,1.0078125 -0.585938,1.8984375 -1.265625,2.6601563 l -2.414063,2.70703124 V -7.51576e-5 h 4.359375 z m 5.941407,-1.8164063 c 0,-0.9960937 -0.05859,-1.96875 -0.492188,-2.8710937 -0.492187,-0.9960938 -1.347656,-1.2539063 -1.933594,-1.2539063 -0.691406,0 -1.546875,0.3398438 -1.980468,1.3359375 -0.339844,0.75 -0.457032,1.4882813 -0.457032,2.7890625 0,1.1601563 0.08203,2.0273438 0.515625,2.87109379 0.457032,0.9140625 1.289063,1.1953125 1.910157,1.1953125 1.042968,0 1.640625,-0.62109375 1.980468,-1.31249999 0.433594,-0.890625 0.457032,-2.0625 0.457032,-2.7539063 z m -2.4375,3.83203129 c -0.386719,0 -1.160157,-0.2109375 -1.382813,-1.52343749 -0.140625,-0.7148438 -0.140625,-1.6171875 -0.140625,-2.4609375 0,-0.9726563 0,-1.8632813 0.199219,-2.5664063 0.199219,-0.796875 0.808594,-1.171875 1.324219,-1.171875 0.457031,0 1.148437,0.28125 1.371093,1.3007813 0.152344,0.6796875 0.152344,1.6289062 0.152344,2.4375 0,0.8085937 0,1.7109375 -0.128906,2.4375 -0.222656,1.32421874 -0.972656,1.54687499 -1.394531,1.54687499 z m 8.188476,-2.01562499 h -0.269531 c -0.03516,0.1992187 -0.128906,0.8554687 -0.246094,1.04296874 -0.08203,0.1171875 -0.761718,0.1171875 -1.125,0.1171875 h -2.214843 c 0.328125,-0.28125004 1.054687,-1.04296874 1.371093,-1.33593754 1.816407,-1.6640625 2.484375,-2.2851562 2.484375,-3.46875 0,-1.3828125 -1.089843,-2.296875 -2.472656,-2.296875 -1.394531,0 -2.203125,1.1835938 -2.203125,2.203125 0,0.609375 0.527344,0.609375 0.5625,0.609375 0.246094,0 0.5625,-0.1757812 0.5625,-0.5625 0,-0.328125 -0.234375,-0.5507812 -0.5625,-0.5507812 -0.105469,0 -0.128906,0 -0.164062,0.011719 0.222656,-0.8203125 0.867187,-1.3710937 1.640625,-1.3710937 1.019531,0 1.640625,0.8554687 1.640625,1.9570312 0,1.0078125 -0.585938,1.8984375 -1.265625,2.6601563 l -2.414063,2.70703124 V -7.51576e-5 h 4.359375 z m 4.031254,-5.6601563 c 0,-0.2695312 0,-0.28125 -0.2461,-0.28125 -0.28125,0.3164063 -0.8789,0.7617188 -2.10937,0.7617188 v 0.3515625 c 0.26953,0 0.86719,0 1.52344,-0.3164063 v 6.22265629 c 0,0.43359375 -0.0352,0.57421875 -1.07813,0.57421875 h -0.375 V -7.51576e-5 c 0.31641,-0.0234375024 1.47656,-0.0234375024 1.875,-0.0234375024 0.39844,0 1.54688,0 1.86328,0.0234375024 V -0.35163766 h -0.36328 c -1.05469,0 -1.08984,-0.140625 -1.08984,-0.57421875 z m 5.77441,4.6875 c 0,-0.9140625 -0.12891,-2.390625 -0.79687,-3.7734375 -0.70313,-1.4414062 -1.67579,-2.2148437 -1.81641,-2.2148437 -0.0469,0 -0.10547,0.023437 -0.10547,0.09375 0,0.035156 0,0.058594 0.19922,0.2695312 1.19531,1.2070313 1.875,3.1757813 1.875,5.6132813 0,2.32031249 -0.5625,4.3125 -1.95703,5.7304687 -0.11719,0.1054688 -0.11719,0.1289063 -0.11719,0.1640625 0,0.070312 0.0586,0.09375 0.10547,0.09375 0.16406,0 1.13672,-0.8554687 1.72266,-2.02734371 0.60937,-1.21875 0.89062,-2.51953129 0.89062,-3.94921879 z m 0,0"
       style="fill:#000000;fill-opacity:1;fill-rule:nonzero;stroke:none"
       aria-label="CROC(Chen+2021)"
       transform="matrix(1.3333333,0,0,1.3333333,386.55041,387.21494)" />
  </g>
</svg>
