<?xml version="1.0" encoding="UTF-8" standalone="no"?>
<!-- Created with Inkscape (http://www.inkscape.org/) -->

<svg
   version="1.1"
   id="svg1"
   width="480"
   height="480"
   viewBox="0 0 480 480"
   sodipodi:docname="scatter_more_zspace_truesqrtJSm25_pred.pdf"
   xmlns:inkscape="http://www.inkscape.org/namespaces/inkscape"
   xmlns:sodipodi="http://sodipodi.sourceforge.net/DTD/sodipodi-0.dtd"
   xmlns="http://www.w3.org/2000/svg"
   xmlns:svg="http://www.w3.org/2000/svg">
  <defs
     id="defs1">
    <clipPath
       clipPathUnits="userSpaceOnUse"
       id="clipPath80">
      <path
         d="M 69.103391,62.477978 H 347.8 V 341.17459 H 69.103391 Z"
         id="path80" />
    </clipPath>
    <clipPath
       clipPathUnits="userSpaceOnUse"
       id="clipPath82">
      <path
         d="M 69.103391,62.477978 H 347.8 V 341.17459 H 69.103391 Z"
         id="path82" />
    </clipPath>
    <clipPath
       clipPathUnits="userSpaceOnUse"
       id="clipPath84">
      <path
         d="M 69.103391,62.477978 H 347.8 V 341.17459 H 69.103391 Z"
         id="path84" />
    </clipPath>
    <clipPath
       clipPathUnits="userSpaceOnUse"
       id="clipPath86">
      <path
         d="M 69.103391,62.477978 H 347.8 V 341.17459 H 69.103391 Z"
         id="path86" />
    </clipPath>
  </defs>
  <sodipodi:namedview
     id="namedview1"
     pagecolor="#ffffff"
     bordercolor="#000000"
     borderopacity="0.25"
     inkscape:showpageshadow="2"
     inkscape:pageopacity="0.0"
     inkscape:pagecheckerboard="0"
     inkscape:deskcolor="#d1d1d1">
    <inkscape:page
       x="0"
       y="0"
       inkscape:label="1"
       id="page1"
       width="480"
       height="480"
       margin="0"
       bleed="0" />
  </sodipodi:namedview>
  <g
     id="g1"
     inkscape:groupmode="layer"
     inkscape:label="1">
    <path
       id="path1"
       d="M 0,0 H 360 V 360 H 0 Z"
       style="fill:#ffffff;fill-opacity:1;fill-rule:nonzero;stroke:none"
       sodipodi:nodetypes="ccccc"
       transform="matrix(1.3333333,0,0,-1.3333333,0,480)" />
    <path
       id="path2"
       d="M 69.103391,62.477978 H 347.8 V 341.17459 H 69.103391 Z"
       style="fill:#ffffff;fill-opacity:1;fill-rule:nonzero;stroke:none"
       transform="matrix(1.3333333,0,0,-1.3333333,0,480)" />
    <path
       id="path3"
       d="m 101.34555,62.477978 v -5"
       style="fill:#000000;fill-opacity:1;fill-rule:nonzero;stroke:#000000;stroke-width:0.8;stroke-linecap:butt;stroke-linejoin:round;stroke-miterlimit:10;stroke-dasharray:none;stroke-opacity:1"
       transform="matrix(1.3333333,0,0,-1.3333333,0,480)" />
    <g
       id="g3"
       aria-label="10&#10;−1"
       transform="matrix(1.3333333,0,0,1.3333333,115.21701,422.78881)">
      <path
         id="path4"
         d="m 4.5950544,-10.218563 c 0,-0.363281 0,-0.375 -0.328125,-0.375 -0.375,0.421875 -1.171875,1.0195311 -2.8125,1.0195311 v 0.4570313 c 0.3632812,0 1.1601562,0 2.0390625,-0.4101563 v 8.296875 c 0,0.57421876 -0.046875,0.77343751 -1.453125,0.77343751 H 1.5481794 V 1.868603e-4 C 1.9817731,-0.03496939 3.5286481,-0.03496939 4.0442731,-0.03496939 c 0.5273438,0 2.0625,0 2.4960938,0.0351562503 V -0.45684439 H 6.0364606 c -1.3945312,0 -1.4414062,-0.19921875 -1.4414062,-0.77343751 z m 10.3359376,5.1210936 c 0,-1.3242187 -0.08203,-2.6132812 -0.644531,-3.8320312 -0.65625,-1.3125004 -1.804688,-1.6640624 -2.589844,-1.6640624 -0.925781,0 -2.0507814,0.457031 -2.6484376,1.7812499 -0.4453125,1.0078125 -0.5976563,1.9921875 -0.5976563,3.7148437 0,1.546875 0.1054688,2.7070313 0.6796875,3.84375 0.6210938,1.20703126 1.7226564,1.59375001 2.5546874,1.59375001 1.382813,0 2.179688,-0.83203125 2.648438,-1.75781251 0.574218,-1.1953125 0.597656,-2.7539062 0.597656,-3.6796875 z m -3.246094,5.10937501 c -0.515625,0 -1.546875,-0.28125 -1.8515624,-2.01562501 -0.1757812,-0.9609375 -0.1757812,-2.1679687 -0.1757812,-3.2929687 0,-1.3007813 0,-2.484375 0.2578125,-3.421875 0.2695311,-1.0664063 1.0781251,-1.5585939 1.7695311,-1.5585939 0.609375,0 1.523438,0.3632814 1.828125,1.7343751 0.210938,0.9140625 0.210938,2.1679688 0.210938,3.2460938 0,1.078125 0,2.2851562 -0.175782,3.2578125 -0.304687,1.75781246 -1.3125,2.05078121 -1.863281,2.05078121 z m 0,0"
         style="fill:#000000;fill-opacity:1;fill-rule:nonzero;stroke:none" />
      <path
         id="path5"
         d="m 22.955406,-8.3523522 c 0.199219,0 0.398437,0 0.398437,-0.2226563 0,-0.2226562 -0.199218,-0.2226562 -0.398437,-0.2226562 H 16.92025 c -0.1875,0 -0.386719,0 -0.386719,0.2226562 0,0.2226563 0.199219,0.2226563 0.386719,0.2226563 z m 0,0"
         style="fill:#000000;fill-opacity:1;fill-rule:nonzero;stroke:none" />
      <path
         id="path6"
         d="m 27.566734,-12.922665 c 0,-0.269531 0,-0.292968 -0.257812,-0.292968 -0.691407,0.714843 -1.675782,0.714843 -2.027344,0.714843 v 0.339844 c 0.222656,0 0.878906,0 1.453125,-0.28125 v 5.7773438 c 0,0.3984375 -0.02344,0.5273437 -1.03125,0.5273437 h -0.363281 v 0.3515625 c 0.398437,-0.035156 1.371093,-0.035156 1.816406,-0.035156 0.445312,0 1.417969,0 1.804687,0.035156 v -0.3515625 h -0.363281 c -0.996094,0 -1.03125,-0.1171875 -1.03125,-0.5273437 z m 0,0"
         style="fill:#000000;fill-opacity:1;fill-rule:nonzero;stroke:none" />
    </g>
    <path
       id="path7"
       d="m 208.45169,62.477978 v -5"
       style="fill:#000000;fill-opacity:1;fill-rule:nonzero;stroke:#000000;stroke-width:0.8;stroke-linecap:butt;stroke-linejoin:round;stroke-miterlimit:10;stroke-dasharray:none;stroke-opacity:1"
       transform="matrix(1.3333333,0,0,-1.3333333,0,480)" />
    <g
       id="g7"
       aria-label="10&#10;0"
       transform="matrix(1.3333333,0,0,1.3333333,263.8109,422.78881)">
      <path
         id="path8"
         d="m 4.5949512,-10.218563 c 0,-0.363281 0,-0.375 -0.328125,-0.375 -0.375,0.421875 -1.171875,1.0195311 -2.8125,1.0195311 v 0.4570313 c 0.3632813,0 1.1601563,0 2.0390625,-0.4101563 v 8.296875 c 0,0.57421876 -0.046875,0.77343751 -1.453125,0.77343751 H 1.5480762 V 1.868603e-4 C 1.98167,-0.03496939 3.528545,-0.03496939 4.04417,-0.03496939 c 0.5273437,0 2.0625,0 2.4960937,0.0351562503 V -0.45684439 H 6.0363575 c -1.3945313,0 -1.4414063,-0.19921875 -1.4414063,-0.77343751 z m 10.3359378,5.1210936 c 0,-1.3242187 -0.08203,-2.6132812 -0.644532,-3.8320312 -0.65625,-1.3125004 -1.804687,-1.6640624 -2.589843,-1.6640624 -0.925782,0 -2.0507815,0.457031 -2.6484378,1.7812499 -0.4453125,1.0078125 -0.5976562,1.9921875 -0.5976562,3.7148437 0,1.546875 0.1054687,2.7070313 0.6796875,3.84375 0.6210937,1.20703126 1.7226565,1.59375001 2.5546875,1.59375001 1.382812,0 2.179687,-0.83203125 2.648437,-1.75781251 0.574219,-1.1953125 0.597657,-2.7539062 0.597657,-3.6796875 z m -3.246094,5.10937501 c -0.515625,0 -1.546875,-0.28125 -1.8515625,-2.01562501 -0.1757813,-0.9609375 -0.1757813,-2.1679687 -0.1757813,-3.2929687 0,-1.3007813 0,-2.484375 0.2578125,-3.421875 0.2695313,-1.0664063 1.0781253,-1.5585939 1.7695313,-1.5585939 0.609375,0 1.523437,0.3632814 1.828125,1.7343751 0.210937,0.9140625 0.210937,2.1679688 0.210937,3.2460938 0,1.078125 0,2.2851562 -0.175781,3.2578125 -0.304687,1.75781246 -1.3125,2.05078121 -1.863281,2.05078121 z m 0,0"
         style="fill:#000000;fill-opacity:1;fill-rule:nonzero;stroke:none" />
      <path
         id="path9"
         d="m 20.740459,-9.3601647 c 0,-0.8906253 -0.05859,-1.7812503 -0.445312,-2.6015623 -0.515625,-1.078125 -1.429688,-1.253906 -1.898438,-1.253906 -0.667969,0 -1.488281,0.292968 -1.945312,1.324218 -0.351563,0.773438 -0.410157,1.640625 -0.410157,2.5312503 0,0.84375 0.04687,1.8398437 0.503907,2.6953125 0.480468,0.9023437 1.289062,1.125 1.839843,1.125 0.597657,0 1.453125,-0.234375 1.945313,-1.2890625 0.351562,-0.7734375 0.410156,-1.640625 0.410156,-2.53125 z M 18.38499,-5.785946 c -0.433593,0 -1.089843,-0.28125 -1.289062,-1.3476562 -0.128906,-0.6679688 -0.128906,-1.6992188 -0.128906,-2.3554688 0,-0.714844 0,-1.453125 0.09375,-2.050781 0.210937,-1.335938 1.042968,-1.429688 1.324218,-1.429688 0.363282,0 1.101563,0.199219 1.3125,1.300782 0.117188,0.632812 0.117188,1.476562 0.117188,2.179687 0,0.8320313 0,1.59375 -0.128906,2.3085938 -0.164063,1.0546875 -0.796875,1.3945312 -1.300782,1.3945312 z m 0,0"
         style="fill:#000000;fill-opacity:1;fill-rule:nonzero;stroke:none" />
    </g>
    <path
       id="path10"
       d="m 315.55784,62.477978 v -5"
       style="fill:#000000;fill-opacity:1;fill-rule:nonzero;stroke:#000000;stroke-width:0.8;stroke-linecap:butt;stroke-linejoin:round;stroke-miterlimit:10;stroke-dasharray:none;stroke-opacity:1"
       transform="matrix(1.3333333,0,0,-1.3333333,0,480)" />
    <g
       id="g10"
       aria-label="10&#10;1"
       transform="matrix(1.3333333,0,0,1.3333333,406.61909,422.78881)">
      <path
         id="path11"
         d="m 4.592324,-10.218563 c 0,-0.363281 0,-0.375 -0.328125,-0.375 -0.375,0.421875 -1.171875,1.0195311 -2.8125,1.0195311 v 0.4570313 c 0.3632813,0 1.1601563,0 2.0390625,-0.4101563 v 8.296875 c 0,0.57421876 -0.046875,0.77343751 -1.453125,0.77343751 H 1.545449 V 1.868603e-4 C 1.9790428,-0.03496939 3.5259178,-0.03496939 4.0415428,-0.03496939 c 0.5273437,0 2.0625,0 2.4960937,0.0351562503 V -0.45684439 H 6.0337303 c -1.3945313,0 -1.4414063,-0.19921875 -1.4414063,-0.77343751 z m 10.338867,5.1210936 c 0,-1.3242187 -0.08203,-2.6132812 -0.644531,-3.8320312 -0.65625,-1.3125004 -1.804688,-1.6640624 -2.589844,-1.6640624 -0.925781,0 -2.050781,0.457031 -2.6484373,1.7812499 -0.4453125,1.0078125 -0.5976562,1.9921875 -0.5976562,3.7148437 0,1.546875 0.1054687,2.7070313 0.6796875,3.84375 0.6210937,1.20703126 1.722656,1.59375001 2.554687,1.59375001 1.382813,0 2.179688,-0.83203125 2.648438,-1.75781251 0.574219,-1.1953125 0.597656,-2.7539062 0.597656,-3.6796875 z m -3.246094,5.10937501 c -0.515625,0 -1.546875,-0.28125 -1.851562,-2.01562501 -0.1757813,-0.9609375 -0.1757813,-2.1679687 -0.1757813,-3.2929687 0,-1.3007813 0,-2.484375 0.2578125,-3.421875 0.2695308,-1.0664063 1.0781248,-1.5585939 1.7695308,-1.5585939 0.609375,0 1.523438,0.3632814 1.828125,1.7343751 0.210938,0.9140625 0.210938,2.1679688 0.210938,3.2460938 0,1.078125 0,2.2851562 -0.175781,3.2578125 -0.304688,1.75781246 -1.3125,2.05078121 -1.863282,2.05078121 z m 0,0"
         style="fill:#000000;fill-opacity:1;fill-rule:nonzero;stroke:none" />
      <path
         id="path12"
         d="m 18.889199,-12.922665 c 0,-0.269531 0,-0.292968 -0.257812,-0.292968 -0.691407,0.714843 -1.675782,0.714843 -2.027344,0.714843 v 0.339844 c 0.222656,0 0.878906,0 1.453125,-0.28125 v 5.7773438 c 0,0.3984375 -0.02344,0.5273437 -1.03125,0.5273437 h -0.363281 v 0.3515625 c 0.398437,-0.035156 1.371093,-0.035156 1.816406,-0.035156 0.445312,0 1.417969,0 1.804687,0.035156 v -0.3515625 h -0.363281 c -0.996094,0 -1.03125,-0.1171875 -1.03125,-0.5273437 z m 0,0"
         style="fill:#000000;fill-opacity:1;fill-rule:nonzero;stroke:none" />
    </g>
    <path
       id="path13"
       d="m 69.103391,62.477978 v -2"
       style="fill:#000000;fill-opacity:1;fill-rule:nonzero;stroke:#000000;stroke-width:0.6;stroke-linecap:butt;stroke-linejoin:round;stroke-miterlimit:10;stroke-dasharray:none;stroke-opacity:1"
       transform="matrix(1.3333333,0,0,-1.3333333,0,480)" />
    <path
       id="path14"
       d="m 77.584189,62.477978 v -2"
       style="fill:#000000;fill-opacity:1;fill-rule:nonzero;stroke:#000000;stroke-width:0.6;stroke-linecap:butt;stroke-linejoin:round;stroke-miterlimit:10;stroke-dasharray:none;stroke-opacity:1"
       transform="matrix(1.3333333,0,0,-1.3333333,0,480)" />
    <path
       id="path15"
       d="m 84.754601,62.477978 v -2"
       style="fill:#000000;fill-opacity:1;fill-rule:nonzero;stroke:#000000;stroke-width:0.6;stroke-linecap:butt;stroke-linejoin:round;stroke-miterlimit:10;stroke-dasharray:none;stroke-opacity:1"
       transform="matrix(1.3333333,0,0,-1.3333333,0,480)" />
    <path
       id="path16"
       d="m 90.965895,62.477978 v -2"
       style="fill:#000000;fill-opacity:1;fill-rule:nonzero;stroke:#000000;stroke-width:0.6;stroke-linecap:butt;stroke-linejoin:round;stroke-miterlimit:10;stroke-dasharray:none;stroke-opacity:1"
       transform="matrix(1.3333333,0,0,-1.3333333,0,480)" />
    <path
       id="path17"
       d="m 96.444644,62.477978 v -2"
       style="fill:#000000;fill-opacity:1;fill-rule:nonzero;stroke:#000000;stroke-width:0.6;stroke-linecap:butt;stroke-linejoin:round;stroke-miterlimit:10;stroke-dasharray:none;stroke-opacity:1"
       transform="matrix(1.3333333,0,0,-1.3333333,0,480)" />
    <path
       id="path18"
       d="m 133.58771,62.477978 v -2"
       style="fill:#000000;fill-opacity:1;fill-rule:nonzero;stroke:#000000;stroke-width:0.6;stroke-linecap:butt;stroke-linejoin:round;stroke-miterlimit:10;stroke-dasharray:none;stroke-opacity:1"
       transform="matrix(1.3333333,0,0,-1.3333333,0,480)" />
    <path
       id="path19"
       d="m 152.44817,62.477978 v -2"
       style="fill:#000000;fill-opacity:1;fill-rule:nonzero;stroke:#000000;stroke-width:0.6;stroke-linecap:butt;stroke-linejoin:round;stroke-miterlimit:10;stroke-dasharray:none;stroke-opacity:1"
       transform="matrix(1.3333333,0,0,-1.3333333,0,480)" />
    <path
       id="path20"
       d="m 165.82988,62.477978 v -2"
       style="fill:#000000;fill-opacity:1;fill-rule:nonzero;stroke:#000000;stroke-width:0.6;stroke-linecap:butt;stroke-linejoin:round;stroke-miterlimit:10;stroke-dasharray:none;stroke-opacity:1"
       transform="matrix(1.3333333,0,0,-1.3333333,0,480)" />
    <path
       id="path21"
       d="m 176.20953,62.477978 v -2"
       style="fill:#000000;fill-opacity:1;fill-rule:nonzero;stroke:#000000;stroke-width:0.6;stroke-linecap:butt;stroke-linejoin:round;stroke-miterlimit:10;stroke-dasharray:none;stroke-opacity:1"
       transform="matrix(1.3333333,0,0,-1.3333333,0,480)" />
    <path
       id="path22"
       d="m 184.69033,62.477978 v -2"
       style="fill:#000000;fill-opacity:1;fill-rule:nonzero;stroke:#000000;stroke-width:0.6;stroke-linecap:butt;stroke-linejoin:round;stroke-miterlimit:10;stroke-dasharray:none;stroke-opacity:1"
       transform="matrix(1.3333333,0,0,-1.3333333,0,480)" />
    <path
       id="path23"
       d="m 191.86074,62.477978 v -2"
       style="fill:#000000;fill-opacity:1;fill-rule:nonzero;stroke:#000000;stroke-width:0.6;stroke-linecap:butt;stroke-linejoin:round;stroke-miterlimit:10;stroke-dasharray:none;stroke-opacity:1"
       transform="matrix(1.3333333,0,0,-1.3333333,0,480)" />
    <path
       id="path24"
       d="m 198.07204,62.477978 v -2"
       style="fill:#000000;fill-opacity:1;fill-rule:nonzero;stroke:#000000;stroke-width:0.6;stroke-linecap:butt;stroke-linejoin:round;stroke-miterlimit:10;stroke-dasharray:none;stroke-opacity:1"
       transform="matrix(1.3333333,0,0,-1.3333333,0,480)" />
    <path
       id="path25"
       d="m 203.55079,62.477978 v -2"
       style="fill:#000000;fill-opacity:1;fill-rule:nonzero;stroke:#000000;stroke-width:0.6;stroke-linecap:butt;stroke-linejoin:round;stroke-miterlimit:10;stroke-dasharray:none;stroke-opacity:1"
       transform="matrix(1.3333333,0,0,-1.3333333,0,480)" />
    <path
       id="path26"
       d="m 240.69386,62.477978 v -2"
       style="fill:#000000;fill-opacity:1;fill-rule:nonzero;stroke:#000000;stroke-width:0.6;stroke-linecap:butt;stroke-linejoin:round;stroke-miterlimit:10;stroke-dasharray:none;stroke-opacity:1"
       transform="matrix(1.3333333,0,0,-1.3333333,0,480)" />
    <path
       id="path27"
       d="m 259.55431,62.477978 v -2"
       style="fill:#000000;fill-opacity:1;fill-rule:nonzero;stroke:#000000;stroke-width:0.6;stroke-linecap:butt;stroke-linejoin:round;stroke-miterlimit:10;stroke-dasharray:none;stroke-opacity:1"
       transform="matrix(1.3333333,0,0,-1.3333333,0,480)" />
    <path
       id="path28"
       d="m 272.93602,62.477978 v -2"
       style="fill:#000000;fill-opacity:1;fill-rule:nonzero;stroke:#000000;stroke-width:0.6;stroke-linecap:butt;stroke-linejoin:round;stroke-miterlimit:10;stroke-dasharray:none;stroke-opacity:1"
       transform="matrix(1.3333333,0,0,-1.3333333,0,480)" />
    <path
       id="path29"
       d="m 283.31568,62.477978 v -2"
       style="fill:#000000;fill-opacity:1;fill-rule:nonzero;stroke:#000000;stroke-width:0.6;stroke-linecap:butt;stroke-linejoin:round;stroke-miterlimit:10;stroke-dasharray:none;stroke-opacity:1"
       transform="matrix(1.3333333,0,0,-1.3333333,0,480)" />
    <path
       id="path30"
       d="m 291.79647,62.477978 v -2"
       style="fill:#000000;fill-opacity:1;fill-rule:nonzero;stroke:#000000;stroke-width:0.6;stroke-linecap:butt;stroke-linejoin:round;stroke-miterlimit:10;stroke-dasharray:none;stroke-opacity:1"
       transform="matrix(1.3333333,0,0,-1.3333333,0,480)" />
    <path
       id="path31"
       d="m 298.96689,62.477978 v -2"
       style="fill:#000000;fill-opacity:1;fill-rule:nonzero;stroke:#000000;stroke-width:0.6;stroke-linecap:butt;stroke-linejoin:round;stroke-miterlimit:10;stroke-dasharray:none;stroke-opacity:1"
       transform="matrix(1.3333333,0,0,-1.3333333,0,480)" />
    <path
       id="path32"
       d="m 305.17818,62.477978 v -2"
       style="fill:#000000;fill-opacity:1;fill-rule:nonzero;stroke:#000000;stroke-width:0.6;stroke-linecap:butt;stroke-linejoin:round;stroke-miterlimit:10;stroke-dasharray:none;stroke-opacity:1"
       transform="matrix(1.3333333,0,0,-1.3333333,0,480)" />
    <path
       id="path33"
       d="m 310.65693,62.477978 v -2"
       style="fill:#000000;fill-opacity:1;fill-rule:nonzero;stroke:#000000;stroke-width:0.6;stroke-linecap:butt;stroke-linejoin:round;stroke-miterlimit:10;stroke-dasharray:none;stroke-opacity:1"
       transform="matrix(1.3333333,0,0,-1.3333333,0,480)" />
    <path
       id="path34"
       d="m 347.8,62.477978 v -2"
       style="fill:#000000;fill-opacity:1;fill-rule:nonzero;stroke:#000000;stroke-width:0.6;stroke-linecap:butt;stroke-linejoin:round;stroke-miterlimit:10;stroke-dasharray:none;stroke-opacity:1"
       transform="matrix(1.3333333,0,0,-1.3333333,0,480)" />
    <g
       id="g90"
       transform="matrix(1.3333333,0,0,1.3333333,119.5948,450.72873)">
      <path
         id="path35"
         d="m 88.684463,-9.7822764 h 2.789063 v -0.5156246 h -2.789063 v -3.679688 h -0.363281 c -0.03516,2.050782 -0.738281,3.84375 -2.425781,3.878906 v 0.3164066 h 1.734375 v 5.6015625 c 0,0.375 0,2.6132813 2.308594,2.6132813 1.171875,0 1.851562,-1.1601563 1.851562,-2.6367188 v -1.1367188 h -0.363281 v 1.125 c 0,1.3710938 -0.539063,2.2851563 -1.371094,2.2851563 -0.574219,0 -1.371094,-0.3984375 -1.371094,-2.2148438 z m 7.03125,3.3515625 c 0,-1.9101563 0.820313,-3.7031251 2.308594,-3.7031251 0.140625,0 0.28125,0.01172 0.421875,0.07031 0,0 -0.445312,0.1406251 -0.445312,0.6679688 0,0.46875 0.386718,0.6679688 0.679687,0.6679688 0.246094,0 0.679688,-0.140625 0.679688,-0.6914063 0,-0.6445313 -0.632813,-1.0429683 -1.3125,-1.0429683 -1.511719,0 -2.167969,1.4765621 -2.367188,2.1796871 h -0.02344 v -2.1796871 l -2.308594,0.222656 v 0.5156248 c 1.171875,0 1.347657,0.1289063 1.347657,1.078125 v 5.5429688 c 0,0.75 -0.08203,0.8554688 -1.347657,0.8554688 v 0.5156255 c 0.46875,-0.035156 1.394531,-0.035156 1.910156,-0.035156 0.574219,0 1.59375,0 2.132813,0.035156 v -0.515625 c -1.441407,0 -1.675782,0 -1.675782,-0.9023438 z m 9.922857,-3.8085941 v 0.5156253 c 1.17187,0 1.34765,0.1289063 1.34765,1.078125 v 3.6328125 c 0,1.6640625 -0.89062,3.1171876 -2.36719,3.1171876 -1.6289,0 -1.76953,-0.9726563 -1.76953,-2.0039063 v -6.5625001 l -2.41406,0.222656 v 0.5156253 c 0.79688,0 1.33594,0 1.35938,0.796875 v 3.8320313 c 0,1.3359375 0,2.1914062 0.51562,2.7421875 0.25781,0.2578125 0.75,0.7851563 2.19141,0.7851563 1.6875,0 2.34375,-1.4414063 2.50781,-1.8515626 h 0.0234 v 1.8515626 l 2.36718,-0.1640625 v -0.515625 c -1.17187,0 -1.35937,-0.1171875 -1.35937,-1.0781251 v -7.1367188 z m 11.89746,3.8320316 c 0.0703,-0.082031 0.0703,-0.1289063 0.0703,-0.328125 0,-2.0273438 -1.06641,-3.7968746 -3.33985,-3.7968746 -2.10937,0 -3.78515,2.0039058 -3.78515,4.4531246 0,2.5898437 1.88672,4.5117188 4.00781,4.5117188 2.22656,0 3.10547,-2.1210938 3.10547,-2.5312501 0,-0.140625 -0.11719,-0.140625 -0.16406,-0.140625 -0.14063,0 -0.15235,0.035156 -0.23438,0.28125 -0.44531,1.3476563 -1.53516,2.0273438 -2.57812,2.0273438 -0.85547,0 -1.71094,-0.4804687 -2.25,-1.359375 -0.60938,-1.0078125 -0.60938,-2.1914063 -0.60938,-3.1171875 z m -5.76563,-0.3046875 c 0.14063,-2.8710938 1.67578,-3.5039061 2.47266,-3.5039061 1.35937,0 2.27344,1.2773436 2.29687,3.5039061 z m 0,0"
         style="fill:#000000;fill-opacity:1;fill-rule:nonzero;stroke:none" />
    </g>
    <path
       id="path37"
       d="m 296.91257,431.2458 c -0.20313,-0.45313 -0.3125,-0.45313 -0.53125,-0.45313 -0.3125,0 -0.34375,0.0625 -0.53125,0.42188 l -8.60938,17.90625 c -0.0156,0.0625 -0.125,0.29687 -0.125,0.32812 0,0.0937 0.0312,0.125 0.5,0.125 h 17.5 c 0.48438,0 0.51563,-0.0312 0.51563,-0.125 0,-0.0312 -0.10938,-0.26562 -0.14063,-0.32812 z m -1.1875,1.5625 7.35937,15.28125 h -14.75 z m 0,0"
       style="fill:#000000;fill-opacity:1;fill-rule:nonzero;stroke:none;stroke-width:1.33333" />
    <path
       id="path45"
       d="m 69.103391,94.72014 h -5"
       style="fill:#000000;fill-opacity:1;fill-rule:nonzero;stroke:#000000;stroke-width:0.8;stroke-linecap:butt;stroke-linejoin:round;stroke-miterlimit:10;stroke-dasharray:none;stroke-opacity:1"
       transform="matrix(1.3333333,0,0,-1.3333333,0,480)" />
    <g
       id="g45"
       aria-label="10&#10;−1"
       transform="matrix(1.3333333,0,0,1.3333333,40.983736,361.08621)">
      <path
         id="path46"
         d="m 4.5942293,-10.218951 c 0,-0.363281 0,-0.375 -0.328125,-0.375 -0.375,0.421875 -1.171875,1.0195312 -2.8125,1.0195312 v 0.4570313 c 0.3632812,0 1.1601562,0 2.0390625,-0.4101563 v 8.296875 c 0,0.57421877 -0.046875,0.77343752 -1.453125,0.77343752 H 1.5473543 V -2.010266e-4 C 1.980948,-0.03535728 3.527823,-0.03535728 4.043448,-0.03535728 c 0.5273438,0 2.0625,0 2.4960938,0.0351562534 V -0.45723228 H 6.0356355 c -1.3945312,0 -1.4414062,-0.19921875 -1.4414062,-0.77343752 z m 10.3359377,5.1210937 c 0,-1.3242187 -0.08203,-2.6132812 -0.644531,-3.8320312 -0.65625,-1.3125005 -1.804688,-1.6640625 -2.589844,-1.6640625 -0.925781,0 -2.0507815,0.457031 -2.6484377,1.78125 -0.4453125,1.0078125 -0.5976563,1.9921875 -0.5976563,3.7148437 0,1.546875 0.1054688,2.7070313 0.6796875,3.84375 0.6210938,1.20703127 1.7226565,1.59375002 2.5546875,1.59375002 1.382813,0 2.179688,-0.83203125 2.648438,-1.75781252 0.574218,-1.1953125 0.597656,-2.7539062 0.597656,-3.6796875 z m -3.246094,5.10937502 c -0.515625,0 -1.546875,-0.28125 -1.8515625,-2.01562502 C 9.6567293,-2.9650448 9.6567293,-4.172076 9.6567293,-5.297076 c 0,-1.3007813 0,-2.484375 0.2578125,-3.421875 0.2695312,-1.0664063 1.0781252,-1.558594 1.7695312,-1.558594 0.609375,0 1.523438,0.3632815 1.828125,1.7343752 0.210938,0.9140625 0.210938,2.1679688 0.210938,3.2460938 0,1.078125 0,2.2851562 -0.175782,3.2578125 -0.304687,1.75781247 -1.3125,2.05078122 -1.863281,2.05078122 z m 0,0"
         style="fill:#000000;fill-opacity:1;fill-rule:nonzero;stroke:none" />
      <path
         id="path47"
         d="m 22.954581,-8.3498104 c 0.199219,0 0.398437,0 0.398437,-0.2226563 0,-0.2226562 -0.199218,-0.2226562 -0.398437,-0.2226562 h -6.035156 c -0.1875,0 -0.386719,0 -0.386719,0.2226562 0,0.2226563 0.199219,0.2226563 0.386719,0.2226563 z m 0,0"
         style="fill:#000000;fill-opacity:1;fill-rule:nonzero;stroke:none" />
      <path
         id="path48"
         d="m 27.568839,-12.920123 c 0,-0.269531 0,-0.292969 -0.257813,-0.292969 -0.691406,0.714844 -1.675781,0.714844 -2.027344,0.714844 v 0.339844 c 0.222657,0 0.878907,0 1.453125,-0.28125 v 5.7773436 c 0,0.3984375 -0.02344,0.5273437 -1.03125,0.5273437 h -0.363281 v 0.3515625 c 0.398438,-0.035156 1.371094,-0.035156 1.816406,-0.035156 0.445313,0 1.417969,0 1.804688,0.035156 v -0.3515625 h -0.363281 c -0.996094,0 -1.03125,-0.1171875 -1.03125,-0.5273437 z m 0,0"
         style="fill:#000000;fill-opacity:1;fill-rule:nonzero;stroke:none" />
    </g>
    <path
       id="path49"
       d="m 69.103391,201.82628 h -5"
       style="fill:#000000;fill-opacity:1;fill-rule:nonzero;stroke:#000000;stroke-width:0.8;stroke-linecap:butt;stroke-linejoin:round;stroke-miterlimit:10;stroke-dasharray:none;stroke-opacity:1"
       transform="matrix(1.3333333,0,0,-1.3333333,0,480)" />
    <g
       id="g49"
       aria-label="10&#10;0"
       transform="matrix(1.3333333,0,0,1.3333333,52.55513,218.27802)">
      <path
         id="path50"
         d="m 4.5934181,-10.219253 c 0,-0.363282 0,-0.375 -0.328125,-0.375 -0.375,0.421875 -1.171875,1.0195308 -2.8125,1.0195308 v 0.4570312 c 0.3632813,0 1.1601563,0 2.0390625,-0.4101562 v 8.296875 c 0,0.57421872 -0.046875,0.77343747 -1.453125,0.77343747 H 1.5465431 V -5.03483e-4 C 1.9801369,-0.03565973 3.5270119,-0.03565973 4.0426369,-0.03565973 c 0.5273437,0 2.0625,0 2.4960937,0.035156247 V -0.45753473 H 6.0348244 c -1.3945313,0 -1.4414063,-0.19921875 -1.4414063,-0.77343747 z m 10.3388669,5.1210933 c 0,-1.3242188 -0.08203,-2.6132813 -0.644531,-3.8320313 -0.65625,-1.3125 -1.804687,-1.664062 -2.589844,-1.664062 -0.925781,0 -2.0507809,0.457031 -2.6484372,1.7812495 -0.4453125,1.0078125 -0.5976562,1.9921875 -0.5976562,3.7148438 0,1.546875 0.1054687,2.7070312 0.6796875,3.84375 0.6210937,1.20703122 1.7226559,1.59374997 2.5546879,1.59374997 1.382812,0 2.179687,-0.83203125 2.648437,-1.75781247 0.574219,-1.1953125 0.597656,-2.7539063 0.597656,-3.6796875 z m -3.246093,5.10937497 c -0.515625,0 -1.546875,-0.28125 -1.8515629,-2.01562497 -0.1757813,-0.9609375 -0.1757813,-2.1679688 -0.1757813,-3.2929688 0,-1.3007812 0,-2.484375 0.2578125,-3.421875 0.2695317,-1.0664062 1.0781247,-1.5585935 1.7695317,-1.5585935 0.609375,0 1.523437,0.363281 1.828125,1.7343748 0.210937,0.9140625 0.210937,2.1679687 0.210937,3.2460937 0,1.078125 0,2.2851563 -0.175781,3.2578125 -0.304688,1.75781252 -1.3125,2.05078127 -1.863281,2.05078127 z m 0,0"
         style="fill:#000000;fill-opacity:1;fill-rule:nonzero;stroke:none" />
      <path
         id="path51"
         d="m 20.741856,-9.3579254 c 0,-0.8906246 -0.05859,-1.7812496 -0.445313,-2.6015626 -0.515625,-1.078125 -1.429687,-1.253906 -1.898437,-1.253906 -0.667969,0 -1.488282,0.292969 -1.945313,1.324219 -0.351562,0.773437 -0.410156,1.640625 -0.410156,2.5312496 0,0.84375 0.04687,1.8398438 0.503906,2.6953125 0.480469,0.9023438 1.289063,1.125 1.839844,1.125 0.597656,0 1.453125,-0.234375 1.945312,-1.2890625 0.351563,-0.7734375 0.410157,-1.640625 0.410157,-2.53125 z m -2.355469,3.5742188 c -0.433594,0 -1.089844,-0.28125 -1.289063,-1.3476563 -0.128906,-0.6679687 -0.128906,-1.6992187 -0.128906,-2.3554687 0,-0.7148434 0,-1.4531254 0.09375,-2.0507814 0.210938,-1.335937 1.042969,-1.429687 1.324219,-1.429687 0.363281,0 1.101562,0.199218 1.3125,1.300781 0.117187,0.632812 0.117187,1.476562 0.117187,2.1796874 0,0.8320312 0,1.59375 -0.128906,2.3085937 -0.164062,1.0546875 -0.796875,1.3945313 -1.300781,1.3945313 z m 0,0"
         style="fill:#000000;fill-opacity:1;fill-rule:nonzero;stroke:none" />
    </g>
    <path
       id="path52"
       d="m 69.103391,308.93243 h -5"
       style="fill:#000000;fill-opacity:1;fill-rule:nonzero;stroke:#000000;stroke-width:0.8;stroke-linecap:butt;stroke-linejoin:round;stroke-miterlimit:10;stroke-dasharray:none;stroke-opacity:1"
       transform="matrix(1.3333333,0,0,-1.3333333,0,480)" />
    <g
       id="g52"
       aria-label="10&#10;1"
       transform="matrix(1.3333333,0,0,1.3333333,52.55513,75.469825)">
      <path
         id="path53"
         d="m 4.5934181,-10.219556 c 0,-0.363281 0,-0.375 -0.328125,-0.375 -0.375,0.421875 -1.171875,1.0195313 -2.8125,1.0195313 v 0.4570313 c 0.3632813,0 1.1601563,0 2.0390625,-0.4101563 v 8.296875 c 0,0.57421876 -0.046875,0.77343751 -1.453125,0.77343751 H 1.5465431 V -8.059395e-4 C 1.9801369,-0.03596219 3.5270119,-0.03596219 4.0426369,-0.03596219 c 0.5273437,0 2.0625,0 2.4960937,0.0351562505 V -0.45783719 H 6.0348244 c -1.3945313,0 -1.4414063,-0.19921875 -1.4414063,-0.77343751 z m 10.3388669,5.1210938 c 0,-1.3242187 -0.08203,-2.6132812 -0.644531,-3.8320312 -0.65625,-1.3124996 -1.804687,-1.6640626 -2.589844,-1.6640626 -0.925781,0 -2.0507809,0.457031 -2.6484372,1.7812501 -0.4453125,1.0078125 -0.5976562,1.9921875 -0.5976562,3.7148437 0,1.546875 0.1054687,2.7070313 0.6796875,3.84375 0.6210937,1.20703126 1.7226559,1.59375001 2.5546879,1.59375001 1.382812,0 2.179687,-0.83203125 2.648437,-1.75781251 0.574219,-1.1953125 0.597656,-2.7539062 0.597656,-3.6796875 z m -3.246093,5.10937501 c -0.515625,0 -1.546875,-0.28125 -1.8515629,-2.01562501 -0.1757813,-0.9609375 -0.1757813,-2.1679687 -0.1757813,-3.2929687 0,-1.3007813 0,-2.484375 0.2578125,-3.421875 0.2695317,-1.0664063 1.0781247,-1.5585941 1.7695317,-1.5585941 0.609375,0 1.523437,0.3632816 1.828125,1.7343753 0.210937,0.9140625 0.210937,2.1679688 0.210937,3.2460938 0,1.078125 0,2.2851562 -0.175781,3.2578125 -0.304688,1.75781246 -1.3125,2.05078121 -1.863281,2.05078121 z m 0,0"
         style="fill:#000000;fill-opacity:1;fill-rule:nonzero;stroke:none" />
      <path
         id="path54"
         d="m 18.890293,-12.920728 c 0,-0.269531 0,-0.292969 -0.257812,-0.292969 -0.691407,0.714844 -1.675782,0.714844 -2.027344,0.714844 v 0.339844 c 0.222656,0 0.878906,0 1.453125,-0.28125 v 5.7773437 c 0,0.3984375 -0.02344,0.5273437 -1.03125,0.5273437 h -0.363281 v 0.3515625 c 0.398437,-0.035156 1.371093,-0.035156 1.816406,-0.035156 0.445312,0 1.417969,0 1.804687,0.035156 v -0.3515625 h -0.363281 c -0.996094,0 -1.03125,-0.1171875 -1.03125,-0.5273437 z m 0,0"
         style="fill:#000000;fill-opacity:1;fill-rule:nonzero;stroke:none" />
    </g>
    <path
       id="path55"
       d="m 69.103391,62.477978 h -2"
       style="fill:#000000;fill-opacity:1;fill-rule:nonzero;stroke:#000000;stroke-width:0.6;stroke-linecap:butt;stroke-linejoin:round;stroke-miterlimit:10;stroke-dasharray:none;stroke-opacity:1"
       transform="matrix(1.3333333,0,0,-1.3333333,0,480)" />
    <path
       id="path56"
       d="m 69.103391,70.958776 h -2"
       style="fill:#000000;fill-opacity:1;fill-rule:nonzero;stroke:#000000;stroke-width:0.6;stroke-linecap:butt;stroke-linejoin:round;stroke-miterlimit:10;stroke-dasharray:none;stroke-opacity:1"
       transform="matrix(1.3333333,0,0,-1.3333333,0,480)" />
    <path
       id="path57"
       d="m 69.103391,78.129189 h -2"
       style="fill:#000000;fill-opacity:1;fill-rule:nonzero;stroke:#000000;stroke-width:0.6;stroke-linecap:butt;stroke-linejoin:round;stroke-miterlimit:10;stroke-dasharray:none;stroke-opacity:1"
       transform="matrix(1.3333333,0,0,-1.3333333,0,480)" />
    <path
       id="path58"
       d="m 69.103391,84.340482 h -2"
       style="fill:#000000;fill-opacity:1;fill-rule:nonzero;stroke:#000000;stroke-width:0.6;stroke-linecap:butt;stroke-linejoin:round;stroke-miterlimit:10;stroke-dasharray:none;stroke-opacity:1"
       transform="matrix(1.3333333,0,0,-1.3333333,0,480)" />
    <path
       id="path59"
       d="m 69.103391,89.819232 h -2"
       style="fill:#000000;fill-opacity:1;fill-rule:nonzero;stroke:#000000;stroke-width:0.6;stroke-linecap:butt;stroke-linejoin:round;stroke-miterlimit:10;stroke-dasharray:none;stroke-opacity:1"
       transform="matrix(1.3333333,0,0,-1.3333333,0,480)" />
    <path
       id="path60"
       d="m 69.103391,126.9623 h -2"
       style="fill:#000000;fill-opacity:1;fill-rule:nonzero;stroke:#000000;stroke-width:0.6;stroke-linecap:butt;stroke-linejoin:round;stroke-miterlimit:10;stroke-dasharray:none;stroke-opacity:1"
       transform="matrix(1.3333333,0,0,-1.3333333,0,480)" />
    <path
       id="path61"
       d="m 69.103391,145.82276 h -2"
       style="fill:#000000;fill-opacity:1;fill-rule:nonzero;stroke:#000000;stroke-width:0.6;stroke-linecap:butt;stroke-linejoin:round;stroke-miterlimit:10;stroke-dasharray:none;stroke-opacity:1"
       transform="matrix(1.3333333,0,0,-1.3333333,0,480)" />
    <path
       id="path62"
       d="m 69.103391,159.20446 h -2"
       style="fill:#000000;fill-opacity:1;fill-rule:nonzero;stroke:#000000;stroke-width:0.6;stroke-linecap:butt;stroke-linejoin:round;stroke-miterlimit:10;stroke-dasharray:none;stroke-opacity:1"
       transform="matrix(1.3333333,0,0,-1.3333333,0,480)" />
    <path
       id="path63"
       d="m 69.103391,169.58412 h -2"
       style="fill:#000000;fill-opacity:1;fill-rule:nonzero;stroke:#000000;stroke-width:0.6;stroke-linecap:butt;stroke-linejoin:round;stroke-miterlimit:10;stroke-dasharray:none;stroke-opacity:1"
       transform="matrix(1.3333333,0,0,-1.3333333,0,480)" />
    <path
       id="path64"
       d="m 69.103391,178.06492 h -2"
       style="fill:#000000;fill-opacity:1;fill-rule:nonzero;stroke:#000000;stroke-width:0.6;stroke-linecap:butt;stroke-linejoin:round;stroke-miterlimit:10;stroke-dasharray:none;stroke-opacity:1"
       transform="matrix(1.3333333,0,0,-1.3333333,0,480)" />
    <path
       id="path65"
       d="m 69.103391,185.23533 h -2"
       style="fill:#000000;fill-opacity:1;fill-rule:nonzero;stroke:#000000;stroke-width:0.6;stroke-linecap:butt;stroke-linejoin:round;stroke-miterlimit:10;stroke-dasharray:none;stroke-opacity:1"
       transform="matrix(1.3333333,0,0,-1.3333333,0,480)" />
    <path
       id="path66"
       d="m 69.103391,191.44662 h -2"
       style="fill:#000000;fill-opacity:1;fill-rule:nonzero;stroke:#000000;stroke-width:0.6;stroke-linecap:butt;stroke-linejoin:round;stroke-miterlimit:10;stroke-dasharray:none;stroke-opacity:1"
       transform="matrix(1.3333333,0,0,-1.3333333,0,480)" />
    <path
       id="path67"
       d="m 69.103391,196.92537 h -2"
       style="fill:#000000;fill-opacity:1;fill-rule:nonzero;stroke:#000000;stroke-width:0.6;stroke-linecap:butt;stroke-linejoin:round;stroke-miterlimit:10;stroke-dasharray:none;stroke-opacity:1"
       transform="matrix(1.3333333,0,0,-1.3333333,0,480)" />
    <path
       id="path68"
       d="m 69.103391,234.06845 h -2"
       style="fill:#000000;fill-opacity:1;fill-rule:nonzero;stroke:#000000;stroke-width:0.6;stroke-linecap:butt;stroke-linejoin:round;stroke-miterlimit:10;stroke-dasharray:none;stroke-opacity:1"
       transform="matrix(1.3333333,0,0,-1.3333333,0,480)" />
    <path
       id="path69"
       d="m 69.103391,252.9289 h -2"
       style="fill:#000000;fill-opacity:1;fill-rule:nonzero;stroke:#000000;stroke-width:0.6;stroke-linecap:butt;stroke-linejoin:round;stroke-miterlimit:10;stroke-dasharray:none;stroke-opacity:1"
       transform="matrix(1.3333333,0,0,-1.3333333,0,480)" />
    <path
       id="path70"
       d="m 69.103391,266.31061 h -2"
       style="fill:#000000;fill-opacity:1;fill-rule:nonzero;stroke:#000000;stroke-width:0.6;stroke-linecap:butt;stroke-linejoin:round;stroke-miterlimit:10;stroke-dasharray:none;stroke-opacity:1"
       transform="matrix(1.3333333,0,0,-1.3333333,0,480)" />
    <path
       id="path71"
       d="m 69.103391,276.69026 h -2"
       style="fill:#000000;fill-opacity:1;fill-rule:nonzero;stroke:#000000;stroke-width:0.6;stroke-linecap:butt;stroke-linejoin:round;stroke-miterlimit:10;stroke-dasharray:none;stroke-opacity:1"
       transform="matrix(1.3333333,0,0,-1.3333333,0,480)" />
    <path
       id="path72"
       d="m 69.103391,285.17106 h -2"
       style="fill:#000000;fill-opacity:1;fill-rule:nonzero;stroke:#000000;stroke-width:0.6;stroke-linecap:butt;stroke-linejoin:round;stroke-miterlimit:10;stroke-dasharray:none;stroke-opacity:1"
       transform="matrix(1.3333333,0,0,-1.3333333,0,480)" />
    <path
       id="path73"
       d="m 69.103391,292.34147 h -2"
       style="fill:#000000;fill-opacity:1;fill-rule:nonzero;stroke:#000000;stroke-width:0.6;stroke-linecap:butt;stroke-linejoin:round;stroke-miterlimit:10;stroke-dasharray:none;stroke-opacity:1"
       transform="matrix(1.3333333,0,0,-1.3333333,0,480)" />
    <path
       id="path74"
       d="m 69.103391,298.55277 h -2"
       style="fill:#000000;fill-opacity:1;fill-rule:nonzero;stroke:#000000;stroke-width:0.6;stroke-linecap:butt;stroke-linejoin:round;stroke-miterlimit:10;stroke-dasharray:none;stroke-opacity:1"
       transform="matrix(1.3333333,0,0,-1.3333333,0,480)" />
    <path
       id="path75"
       d="m 69.103391,304.03152 h -2"
       style="fill:#000000;fill-opacity:1;fill-rule:nonzero;stroke:#000000;stroke-width:0.6;stroke-linecap:butt;stroke-linejoin:round;stroke-miterlimit:10;stroke-dasharray:none;stroke-opacity:1"
       transform="matrix(1.3333333,0,0,-1.3333333,0,480)" />
    <path
       id="path76"
       d="m 69.103391,341.17459 h -2"
       style="fill:#000000;fill-opacity:1;fill-rule:nonzero;stroke:#000000;stroke-width:0.6;stroke-linecap:butt;stroke-linejoin:round;stroke-miterlimit:10;stroke-dasharray:none;stroke-opacity:1"
       transform="matrix(1.3333333,0,0,-1.3333333,0,480)" />
    <path
       id="path77"
       d="m 2.9887948,-4.70054 c 0,-1.9101562 0.8203125,-3.703125 2.3085937,-3.703125 0.140625,0 0.28125,0.011719 0.421875,0.070312 0,0 -0.4453125,0.140625 -0.4453125,0.6679688 0,0.46875 0.3867188,0.6679687 0.6796875,0.6679687 0.2460938,0 0.6796875,-0.140625 0.6796875,-0.6914062 0,-0.6445313 -0.6328125,-1.0429688 -1.3125,-1.0429688 -1.5117187,0 -2.1679687,1.4765625 -2.3671875,2.1796875 H 2.930201 V -8.73179 l -2.30859373,0.2226563 v 0.515625 c 1.17187503,0 1.34765623,0.1289062 1.34765623,1.078125 v 5.5429687 c 0,0.75000003 -0.082031,0.85546878 -1.34765623,0.85546878 v 0.515625 C 1.0903573,-0.03647747 2.0161385,-0.03647747 2.5317635,-0.03647747 c 0.5742188,0 1.59375,0 2.1328125,0.03515625 v -0.515625 c -1.4414062,0 -1.6757812,0 -1.6757812,-0.90234378 z m 11.6572262,0.023437 c 0.07031,-0.082031 0.07031,-0.1289062 0.07031,-0.328125 0,-2.0273437 -1.066406,-3.796875 -3.339844,-3.796875 -2.1093749,0 -3.7851562,2.0039063 -3.7851562,4.453125 0,2.5898438 1.8867188,4.51171878 4.0078122,4.51171878 2.226563,0 3.105469,-2.12109378 3.105469,-2.53124998 0,-0.140625 -0.117187,-0.140625 -0.164062,-0.140625 -0.140625,0 -0.152344,0.035156 -0.234375,0.28125 -0.445313,1.34765623 -1.535157,2.02734373 -2.578125,2.02734373 -0.855469,0 -1.710938,-0.48046875 -2.2500004,-1.35937503 C 8.8686746,-2.567728 8.8686746,-3.7513217 8.8686746,-4.677103 Z M 8.8803963,-4.98179 c 0.140625,-2.8710937 1.6757817,-3.5039062 2.4726567,-3.5039062 1.359375,0 2.273437,1.2773437 2.296875,3.5039062 z M 22.093287,-6.9739775 c -0.375,0 -0.9375,0 -0.9375,0.703125 0,0.5507813 0.457031,0.7148438 0.726562,0.7148438 0.128907,0 0.714844,-0.058594 0.714844,-0.7617188 0,-1.4179687 -1.359375,-2.484375 -2.894531,-2.484375 -2.109375,0 -3.902344,1.9453125 -3.902344,4.5 0,2.6484375 1.875,4.46484378 3.902344,4.46484378 2.472656,0 3.09375,-2.29687498 3.09375,-2.51953128 0,-0.070312 -0.02344,-0.1289062 -0.164063,-0.1289062 -0.140625,0 -0.152343,0.011719 -0.234375,0.2695312 -0.515625,1.61718753 -1.652343,2.01562503 -2.507812,2.01562503 -1.277344,0 -2.8125,-1.17187503 -2.8125,-4.12500003 0,-3.0234375 1.476562,-4.125 2.648437,-4.125 0.773438,0 1.933594,0.3867188 2.367188,1.4765625 z m 9.729492,2.7070313 c 0,-2.5429688 -1.851562,-4.5351563 -4.03125,-4.5351563 -2.167969,0 -4.019531,1.9921875 -4.019531,4.5351563 0,2.5078125 1.851562,4.42968748 4.019531,4.42968748 2.179688,0 4.03125,-1.92187498 4.03125,-4.42968748 z m -4.03125,4.06640623 c -0.9375,0 -1.734375,-0.5625 -2.191406,-1.33593753 -0.492188,-0.890625 -0.550781,-2.015625 -0.550781,-2.8828125 0,-0.84375 0.03516,-1.875 0.550781,-2.7773437 0.398437,-0.65625 1.183594,-1.2890625 2.191406,-1.2890625 0.902344,0 1.652344,0.4921875 2.132813,1.1953125 0.621093,0.9375 0.621093,2.25 0.621093,2.8710937 0,0.7734375 -0.04687,1.96875 -0.574218,2.9296875 -0.5625,0.91406253 -1.417969,1.28906253 -2.179688,1.28906253 z M 39.630396,-6.7747587 c 0.175782,-0.4335938 0.492188,-1.2304688 1.652344,-1.2773438 v -0.515625 c -0.386719,0.023437 -0.878906,0.035156 -1.253906,0.035156 -0.421875,0 -1.078125,0 -1.476563,-0.035156 v 0.515625 c 0.492188,0.046875 0.773438,0.28125 0.773438,0.796875 0,0.1875 0,0.2226563 -0.117188,0.5039063 l -2.191406,5.53125 -2.367187,-5.9765625 c -0.128907,-0.2578125 -0.128907,-0.2929688 -0.128907,-0.375 0,-0.4804688 0.667969,-0.4804688 0.960938,-0.4804688 v -0.515625 c -0.480469,0.035156 -1.359375,0.035156 -1.851563,0.035156 -0.539062,0 -1.160156,0 -1.59375,-0.035156 v 0.515625 c 0.761719,0 1.171875,0 1.417969,0.6210938 l 2.882813,7.25390623 c 0.117187,0.29296875 0.140625,0.33984375 0.316406,0.33984375 0.1875,0 0.199219,-0.046875 0.328125,-0.33984375 z m 8.923828,2.0976562 c 0.07031,-0.082031 0.07031,-0.1289062 0.07031,-0.328125 0,-2.0273437 -1.066406,-3.796875 -3.339844,-3.796875 -2.109375,0 -3.785156,2.0039063 -3.785156,4.453125 0,2.5898438 1.886719,4.51171878 4.007812,4.51171878 2.226563,0 3.105469,-2.12109378 3.105469,-2.53124998 0,-0.140625 -0.117187,-0.140625 -0.164062,-0.140625 -0.140625,0 -0.152344,0.035156 -0.234375,0.28125 -0.445313,1.34765623 -1.535157,2.02734373 -2.578125,2.02734373 -0.855469,0 -1.710938,-0.48046875 -2.25,-1.35937503 -0.609375,-1.0078125 -0.609375,-2.1914062 -0.609375,-3.1171875 z M 42.788599,-4.98179 c 0.140625,-2.8710937 1.675782,-3.5039062 2.472657,-3.5039062 1.359375,0 2.273437,1.2773437 2.296875,3.5039062 z m 9.251954,0.28125 c 0,-1.9101562 0.820312,-3.703125 2.308593,-3.703125 0.140625,0 0.28125,0.011719 0.421875,0.070312 0,0 -0.445312,0.140625 -0.445312,0.6679688 0,0.46875 0.386719,0.6679687 0.679687,0.6679687 0.246094,0 0.679688,-0.140625 0.679688,-0.6914062 0,-0.6445313 -0.632813,-1.0429688 -1.3125,-1.0429688 -1.511719,0 -2.167969,1.4765625 -2.367188,2.1796875 h -0.02344 V -8.73179 l -2.308594,0.2226563 v 0.515625 c 1.171875,0 1.347656,0.1289062 1.347656,1.078125 v 5.5429687 c 0,0.75000003 -0.08203,0.85546878 -1.347656,0.85546878 v 0.515625 c 0.46875,-0.03515625 1.394531,-0.03515625 1.910156,-0.03515625 0.574219,0 1.59375,0 2.132813,0.03515625 v -0.515625 c -1.441406,0 -1.675781,0 -1.675781,-0.90234378 z m 11.657226,0.023437 c 0.07031,-0.082031 0.07031,-0.1289062 0.07031,-0.328125 0,-2.0273437 -1.066407,-3.796875 -3.339844,-3.796875 -2.109375,0 -3.785156,2.0039063 -3.785156,4.453125 0,2.5898438 1.886718,4.51171878 4.007812,4.51171878 2.226563,0 3.105469,-2.12109378 3.105469,-2.53124998 0,-0.140625 -0.117188,-0.140625 -0.164063,-0.140625 -0.140625,0 -0.152343,0.035156 -0.234375,0.28125 -0.445312,1.34765623 -1.535156,2.02734373 -2.578125,2.02734373 -0.855468,0 -1.710937,-0.48046875 -2.25,-1.35937503 C 57.920432,-2.567728 57.920432,-3.7513217 57.920432,-4.677103 Z M 57.932154,-4.98179 c 0.140625,-2.8710937 1.675781,-3.5039062 2.472656,-3.5039062 1.359375,0 2.273438,1.2773437 2.296875,3.5039062 z m 12.076172,-8.625 v 0.515625 c 1.183594,0 1.359375,0.117188 1.359375,1.078125 v 4.6640625 C 71.28567,-7.4544462 70.465357,-8.73179 68.859889,-8.73179 c -2.039063,0 -4.007813,1.8164063 -4.007813,4.453125 0,2.6015625 1.851563,4.44140628 3.808594,4.44140628 1.6875,0 2.566406,-1.32421878 2.671875,-1.45312498 v 1.45312498 l 2.402344,-0.1640625 v -0.515625 c -1.171875,0 -1.347657,-0.1171875 -1.347657,-1.07812498 V -13.829446 Z m 1.324219,11.2148438 c 0,0.5976562 -0.363281,1.1367187 -0.820313,1.53515623 -0.679687,0.59765625 -1.359375,0.69140625 -1.734375,0.69140625 -0.574218,0 -2.648437,-0.29296875 -2.648437,-4.10156248 0,-3.9023438 2.308594,-4.1367188 2.824219,-4.1367188 0.914062,0 1.652343,0.515625 2.109375,1.2304688 0.269531,0.421875 0.269531,0.4804687 0.269531,0.8320312 z M 88.688014,-13.747415 c -0.152344,-0.339844 -0.234375,-0.339844 -0.398438,-0.339844 -0.234375,0 -0.257812,0.04687 -0.398437,0.316407 l -6.457032,13.42968703 c -0.01172,0.046875 -0.09375,0.22265625 -0.09375,0.24609375 0,0.0703125 0.02344,0.09375 0.375,0.09375 h 13.125 c 0.363282,0 0.386719,-0.0234375 0.386719,-0.09375 0,-0.0234375 -0.08203,-0.19921875 -0.105469,-0.24609375 z m -0.890625,1.171875 5.519531,11.4609375 h -11.0625 z m 0,0"
       style="fill:#000000;fill-opacity:1;fill-rule:nonzero;stroke:none"
       aria-label="reco&#10;v&#10;ered&#10;∆"
       transform="matrix(0,-1.3333333,1.3333333,0,26.497855,279.30147)" />
    <path
       id="path78"
       d="m 4.7106271,-1.7684184 c -0.058594,0.2226563 -0.082031,0.28125 -0.2578125,0.4921875 -0.5742188,0.73828129 -1.1601563,0.99609379 -1.59375,0.99609379 -0.4570313,0 -0.890625,-0.36328125 -0.890625,-1.32421879 0,-0.7382812 0.4101562,-2.296875 0.7265625,-2.9296875 0.3984375,-0.7734375 1.03125,-1.3359375 1.6171875,-1.3359375 0.9140625,0 1.1015625,1.1484375 1.1015625,1.2304688 l -0.046875,0.1875 z m 0.8671875,-3.4570312 c -0.1757813,-0.4101563 -0.5742188,-0.9257813 -1.265625,-0.9257813 -1.5234375,0 -3.2578125,1.9101563 -3.2578125,3.9960938 0,1.44140624 0.8789062,2.15624999 1.78125,2.15624999 0.7382812,0 1.3945312,-0.5859375 1.640625,-0.8671875 L 4.1715646,0.38783164 C 3.9723458,1.1612691 3.8903146,1.5128316 3.3864083,1.9933004 2.8121896,2.5675191 2.2848458,2.5675191 1.9801583,2.5675191 c -0.421875,0 -0.7617187,-0.023437 -1.11328122,-0.140625 C 1.3121896,2.2979879 1.4176583,1.9112691 1.4176583,1.7589254 c 0,-0.2226563 -0.1640625,-0.4453125 -0.46874997,-0.4453125 -0.33984375,0 -0.703125,0.28125 -0.703125,0.7382812 0,0.5742188 0.57421875,0.796875 1.75781247,0.796875 1.8046875,0 2.7421875,-1.1601562 2.9179688,-1.91015621 l 1.546875,-6.24609379 c 0.046875,-0.1757812 0.046875,-0.1992187 0.046875,-0.2226562 0,-0.1992188 -0.1523438,-0.3515625 -0.3632813,-0.3515625 -0.3398437,0 -0.5273437,0.28125 -0.5742187,0.65625 z m 0,0"
       style="fill:#000000;fill-opacity:1;fill-rule:nonzero;stroke:none"
       aria-label="g"
       transform="matrix(0,-1.3333333,1.3333333,0,30.482891,151.21443)" />
    <path
       id="path78-1"
       d="m 314.61959,448.17729 c -0.0781,0.29688 -0.10938,0.375 -0.34375,0.65625 -0.76563,0.98438 -1.54688,1.32813 -2.125,1.32813 -0.60938,0 -1.1875,-0.48438 -1.1875,-1.76563 0,-0.98437 0.54687,-3.0625 0.96875,-3.90625 0.53125,-1.03125 1.375,-1.78125 2.15625,-1.78125 1.21875,0 1.46875,1.53125 1.46875,1.64063 l -0.0625,0.25 z m 1.15625,-4.60937 c -0.23438,-0.54688 -0.76563,-1.23438 -1.6875,-1.23438 -2.03125,0 -4.34375,2.54688 -4.34375,5.32813 0,1.92187 1.17187,2.875 2.375,2.875 0.98437,0 1.85937,-0.78125 2.1875,-1.15625 l -0.40625,1.67187 c -0.26563,1.03125 -0.375,1.5 -1.04688,2.14063 -0.76562,0.76562 -1.46875,0.76562 -1.875,0.76562 -0.5625,0 -1.01562,-0.0312 -1.48437,-0.1875 0.59375,-0.17187 0.73437,-0.6875 0.73437,-0.89062 0,-0.29688 -0.21875,-0.59375 -0.625,-0.59375 -0.45312,0 -0.9375,0.375 -0.9375,0.98437 0,0.76563 0.76563,1.0625 2.34375,1.0625 2.40625,0 3.65625,-1.54687 3.89063,-2.54687 l 2.0625,-8.32813 c 0.0625,-0.23437 0.0625,-0.26562 0.0625,-0.29687 0,-0.26563 -0.20313,-0.46875 -0.48438,-0.46875 -0.45312,0 -0.70312,0.375 -0.76562,0.875 z m 0,0"
       style="fill:#000000;fill-opacity:1;fill-rule:nonzero;stroke:none;stroke-width:1.33333"
       aria-label="g" />
    <path
       id="path79"
       d="m 104.21886,98.430515 -0.31629,5.446075 1.15336,1.48965 1.41115,3.95643 4.03492,4.93053 0.16891,0.51554 1.1089,5.44608 2.96353,5.44607 1.20474,1.53009 1.34134,3.91598 2.68386,5.44608 1.42087,1.86021 1.33562,3.58586 4.11046,9.09391 0.6933,1.79825 5.49093,5.44607 1.62418,5.44608 3.08374,4.20057 1.08306,1.2455 4.83229,5.44608 1.94026,5.44607 3.03654,2.21822 5.45606,3.22786 3.12554,5.44607 2.31055,2.36916 5.44607,4.51577 5.90514,4.00722 5.35193,5.44608 5.08116,6.41003 5.44607,5.38555 3.4815,4.54264 1.96458,2.10236 3.71114,3.34372 1.73493,1.808 5.44608,5.47244 16.61942,14.50386 5.21542,5.44607 5.39553,4.49955 1.56768,0.94653 3.8784,3.33381 6.38865,2.11226 4.5035,3.48759 4.92403,1.95849 0.52204,0.37733 5.44608,2.85208 5.44607,0.24149 5.44608,1.25327 5.44607,0.2719 5.44608,-0.9691 5.44607,-1.09735 3.81711,-2.92962 1.62897,-3.23463 1.45163,-2.21145 -1.45163,-2.20376 -1.30292,-3.24231 -4.14316,-5.44608 -2.99512,-5.44607 -2.45095,-2.28708 -2.74253,-3.159 -3.77662,-5.44607 -4.373,-3.29773 -1.52272,-2.14835 -10.44688,-10.89215 -9.8147,-7.42568 -3.76334,-3.46647 -1.68274,-1.24234 -5.44607,-4.31157 -5.85479,-5.33824 -15.92951,-15.15722 -0.82549,-1.181 -5.39239,-5.44608 -4.67427,-4.21963 -1.11454,-1.22644 -11.38966,-10.89215 -10.99076,-10.89215 -20.07364,-18.50002 -5.44608,-3.59912 -16.33822,-15.39765 -0.98531,-0.62574 -4.46077,-4.13652 -2.82669,-1.30955 -2.61938,-2.26281 -6.0034,-3.18327 -4.88875,-3.962083 -5.85206,-1.483992 -5.04009,-1.065681 -0.83707,1.065681 v 0"
       style="fill:none;stroke:#ff7f0e;stroke-width:1;stroke-linecap:butt;stroke-linejoin:round;stroke-miterlimit:10;stroke-dasharray:none;stroke-opacity:1"
       transform="matrix(1.3333333,0,0,-1.3333333,0,480)"
       clip-path="url(#clipPath80)" />
    <path
       id="path81"
       d="m 120.58645,114.76874 0.71392,5.44608 0.0938,0.12769 2.29294,5.31838 3.15314,3.9621 0.73473,1.48397 3.87077,5.44608 0.84057,1.12168 2.47647,4.32439 2.96961,3.59499 1.05497,1.85109 4.3911,5.17982 0.18412,0.26626 3.71559,5.44607 1.54637,2.06505 2.40903,3.38103 3.03704,3.49534 1.43463,1.95073 4.01145,4.70598 0.63643,0.7401 4.80964,5.1876 0.2454,0.25847 5.20068,5.44608 4.94299,5.44607 0.50308,0.53882 4.48282,4.90726 0.96326,1.06319 4.36924,4.38288 1.07683,1.2095 4.29691,4.23658 1.14917,1.24427 4.50472,4.2018 0.94135,1.05561 4.56781,4.39047 0.87827,0.97259 5.32256,4.47348 0.12351,0.1341 5.44608,4.89239 0.78135,0.41959 4.66472,3.96685 2.46335,1.47922 2.98273,2.63797 5.44607,2.53354 0.87768,0.27457 4.5684,2.37851 5.44607,0.71246 2.92152,-3.09097 -0.46751,-5.44608 -2.45401,-3.35892 -0.85297,-2.08715 -3.75001,-5.44608 -0.84309,-0.82742 -2.72461,-4.61865 -2.72147,-2.73802 -1.64536,-2.70806 -3.80071,-3.88165 -0.97146,-1.56442 -4.47462,-4.50875 -0.5776,-0.93733 -4.86847,-4.98541 -0.2964,-0.46066 -5.14968,-5.21021 -0.16836,-0.23587 -5.27771,-5.33342 -0.0833,-0.11265 -5.36283,-5.41073 -0.0273,-0.0353 -5.04142,-5.44607 -0.37738,-0.33594 -4.59569,-5.11014 -0.85039,-0.76469 -4.34396,-4.68138 -1.10211,-1.00127 -4.26448,-4.44481 -1.1816,-1.07108 -4.56697,-4.37499 -0.8791,-0.7831 -5.24644,-4.66298 -0.19964,-0.1757 -5.44607,-5.16308 -0.12256,-0.1073 -5.32352,-5.16867 -0.33331,-0.2774 -5.11276,-4.81393 -0.83287,-0.63215 -4.61321,-4.32033 -1.71039,-1.12574 -3.73568,-3.32471 -3.6096,-2.12136 -1.83648,-1.57103 -5.44607,-2.95471 -3.80811,-0.92034 -1.63797,-0.77431 -0.8077,0.77431"
       style="fill:none;stroke:#ff7f0e;stroke-width:2;stroke-linecap:butt;stroke-linejoin:round;stroke-miterlimit:10;stroke-dasharray:none;stroke-opacity:1"
       transform="matrix(1.3333333,0,0,-1.3333333,0,480)"
       clip-path="url(#clipPath82)" />
    <path
       id="path83"
       d="m 140.50537,136.55304 2.25323,5.44607 0.41985,0.5402 3.11614,4.90588 2.32994,2.77704 1.95751,2.66904 3.48856,3.98411 1.22092,1.46196 4.22516,4.58955 0.77766,0.85653 4.66841,5.00092 0.44985,0.44515 4.99623,5.26746 0.18834,0.17862 5.25773,5.44607 4.94652,5.44608 0.49956,0.56813 4.62218,4.87794 0.82389,0.93973 4.44989,4.50635 0.99619,1.11241 5.13772,4.33366 0.30835,0.33507 5.44608,4.51874 1.38846,0.59227 4.05761,3.1197 5.44608,-1.17453 0.17273,-1.94517 -0.17273,-0.18222 -2.77658,-5.26386 -2.6695,-2.8562 -1.51612,-2.58987 -3.92995,-4.11396 -0.9397,-1.33212 -4.50638,-4.71974 -0.54472,-0.72633 -4.90135,-5.10529 -0.25992,-0.34079 -5.18616,-5.41019 -0.0286,-0.0359 -4.98961,-5.44608 -0.4279,-0.38653 -4.946,-5.05954 -0.50008,-0.45041 -5.09347,-4.99567 -0.3526,-0.31337 -5.44608,-5.06637 -0.0722,-0.0663 -5.37386,-5.00635 -0.53549,-0.43973 -4.91059,-4.35874 -1.46635,-1.08734 -3.97972,-3.38243 -3.31507,-2.06364 -2.13101,-1.65485 -2.67308,1.65485"
       style="fill:none;stroke:#ff7f0e;stroke-width:4;stroke-linecap:butt;stroke-linejoin:round;stroke-miterlimit:10;stroke-dasharray:none;stroke-opacity:1"
       transform="matrix(1.3333333,0,0,-1.3333333,0,480)"
       clip-path="url(#clipPath84)" />
    <path
       id="path85"
       d="M 101.34555,94.72014 315.55784,308.93243"
       style="fill:none;stroke:#000000;stroke-width:1.5;stroke-linecap:butt;stroke-linejoin:round;stroke-miterlimit:10;stroke-dasharray:5.55, 2.4;stroke-dashoffset:0;stroke-opacity:0.5"
       transform="matrix(1.3333333,0,0,-1.3333333,0,480)"
       clip-path="url(#clipPath86)" />
    <path
       id="path87"
       d="M 69.103391,62.477978 V 341.17459"
       style="fill:none;stroke:#000000;stroke-width:0.8;stroke-linecap:square;stroke-linejoin:miter;stroke-miterlimit:10;stroke-dasharray:none;stroke-opacity:1"
       transform="matrix(1.3333333,0,0,-1.3333333,0,480)" />
    <path
       id="path88"
       d="M 347.8,62.477978 V 341.17459"
       style="fill:none;stroke:#000000;stroke-width:0.8;stroke-linecap:square;stroke-linejoin:miter;stroke-miterlimit:10;stroke-dasharray:none;stroke-opacity:1"
       transform="matrix(1.3333333,0,0,-1.3333333,0,480)" />
    <path
       id="path89"
       d="M 69.103391,62.477978 H 347.8"
       style="fill:none;stroke:#000000;stroke-width:0.8;stroke-linecap:square;stroke-linejoin:miter;stroke-miterlimit:10;stroke-dasharray:none;stroke-opacity:1"
       transform="matrix(1.3333333,0,0,-1.3333333,0,480)" />
    <path
       id="path90"
       d="M 69.103391,341.17459 H 347.8"
       style="fill:none;stroke:#000000;stroke-width:0.8;stroke-linecap:square;stroke-linejoin:miter;stroke-miterlimit:10;stroke-dasharray:none;stroke-opacity:1"
       transform="matrix(1.3333333,0,0,-1.3333333,0,480)" />
  </g>
</svg>
